<svg xmlns="http://www.w3.org/2000/svg" viewBox="0 0 80.91 101.52"><defs><style>.cls-1{fill:#ffca22;}.cls-2{fill:#e1b41d;}.cls-3{fill:#f9d367;}.cls-4,.cls-6{fill:#b40e3d;}.cls-5{fill:#a00d3e;}.cls-6{stroke:#a00d3e;stroke-linecap:round;stroke-linejoin:round;stroke-width:4px;}</style></defs><title>Asset 19</title><g id="Layer_2" data-name="Layer 2"><g id="Layer_1-2" data-name="Layer 1"><path class="cls-1" d="M5.75,82V50.66c0-17.33,15.54-31.37,34.71-31.37h0c19.17,0,34.71,14,34.71,31.37V82Z"/><path class="cls-2" d="M40.46,19.28h0c-.5,0-1,0-1.5,0C57.44,20,72.17,33.78,72.17,50.66V82h3V50.66C75.17,33.33,59.63,19.28,40.46,19.28Z"/><rect class="cls-1" x="1.56" y="79.3" width="77.8" height="13.25" rx="6.63" ry="6.63"/><path class="cls-2" d="M75.49,80.09a6.1,6.1,0,0,1,.87,3.13c0,3.66-3.28,6.63-7.33,6.63H5.89a7.92,7.92,0,0,1-3.47-.79,7.47,7.47,0,0,0,6.46,3.49H72c4,0,7.33-3,7.33-6.63A6.57,6.57,0,0,0,75.49,80.09Z"/><path class="cls-3" d="M46.44,25.36c-1-.08-2-.12-3-.12h0c-19.17,0-34.71,14-34.71,31.37v9.71h6V56.61C14.72,40.19,28.67,26.73,46.44,25.36Z"/><path class="cls-2" d="M50.81,92.55c0,5-4.44,9-9.92,9s-9.92-4-9.92-9"/><path class="cls-4" d="M40.28,21S70.85-16,78.17,10.5,40.28,21,40.28,21Z"/><path class="cls-5" d="M40.08,20.83a31.36,31.36,0,0,1,2.27-3.78c.79-1.16,1.8-2.52,3-4a53.79,53.79,0,0,1,4.5-4.77,38.72,38.72,0,0,1,6.2-4.82A24.42,24.42,0,0,1,64.5.26,16.43,16.43,0,0,1,69.36.11,10.37,10.37,0,0,1,74,2l1,.79c.29.3.56.62.85.92l.43.46.35.51.71,1c.43.7.81,1.44,1.21,2.17L79,9l.25.57.13.29.06.14,0,.07,0,0s0,0,0,.1l.77,2.23c.2.84.41,1.72.55,2.6a11.94,11.94,0,0,1-.53,5.48,10.46,10.46,0,0,1-3.44,4.67A15.13,15.13,0,0,1,72,27.53a25.69,25.69,0,0,1-9.19.8,50.57,50.57,0,0,1-7.79-1.27,61.84,61.84,0,0,1-6.29-1.91c-1.84-.65-3.4-1.32-4.67-1.9s-2.25-1.09-2.91-1.45l-1-.57a.29.29,0,0,1-.12-.38Zm.81,0,3.77.49,4.88.64c1.88.23,4,.5,6.26.7s4.74.39,7.27.42a35.82,35.82,0,0,0,7.63-.57A11.31,11.31,0,0,0,74,21.24a6,6,0,0,0,2.17-2.4l.36-.8.22-.9.13-.46L77,16.2l.12-1c0-.67,0-1.34,0-2.05l-.27-2.35-.45-2.13c-.24-.69-.47-1.4-.74-2.09a9,9,0,0,0-2.59-3.39,6.44,6.44,0,0,0-3.85-1.31,10.37,10.37,0,0,0-4,.94A39.38,39.38,0,0,0,58.52,7.1c-2.07,1.51-4.06,3-5.85,4.38s-3.45,2.74-4.92,3.93l-3.84,3.08C42.49,19.63,41.44,20.42,40.89,20.83Z"/><path class="cls-4" d="M40.64,21S10.07-16,2.74,10.5,40.64,21,40.64,21Z"/><path class="cls-5" d="M40,20.83c-.55-.41-1.6-1.2-3-2.34l-3.84-3.08C31.7,14.22,30,12.9,28.24,11.49S24.46,8.62,22.39,7.1a39.38,39.38,0,0,0-6.72-4.29,10.37,10.37,0,0,0-4-.94A6.44,6.44,0,0,0,7.85,3.19,9,9,0,0,0,5.27,6.58C5,7.26,4.76,8,4.52,8.67l-.46,2.19c0-.12,0,0,0,0v.11l0,.15,0,.29L3.94,12,3.8,13.14c0,.71,0,1.38,0,2.05l.12,1,.05.49.13.46.22.9.36.8a6,6,0,0,0,2.17,2.4,11.31,11.31,0,0,0,3.32,1.27,35.82,35.82,0,0,0,7.63.57c2.54,0,5-.18,7.27-.42s4.39-.47,6.26-.7l4.88-.64Zm.7.4-1,.57c-.66.36-1.64.87-2.91,1.45S34,24.5,32.14,25.15a61.84,61.84,0,0,1-6.29,1.91,50.57,50.57,0,0,1-7.79,1.27,25.69,25.69,0,0,1-9.19-.8,15.13,15.13,0,0,1-4.81-2.34A10.46,10.46,0,0,1,.62,20.52,11.94,11.94,0,0,1,.09,15c.14-.88.35-1.77.55-2.6l.78-2.3C2.64,7.09,4.25,4,6.95,2A10.37,10.37,0,0,1,11.56.11a16.43,16.43,0,0,1,4.85.14,24.42,24.42,0,0,1,8.4,3.18A38.72,38.72,0,0,1,31,8.26,53.79,53.79,0,0,1,35.52,13c1.24,1.5,2.25,2.87,3,4a31.36,31.36,0,0,1,2.27,3.78v0A.29.29,0,0,1,40.72,21.23Z"/><polygon class="cls-6" points="14.38 54.28 14.57 45.65 5.94 45.84 37 14.78 45.44 23.22 14.38 54.28"/><polygon class="cls-6" points="66.79 54.28 66.61 45.65 75.23 45.84 44.18 14.78 35.74 23.22 66.79 54.28"/><rect class="cls-6" x="31.98" y="11.35" width="16.95" height="16.95" rx="7.35" ry="7.35"/></g></g></svg>