<svg xmlns="http://www.w3.org/2000/svg" viewBox="0 0 190.24 567.3"><defs><style>.cls-1{fill:#b40e3d;}.cls-2{fill:#9d1735;}</style></defs><title>Asset 7</title><g id="Layer_2" data-name="Layer 2"><g id="Layer_1-2" data-name="Layer 1"><rect class="cls-1" x="-188.53" y="188.53" width="567.3" height="190.24" transform="translate(378.77 188.53) rotate(90)"/><path class="cls-1" d="M5.89,384.49c.61.86,1.27,1.68,1.87,2.54a11.51,11.51,0,0,1,.07,13.15c-.63.92-1.34,1.78-2,2.7a11.46,11.46,0,0,0,0,13.08c.61.9,1.29,1.74,1.92,2.62a11.5,11.5,0,0,1,0,13.3c-.5.71-1,1.39-1.55,2.09a11.5,11.5,0,0,0,0,14.07c.46.63.93,1.23,1.39,1.86a11.51,11.51,0,0,1,0,13.76c-.47.66-1,1.29-1.44,1.94a11.49,11.49,0,0,0,0,14.06c1.38,1.87,2.87,3.66,3.34,6a11.45,11.45,0,0,1-1.7,9.21c-.73,1-1.56,2-2.22,3.09a11.27,11.27,0,0,0,0,12.45c.64,1.05,1.47,2,2.17,3a11.49,11.49,0,0,1,0,13c-.71,1-1.56,2-2.22,3.09a11.27,11.27,0,0,0,0,12.45c.59,1,1.34,1.85,2,2.79a11.5,11.5,0,0,1,0,13.61c-.16.23-.32.46-.5.67-1.94,2.38-3.4,4.95-3.26,8.22H17.49a9.68,9.68,0,0,1,1.36-5.46c.67-1.11,1.48-2.13,2.24-3.19a11.42,11.42,0,0,0,.68-13.15c-.68-1.2-1.63-2.25-2.4-3.41a11,11,0,0,1-.7-11.45,23.59,23.59,0,0,1,2.65-3.9,11.55,11.55,0,0,0,.39-12.9c-.68-1-1.47-2-2.17-3a11.52,11.52,0,0,1,0-13.23c.78-1.12,1.65-2.17,2.37-3.33a11.66,11.66,0,0,0-.6-12.67,21.39,21.39,0,0,1-3.14-5.1,10.83,10.83,0,0,1,1.47-10.57,28.73,28.73,0,0,0,2.48-3.68,11.19,11.19,0,0,0-.79-12.17c-.45-.66-1-1.29-1.43-1.94a11.53,11.53,0,0,1,0-14.21c.51-.7,1-1.38,1.54-2.09a11.56,11.56,0,0,0-.68-14.12c-3.18-3.75-4.28-8-2.43-12.58a25.42,25.42,0,0,1,3.08-4.8,10.73,10.73,0,0,0,1.88-4.48,11.31,11.31,0,0,0-2-9c-.52-.69-1-1.39-1.55-2.09a10.87,10.87,0,0,1-2.21-6.84H3.9A9.93,9.93,0,0,0,5.89,384.49Z"/><path class="cls-1" d="M62,387a11.52,11.52,0,0,1,0,13.46c-.73,1-1.56,2-2.2,3.1A11.06,11.06,0,0,0,60,415.68c.57.92,1.27,1.75,1.9,2.63a11.52,11.52,0,0,1,.06,13.77c-.47.65-.94,1.31-1.44,1.94a11.62,11.62,0,0,0,0,14.06c.54.67,1.05,1.38,1.55,2.09a11.49,11.49,0,0,1,.06,13.23c-.49.71-1,1.4-1.54,2.09a11.63,11.63,0,0,0-2.18,9.71,12.29,12.29,0,0,0,2.69,5.21A12.62,12.62,0,0,1,64,486.33a11.49,11.49,0,0,1-2,8.81c-.5.67-1,1.36-1.5,2a11.62,11.62,0,0,0,.08,14.22c.43.53.83,1.08,1.23,1.63a11.59,11.59,0,0,1-.1,14.15,22.53,22.53,0,0,0-2.68,4.2,10.91,10.91,0,0,0,1,10.75c.67,1,1.47,2,2.17,3a11.51,11.51,0,0,1,0,13c-.28.41-.58.8-.88,1.2-2.36,3.08-2.79,4.15-3.17,8H71.89A9.33,9.33,0,0,1,73.17,562c.77-1.27,1.68-2.45,2.54-3.66a11.5,11.5,0,0,0,.11-13.3c-.61-.89-1.29-1.74-1.91-2.63a11.48,11.48,0,0,1,0-13.15c.67-1,1.41-1.88,2.07-2.85a11.49,11.49,0,0,0,0-12.77c-.69-1-1.48-2-2.18-3a11.49,11.49,0,0,1,0-12.77c.64-.95,1.36-1.84,2-2.78a11.42,11.42,0,0,0,0-13.22c-.67-1-1.41-1.88-2.07-2.86a11.49,11.49,0,0,1,.08-12.85c.65-.94,1.38-1.83,2-2.78a11.44,11.44,0,0,0-.06-13.15c-.62-.89-1.3-1.73-1.92-2.62a11.52,11.52,0,0,1,0-13.08c.6-.87,1.26-1.68,1.87-2.54a11.48,11.48,0,0,0,.13-13.23c-.66-1-1.41-1.88-2.07-2.86a11.5,11.5,0,0,1,0-12.92c.65-.94,1.37-1.84,2-2.78a11.48,11.48,0,0,0,.08-12.92c-.76-1.13-1.62-2.19-2.37-3.32a9.79,9.79,0,0,1-1.66-6.07H58.15a10.75,10.75,0,0,0,2.16,6.77C60.88,385.41,61.47,386.17,62,387Z"/><path class="cls-1" d="M91.44,394.95a11,11,0,0,1-2,5.4c-.56.78-1.15,1.54-1.71,2.32a11.45,11.45,0,0,0,0,13.53c.5.71,1,1.39,1.54,2.09a11.5,11.5,0,0,1,0,13.92c-.53.73-1.08,1.43-1.6,2.17a11.48,11.48,0,0,0-.08,13.23c.65.94,1.38,1.83,2,2.78a11.47,11.47,0,0,1,0,12.92c-.56.82-1.19,1.58-1.76,2.39A11.52,11.52,0,0,0,88.14,480c1.43,1.85,2.8,3.72,3.16,6.11a11.48,11.48,0,0,1-1.9,8.92c-.62.85-1.27,1.68-1.87,2.54a11.5,11.5,0,0,0,0,13.15c.6.86,1.26,1.69,1.87,2.55a11.49,11.49,0,0,1,0,13.39c-.57.81-1.19,1.58-1.76,2.39a11.48,11.48,0,0,0,0,13.38c.55.78,1.16,1.53,1.71,2.31a11.52,11.52,0,0,1-.08,13.69c-.29.4-.59.8-.89,1.19a11.65,11.65,0,0,0-2.91,7.63H99.07a10,10,0,0,1,1.51-5.71c.66-1,1.42-2,2.15-3a11.49,11.49,0,0,0,0-13.91c-.53-.73-1.08-1.43-1.6-2.16a11.5,11.5,0,0,1,0-13.31c.55-.79,1.15-1.54,1.71-2.32a11.47,11.47,0,0,0,.07-13.61c-.55-.78-1.16-1.53-1.71-2.32a11.5,11.5,0,0,1,0-13.46c.7-1,1.49-1.91,2.11-2.94a11.23,11.23,0,0,0,.11-12.05c-.61-1.07-1.44-2-2.16-3a11.48,11.48,0,0,1,0-13.61c.54-.76,1.11-1.49,1.65-2.24a11.46,11.46,0,0,0,.1-13.38c-.67-1-1.42-1.88-2.07-2.86a11.52,11.52,0,0,1,0-12.69c.67-1,1.44-1.94,2.12-2.93a11.46,11.46,0,0,0-.07-13.08c-.58-.84-1.22-1.64-1.81-2.47a11.49,11.49,0,0,1-.06-13.38c.55-.79,1.15-1.54,1.71-2.32a11.47,11.47,0,0,0,.08-13.54c-.39-.56-.79-1.11-1.22-1.64A11.6,11.6,0,0,1,99,377.88H85.46a11.88,11.88,0,0,0,3,7.81A12,12,0,0,1,91.44,394.95Z"/><path class="cls-1" d="M34.16,385.83A12.26,12.26,0,0,1,36.83,391,11.49,11.49,0,0,1,35,400.41c-.69.95-1.46,1.85-2.06,2.86a11.25,11.25,0,0,0,0,12.37c.6,1,1.38,1.9,2.06,2.86A11.49,11.49,0,0,1,35,432c-.75,1.06-1.62,2.05-2.26,3.18a11.23,11.23,0,0,0,.15,12.05c.6,1,1.37,1.91,2.06,2.86a11.5,11.5,0,0,1,0,13.61,30.67,30.67,0,0,0-2.3,3.26A11.27,11.27,0,0,0,33,479c.54.86,1.21,1.65,1.81,2.47a11.47,11.47,0,0,1,0,13.91c-.4.55-.81,1.09-1.22,1.64a11.49,11.49,0,0,0,0,14.43c1.37,1.84,2.8,3.64,3.23,6a11.51,11.51,0,0,1-1.91,9.35c-.5.67-1,1.34-1.49,2a11.5,11.5,0,0,0,0,14.06c.57.77,1.16,1.53,1.7,2.32a11.51,11.51,0,0,1,0,12.85c-.09.13-.17.26-.26.38-2.06,2.62-4,5.3-3.76,8.91H44.54a9.45,9.45,0,0,1,1.36-5.5c.73-1.18,1.58-2.29,2.4-3.42a11.49,11.49,0,0,0,.1-13.46c-.55-.78-1.15-1.53-1.71-2.31a11.51,11.51,0,0,1,.09-13.77c.55-.75,1.12-1.48,1.65-2.24a11.48,11.48,0,0,0,0-13.23c-.75-1.06-1.62-2.05-2.26-3.17a11.26,11.26,0,0,1,0-12.06c.62-1.06,1.44-2,2.16-3a11.47,11.47,0,0,0,0-13.46c-.55-.78-1.16-1.53-1.71-2.32a11.5,11.5,0,0,1,0-13.46c.52-.73,1.08-1.44,1.6-2.16a11.45,11.45,0,0,0,0-13.83c-.44-.6-.89-1.19-1.33-1.79a11.52,11.52,0,0,1,0-14.14c.42-.58.85-1.14,1.27-1.71a11.45,11.45,0,0,0,0-14.05c-.44-.6-.89-1.19-1.33-1.79a11.5,11.5,0,0,1,0-13.91c.53-.73,1.08-1.43,1.6-2.17a11.47,11.47,0,0,0,0-13.38c-.77-1.08-1.6-2.13-2.31-3.25a9.09,9.09,0,0,1-1.46-5.82H31c.09.73.15,1.47.27,2.2A12.46,12.46,0,0,0,34.16,385.83Z"/><path class="cls-1" d="M172,398.09a15.74,15.74,0,0,1-2.15,3.44,13.82,13.82,0,0,0-2.53,4.7,11.63,11.63,0,0,0,2.41,10.94,11.77,11.77,0,0,1,2.83,10.69,16.25,16.25,0,0,1-1.73,4,25,25,0,0,1-1.79,2.48,11.53,11.53,0,0,0-.08,13.39c.56.81,1.19,1.59,1.76,2.39a11.5,11.5,0,0,1-.27,13.83,15.65,15.65,0,0,0-3.1,5.32,12.07,12.07,0,0,0,2.48,11.29,11.8,11.8,0,0,1,2.81,5.46,11.59,11.59,0,0,1-2,9.26c-.55.75-1.12,1.48-1.66,2.24a11.49,11.49,0,0,0,0,13.39c.57.81,1.18,1.59,1.75,2.4a11.45,11.45,0,0,1-.36,13.89c-1.64,2.12-3.09,4.31-3.4,7.08a11.89,11.89,0,0,0,2.49,9c1.41,1.81,2.8,3.63,3.18,6a11.62,11.62,0,0,1-1.94,9.17c-.2.27-.39.56-.6.82a12,12,0,0,0-3.2,8.12h13.54a10.41,10.41,0,0,1,1.76-6.13c.59-.87,1.23-1.7,1.86-2.55a11.51,11.51,0,0,0,.06-14c-.49-.68-1-1.33-1.49-2a11.51,11.51,0,0,1,.13-13.84c.51-.7,1.05-1.38,1.55-2.09a11.49,11.49,0,0,0-.11-13.53c-.52-.73-1.08-1.44-1.6-2.17a11.49,11.49,0,0,1,0-13.61c.4-.55.81-1.09,1.22-1.64,3.51-4.72,3.51-10-.07-14.73-1.59-2.09-3-4.21-3.29-6.94a11.44,11.44,0,0,1,2-8c.57-.81,1.19-1.59,1.76-2.39a11.48,11.48,0,0,0,0-13.61c-.5-.71-1-1.38-1.55-2.09a11.5,11.5,0,0,1,0-13.84c.36-.5.74-1,1.11-1.49,3.56-4.75,3.58-9.95,0-14.73-1.26-1.69-2.58-3.34-3.06-5.46a11.56,11.56,0,0,1,1.94-9.95c.43-.57.86-1.13,1.28-1.71a11.51,11.51,0,0,0,0-14.29c-1.36-1.84-2.85-3.62-3.26-6-.15-.88-.21-1.78-.31-2.67H166.83a13,13,0,0,0,3.27,8.19A11.44,11.44,0,0,1,172,398.09Z"/><path class="cls-1" d="M114.56,384.18c.59.87,1.24,1.7,1.86,2.55a11.52,11.52,0,0,1,.12,13.69c-.69,1-1.5,1.91-2.11,2.94a11.24,11.24,0,0,0,.06,12.29c.62,1,1.42,1.95,2.11,2.94a11.52,11.52,0,0,1,0,13.31c-.64.91-1.34,1.78-2,2.7a11.47,11.47,0,0,0,.08,13c.77,1.12,1.67,2.16,2.34,3.34a11.2,11.2,0,0,1-.49,12.59c-.75,1.13-1.69,2.16-2.34,3.34a11.23,11.23,0,0,0,.12,11.74,27,27,0,0,0,1.84,2.56,11.54,11.54,0,0,1,0,14.44c-.5.67-1,1.33-1.49,2a11.45,11.45,0,0,0,0,13.15c.63.92,1.34,1.78,2,2.7a11.5,11.5,0,0,1,0,13.08c-.58.84-1.23,1.63-1.82,2.47a11.48,11.48,0,0,0,0,13.46c.6.86,1.26,1.68,1.86,2.55a11.54,11.54,0,0,1,0,13.08c-.25.36-.49.72-.76,1.05-1.93,2.35-3.34,4.91-3.21,8.15h13.58a9.85,9.85,0,0,1,1.61-5.9c.79-1.22,1.71-2.35,2.52-3.56a10.77,10.77,0,0,0,1.11-10.25,17.77,17.77,0,0,0-2.69-4.39,11.91,11.91,0,0,1-2.13-10.78c.56-2.19,2.05-3.86,3.36-5.62a11.53,11.53,0,0,0,.51-12.81c-.7-1.09-1.49-2.13-2.28-3.16a11.68,11.68,0,0,1,0-13.16c.71-.94,1.42-1.87,2.08-2.85a11.44,11.44,0,0,0-.34-13.27c-.54-.72-1.09-1.43-1.6-2.16a11.57,11.57,0,0,1,0-13.47,28.16,28.16,0,0,0,3-4.73,10.89,10.89,0,0,0-.85-10.37,26.4,26.4,0,0,0-2-2.71,11.71,11.71,0,0,1-.05-14c.61-.78,1.23-1.56,1.76-2.39a11.34,11.34,0,0,0,.49-12.13,29.66,29.66,0,0,0-2.31-3.24,11.51,11.51,0,0,1,0-13.77c.47-.65.93-1.31,1.45-1.93A11.58,11.58,0,0,0,130,386.8c-.73-.92-1.42-1.88-2.07-2.86a9.71,9.71,0,0,1-1.65-6.07H112.77A9.83,9.83,0,0,0,114.56,384.18Z"/><path class="cls-1" d="M145.7,391.25a11.6,11.6,0,0,1-2.09,9.4c-.55.71-1.09,1.43-1.6,2.16a11.46,11.46,0,0,0,0,13.3c.73,1,1.57,2,2.21,3.1a11.25,11.25,0,0,1-.09,12.21c-.72,1.19-1.69,2.22-2.41,3.41a11.2,11.2,0,0,0,0,12.37c.59,1,1.34,1.85,2,2.78a11.5,11.5,0,0,1,0,13.62c-.5.71-1,1.39-1.55,2.09a11.47,11.47,0,0,0,0,13.91c.46.63.93,1.23,1.39,1.86a11.51,11.51,0,0,1,0,13.84c-.41.58-.85,1.14-1.27,1.71a11.47,11.47,0,0,0,0,14.36c.42.57.86,1.14,1.27,1.71a11.51,11.51,0,0,1,.12,13.62c-.58.84-1.23,1.63-1.82,2.47a11.48,11.48,0,0,0,0,13.23c.76,1.09,1.65,2.1,2.31,3.25a11.29,11.29,0,0,1-.09,12,16.41,16.41,0,0,1-1.45,2,11.58,11.58,0,0,0-2.85,7.62h13.41a10.17,10.17,0,0,1,1.57-5.81c.67-1,1.43-2,2.15-3a11.5,11.5,0,0,0,0-13.69c-.52-.73-1.07-1.44-1.59-2.17a11.51,11.51,0,0,1,0-13.54c.71-1,1.53-2,2.15-3a11.27,11.27,0,0,0,0-12.14c-.63-1.06-1.44-2-2.15-3a11.56,11.56,0,0,1,0-13.32c.37-.53.74-1.07,1.16-1.56a11.84,11.84,0,0,0,0-15.21,12.19,12.19,0,0,1-2.93-5.52,11.54,11.54,0,0,1,1.85-9.36c.63-.88,1.3-1.73,1.91-2.63a11.5,11.5,0,0,0,.12-12.69c-.72-1.08-1.55-2.09-2.27-3.17a11.53,11.53,0,0,1,0-12.77c.69-1,1.48-2,2.16-3a11.55,11.55,0,0,0-.06-12.86,30.5,30.5,0,0,1-3.15-5,10.93,10.93,0,0,1,1-10.71c.73-1.11,1.63-2.12,2.31-3.26a11.33,11.33,0,0,0-.1-12.45,16,16,0,0,0-1.3-1.81,12,12,0,0,1-2.85-7.67H139.89a11.74,11.74,0,0,0,2.74,7.52A12.79,12.79,0,0,1,145.7,391.25Z"/><path class="cls-1" d="M5.89,195.55c.61.86,1.27,1.68,1.87,2.54a11.51,11.51,0,0,1,.07,13.15c-.63.92-1.34,1.78-2,2.7a11.46,11.46,0,0,0,0,13.08c.61.9,1.29,1.74,1.92,2.62a11.5,11.5,0,0,1,0,13.3c-.5.71-1,1.39-1.55,2.09a11.5,11.5,0,0,0,0,14.07c.46.63.93,1.23,1.39,1.86a11.51,11.51,0,0,1,0,13.76c-.47.66-1,1.29-1.44,1.94a11.49,11.49,0,0,0,0,14.06c1.38,1.87,2.87,3.66,3.34,6A11.45,11.45,0,0,1,7.84,306c-.73,1-1.56,2-2.22,3.09a11.27,11.27,0,0,0,0,12.45c.64,1.05,1.47,2,2.17,3a11.49,11.49,0,0,1,0,13c-.71,1-1.56,2-2.22,3.09a11.27,11.27,0,0,0,0,12.45c.59,1,1.34,1.85,2,2.79a11.5,11.5,0,0,1,0,13.61c-.16.23-.32.46-.5.67-1.94,2.38-3.4,4.95-3.26,8.22H17.49a9.68,9.68,0,0,1,1.36-5.46c.67-1.11,1.48-2.13,2.24-3.19a11.42,11.42,0,0,0,.68-13.15c-.68-1.2-1.63-2.25-2.4-3.41a11,11,0,0,1-.7-11.45,23.59,23.59,0,0,1,2.65-3.9,11.55,11.55,0,0,0,.39-12.9c-.68-1-1.47-2-2.17-3a11.52,11.52,0,0,1,0-13.23c.78-1.12,1.65-2.17,2.37-3.33a11.66,11.66,0,0,0-.6-12.67,21.39,21.39,0,0,1-3.14-5.1A10.83,10.83,0,0,1,19.61,277a28.73,28.73,0,0,0,2.48-3.68,11.19,11.19,0,0,0-.79-12.17c-.45-.66-1-1.29-1.43-1.94a11.53,11.53,0,0,1,0-14.21c.51-.7,1-1.38,1.54-2.09a11.56,11.56,0,0,0-.68-14.12c-3.18-3.75-4.28-8-2.43-12.58a25.42,25.42,0,0,1,3.08-4.8,10.73,10.73,0,0,0,1.88-4.48,11.31,11.31,0,0,0-2-9c-.52-.69-1-1.39-1.55-2.09a10.87,10.87,0,0,1-2.21-6.84H3.9A9.93,9.93,0,0,0,5.89,195.55Z"/><path class="cls-1" d="M62,198a11.52,11.52,0,0,1,0,13.46c-.73,1-1.56,2-2.2,3.1A11.06,11.06,0,0,0,60,226.75c.57.92,1.27,1.75,1.9,2.63a11.52,11.52,0,0,1,.06,13.77c-.47.65-.94,1.31-1.44,1.94a11.62,11.62,0,0,0,0,14.06c.54.67,1.05,1.38,1.55,2.09a11.49,11.49,0,0,1,.06,13.23c-.49.71-1,1.4-1.54,2.09a11.63,11.63,0,0,0-2.18,9.71,12.29,12.29,0,0,0,2.69,5.21A12.62,12.62,0,0,1,64,297.39a11.49,11.49,0,0,1-2,8.81c-.5.67-1,1.36-1.5,2a11.62,11.62,0,0,0,.08,14.22c.43.53.83,1.08,1.23,1.63a11.59,11.59,0,0,1-.1,14.15,22.53,22.53,0,0,0-2.68,4.2,10.91,10.91,0,0,0,1,10.75c.67,1,1.47,2,2.17,3a11.51,11.51,0,0,1,0,13c-.28.41-.58.8-.88,1.2-2.36,3.08-2.79,4.15-3.17,8H71.89A9.33,9.33,0,0,1,73.17,373c.77-1.27,1.68-2.45,2.54-3.66a11.5,11.5,0,0,0,.11-13.3c-.61-.89-1.29-1.74-1.91-2.63a11.48,11.48,0,0,1,0-13.15c.67-1,1.41-1.88,2.07-2.85a11.49,11.49,0,0,0,0-12.77c-.69-1-1.48-2-2.18-3a11.49,11.49,0,0,1,0-12.77c.64-.95,1.36-1.84,2-2.78a11.42,11.42,0,0,0,0-13.22c-.67-1-1.41-1.88-2.07-2.86a11.49,11.49,0,0,1,.08-12.85c.65-.94,1.38-1.83,2-2.78a11.44,11.44,0,0,0-.06-13.15c-.62-.89-1.3-1.73-1.92-2.62a11.52,11.52,0,0,1,0-13.08c.6-.87,1.26-1.68,1.87-2.54a11.48,11.48,0,0,0,.13-13.23c-.66-1-1.41-1.88-2.07-2.86a11.5,11.5,0,0,1,0-12.92c.65-.94,1.37-1.84,2-2.78a11.48,11.48,0,0,0,.08-12.92c-.76-1.13-1.62-2.19-2.37-3.32a9.79,9.79,0,0,1-1.66-6.07H58.15a10.75,10.75,0,0,0,2.16,6.77C60.88,196.47,61.47,197.24,62,198Z"/><path class="cls-1" d="M91.44,206a11,11,0,0,1-2,5.4c-.56.78-1.15,1.54-1.71,2.32a11.45,11.45,0,0,0,0,13.53c.5.71,1,1.39,1.54,2.09a11.5,11.5,0,0,1,0,13.92c-.53.73-1.08,1.43-1.6,2.17a11.48,11.48,0,0,0-.08,13.23c.65.94,1.38,1.83,2,2.78a11.47,11.47,0,0,1,0,12.92c-.56.82-1.19,1.58-1.76,2.39a11.52,11.52,0,0,0,.37,14.36c1.43,1.85,2.8,3.72,3.16,6.11a11.48,11.48,0,0,1-1.9,8.92c-.62.85-1.27,1.68-1.87,2.54a11.5,11.5,0,0,0,0,13.15c.6.86,1.26,1.69,1.87,2.55a11.49,11.49,0,0,1,0,13.39c-.57.81-1.19,1.58-1.76,2.39a11.48,11.48,0,0,0,0,13.38c.55.78,1.16,1.53,1.71,2.31a11.52,11.52,0,0,1-.08,13.69c-.29.4-.59.8-.89,1.19a11.65,11.65,0,0,0-2.91,7.63H99.07a10,10,0,0,1,1.51-5.71c.66-1,1.42-2,2.15-3a11.49,11.49,0,0,0,0-13.91c-.53-.73-1.08-1.43-1.6-2.17a11.5,11.5,0,0,1,0-13.31c.55-.79,1.15-1.54,1.71-2.32a11.47,11.47,0,0,0,.07-13.61c-.55-.78-1.16-1.53-1.71-2.32a11.5,11.5,0,0,1,0-13.46c.7-1,1.49-1.91,2.11-2.94a11.23,11.23,0,0,0,.11-12.05c-.61-1.07-1.44-2-2.16-3a11.48,11.48,0,0,1,0-13.61c.54-.76,1.11-1.49,1.65-2.24a11.46,11.46,0,0,0,.1-13.38c-.67-1-1.42-1.88-2.07-2.86a11.52,11.52,0,0,1,0-12.69c.67-1,1.44-1.94,2.12-2.93a11.46,11.46,0,0,0-.07-13.08c-.58-.84-1.22-1.64-1.81-2.47a11.49,11.49,0,0,1-.06-13.38c.55-.79,1.15-1.54,1.71-2.32a11.47,11.47,0,0,0,.08-13.54c-.39-.56-.79-1.11-1.22-1.64A11.6,11.6,0,0,1,99,188.94H85.46a11.88,11.88,0,0,0,3,7.81A12,12,0,0,1,91.44,206Z"/><path class="cls-1" d="M34.16,196.89A12.26,12.26,0,0,1,36.83,202,11.49,11.49,0,0,1,35,211.47c-.69.95-1.46,1.85-2.06,2.86a11.25,11.25,0,0,0,0,12.37c.6,1,1.38,1.9,2.06,2.86A11.49,11.49,0,0,1,35,243c-.75,1.06-1.62,2.05-2.26,3.18a11.23,11.23,0,0,0,.15,12.05c.6,1,1.37,1.91,2.06,2.86a11.5,11.5,0,0,1,0,13.61,30.67,30.67,0,0,0-2.3,3.26A11.27,11.27,0,0,0,33,290c.54.86,1.21,1.65,1.81,2.47a11.47,11.47,0,0,1,0,13.91c-.4.55-.81,1.09-1.22,1.64a11.49,11.49,0,0,0,0,14.43c1.37,1.84,2.8,3.64,3.23,6a11.51,11.51,0,0,1-1.91,9.35c-.5.67-1,1.34-1.49,2a11.5,11.5,0,0,0,0,14.06c.57.77,1.16,1.53,1.7,2.32a11.51,11.51,0,0,1,0,12.85c-.09.13-.17.26-.26.38-2.06,2.62-4,5.3-3.76,8.91H44.54a9.45,9.45,0,0,1,1.36-5.5c.73-1.18,1.58-2.29,2.4-3.42A11.49,11.49,0,0,0,48.4,356c-.55-.78-1.15-1.53-1.71-2.31a11.51,11.51,0,0,1,.09-13.77c.55-.75,1.12-1.48,1.65-2.24a11.48,11.48,0,0,0,0-13.23c-.75-1.06-1.62-2.05-2.26-3.17a11.26,11.26,0,0,1,0-12.06c.62-1.06,1.44-2,2.16-3a11.47,11.47,0,0,0,0-13.46c-.55-.78-1.16-1.53-1.71-2.32a11.5,11.5,0,0,1,0-13.46c.52-.73,1.08-1.44,1.6-2.16a11.45,11.45,0,0,0,0-13.83c-.44-.6-.89-1.19-1.33-1.79a11.52,11.52,0,0,1,0-14.14c.42-.58.85-1.14,1.27-1.71a11.45,11.45,0,0,0,0-14.05c-.44-.6-.89-1.19-1.33-1.79a11.5,11.5,0,0,1,0-13.91c.53-.73,1.08-1.43,1.6-2.17a11.47,11.47,0,0,0,0-13.38c-.77-1.08-1.6-2.13-2.31-3.25a9.09,9.09,0,0,1-1.46-5.82H31c.09.73.15,1.47.27,2.2A12.46,12.46,0,0,0,34.16,196.89Z"/><path class="cls-1" d="M172,209.15a15.74,15.74,0,0,1-2.15,3.44,13.82,13.82,0,0,0-2.53,4.7,11.63,11.63,0,0,0,2.41,10.94,11.77,11.77,0,0,1,2.83,10.69,16.25,16.25,0,0,1-1.73,4,25,25,0,0,1-1.79,2.48,11.53,11.53,0,0,0-.08,13.39c.56.81,1.19,1.59,1.76,2.39a11.5,11.5,0,0,1-.27,13.83,15.65,15.65,0,0,0-3.1,5.32,12.07,12.07,0,0,0,2.48,11.29,11.8,11.8,0,0,1,2.81,5.46,11.59,11.59,0,0,1-2,9.26c-.55.75-1.12,1.48-1.66,2.24a11.49,11.49,0,0,0,0,13.39c.57.81,1.18,1.59,1.75,2.4a11.45,11.45,0,0,1-.36,13.89c-1.64,2.12-3.09,4.31-3.4,7.08a11.89,11.89,0,0,0,2.49,9c1.41,1.81,2.8,3.63,3.18,6a11.62,11.62,0,0,1-1.94,9.17c-.2.27-.39.56-.6.82a12,12,0,0,0-3.2,8.12h13.54a10.41,10.41,0,0,1,1.76-6.13c.59-.87,1.23-1.7,1.86-2.55a11.51,11.51,0,0,0,.06-14c-.49-.68-1-1.33-1.49-2a11.51,11.51,0,0,1,.13-13.84c.51-.7,1.05-1.38,1.55-2.09a11.49,11.49,0,0,0-.11-13.53c-.52-.73-1.08-1.44-1.6-2.17a11.49,11.49,0,0,1,0-13.61c.4-.55.81-1.09,1.22-1.64,3.51-4.72,3.51-10-.07-14.73-1.59-2.09-3-4.21-3.29-6.94a11.44,11.44,0,0,1,2-8c.57-.81,1.19-1.59,1.76-2.39a11.48,11.48,0,0,0,0-13.61c-.5-.71-1-1.38-1.55-2.09a11.5,11.5,0,0,1,0-13.84c.36-.5.74-1,1.11-1.49,3.56-4.75,3.58-9.95,0-14.73-1.26-1.69-2.58-3.34-3.06-5.46a11.56,11.56,0,0,1,1.94-9.95c.43-.57.86-1.13,1.28-1.71a11.51,11.51,0,0,0,0-14.29c-1.36-1.84-2.85-3.62-3.26-6-.15-.88-.21-1.78-.31-2.67H166.83a13,13,0,0,0,3.27,8.19A11.44,11.44,0,0,1,172,209.15Z"/><path class="cls-1" d="M114.56,195.24c.59.87,1.24,1.7,1.86,2.55a11.52,11.52,0,0,1,.12,13.69c-.69,1-1.5,1.91-2.11,2.94a11.24,11.24,0,0,0,.06,12.29c.62,1,1.42,1.95,2.11,2.94a11.52,11.52,0,0,1,0,13.31c-.64.91-1.34,1.78-2,2.7a11.47,11.47,0,0,0,.08,13c.77,1.12,1.67,2.16,2.34,3.34a11.2,11.2,0,0,1-.49,12.59c-.75,1.13-1.69,2.16-2.34,3.34a11.23,11.23,0,0,0,.12,11.74,27,27,0,0,0,1.84,2.56,11.54,11.54,0,0,1,0,14.44c-.5.67-1,1.33-1.49,2a11.45,11.45,0,0,0,0,13.15c.63.92,1.34,1.78,2,2.7a11.5,11.5,0,0,1,0,13.08c-.58.84-1.23,1.63-1.82,2.47a11.48,11.48,0,0,0,0,13.46c.6.86,1.26,1.68,1.86,2.55a11.54,11.54,0,0,1,0,13.08c-.25.36-.49.72-.76,1.05-1.93,2.35-3.34,4.91-3.21,8.15h13.58a9.85,9.85,0,0,1,1.61-5.9c.79-1.22,1.71-2.35,2.52-3.56a10.77,10.77,0,0,0,1.11-10.25,17.77,17.77,0,0,0-2.69-4.39,11.91,11.91,0,0,1-2.13-10.78c.56-2.19,2.05-3.86,3.36-5.62a11.53,11.53,0,0,0,.51-12.81c-.7-1.09-1.49-2.13-2.28-3.16a11.68,11.68,0,0,1,0-13.16c.71-.94,1.42-1.87,2.08-2.85A11.44,11.44,0,0,0,130,292.6c-.54-.72-1.09-1.43-1.6-2.16a11.57,11.57,0,0,1,0-13.47,28.16,28.16,0,0,0,3-4.73,10.89,10.89,0,0,0-.85-10.37,26.4,26.4,0,0,0-2-2.71,11.71,11.71,0,0,1-.05-14c.61-.78,1.23-1.56,1.76-2.39a11.34,11.34,0,0,0,.49-12.13,29.66,29.66,0,0,0-2.31-3.24,11.51,11.51,0,0,1,0-13.77c.47-.65.93-1.31,1.45-1.93a11.58,11.58,0,0,0,.06-13.81c-.73-.92-1.42-1.88-2.07-2.86a9.71,9.71,0,0,1-1.65-6.07H112.77A9.83,9.83,0,0,0,114.56,195.24Z"/><path class="cls-1" d="M145.7,202.31a11.6,11.6,0,0,1-2.09,9.4c-.55.71-1.09,1.43-1.6,2.16a11.46,11.46,0,0,0,0,13.3c.73,1,1.57,2,2.21,3.1a11.25,11.25,0,0,1-.09,12.21c-.72,1.19-1.69,2.22-2.41,3.41a11.2,11.2,0,0,0,0,12.36c.59,1,1.34,1.85,2,2.78a11.5,11.5,0,0,1,0,13.62c-.5.71-1,1.39-1.55,2.09a11.47,11.47,0,0,0,0,13.91c.46.63.93,1.23,1.39,1.86a11.51,11.51,0,0,1,0,13.84c-.41.58-.85,1.14-1.27,1.71a11.47,11.47,0,0,0,0,14.36c.42.57.86,1.14,1.27,1.71a11.51,11.51,0,0,1,.12,13.62c-.58.84-1.23,1.63-1.82,2.47a11.48,11.48,0,0,0,0,13.23c.76,1.09,1.65,2.1,2.31,3.25a11.29,11.29,0,0,1-.09,12,16.41,16.41,0,0,1-1.45,2,11.58,11.58,0,0,0-2.85,7.62h13.41a10.17,10.17,0,0,1,1.57-5.81c.67-1,1.43-2,2.15-3a11.5,11.5,0,0,0,0-13.69c-.52-.73-1.07-1.44-1.59-2.17a11.51,11.51,0,0,1,0-13.54c.71-1,1.53-2,2.15-3a11.27,11.27,0,0,0,0-12.14c-.63-1.06-1.44-2-2.15-3a11.56,11.56,0,0,1,0-13.32c.37-.53.74-1.07,1.16-1.56a11.84,11.84,0,0,0,0-15.21,12.19,12.19,0,0,1-2.93-5.52,11.54,11.54,0,0,1,1.85-9.36c.63-.88,1.3-1.73,1.91-2.63a11.5,11.5,0,0,0,.12-12.69c-.72-1.08-1.55-2.09-2.27-3.17a11.53,11.53,0,0,1,0-12.77c.69-1,1.48-2,2.16-3a11.55,11.55,0,0,0-.06-12.86,30.5,30.5,0,0,1-3.15-5,10.93,10.93,0,0,1,1-10.71c.73-1.11,1.63-2.12,2.31-3.26a11.33,11.33,0,0,0-.1-12.45,16,16,0,0,0-1.3-1.81,12,12,0,0,1-2.85-7.67H139.89a11.74,11.74,0,0,0,2.74,7.52A12.79,12.79,0,0,1,145.7,202.31Z"/><path class="cls-1" d="M5.89,6.61c.61.86,1.27,1.68,1.87,2.54a11.51,11.51,0,0,1,.07,13.15c-.63.92-1.34,1.78-2,2.7a11.46,11.46,0,0,0,0,13.08c.61.9,1.29,1.74,1.92,2.62a11.5,11.5,0,0,1,0,13.3c-.5.71-1,1.39-1.55,2.09a11.5,11.5,0,0,0,0,14.07c.46.63.93,1.23,1.39,1.86a11.51,11.51,0,0,1,0,13.76c-.47.66-1,1.29-1.44,1.94a11.49,11.49,0,0,0,0,14.06c1.38,1.87,2.87,3.66,3.34,6A11.45,11.45,0,0,1,7.84,117c-.73,1-1.56,2-2.22,3.09a11.27,11.27,0,0,0,0,12.45c.64,1.05,1.47,2,2.17,3a11.49,11.49,0,0,1,0,13c-.71,1-1.56,2-2.22,3.09a11.27,11.27,0,0,0,0,12.45c.59,1,1.34,1.85,2,2.79a11.5,11.5,0,0,1,0,13.61c-.16.23-.32.46-.5.67-1.94,2.38-3.4,5-3.26,8.22H17.49A9.68,9.68,0,0,1,18.85,184c.67-1.11,1.48-2.13,2.24-3.19a11.42,11.42,0,0,0,.68-13.15c-.68-1.2-1.63-2.25-2.4-3.41a11,11,0,0,1-.7-11.45,23.59,23.59,0,0,1,2.65-3.9A11.55,11.55,0,0,0,21.7,136c-.68-1-1.47-2-2.17-3a11.52,11.52,0,0,1,0-13.23c.78-1.12,1.65-2.17,2.37-3.33a11.66,11.66,0,0,0-.6-12.67,21.39,21.39,0,0,1-3.14-5.1,10.83,10.83,0,0,1,1.47-10.57,28.73,28.73,0,0,0,2.48-3.68,11.19,11.19,0,0,0-.79-12.17c-.45-.66-1-1.29-1.43-1.94a11.53,11.53,0,0,1,0-14.21c.51-.7,1-1.38,1.54-2.09a11.56,11.56,0,0,0-.68-14.12c-3.18-3.75-4.28-8-2.43-12.58a25.42,25.42,0,0,1,3.08-4.8A10.73,10.73,0,0,0,23.27,18a11.31,11.31,0,0,0-2-9c-.52-.69-1-1.39-1.55-2.09A10.87,10.87,0,0,1,17.46,0H3.9A9.93,9.93,0,0,0,5.89,6.61Z"/><path class="cls-1" d="M62,9.08a11.52,11.52,0,0,1,0,13.46c-.73,1-1.56,2-2.2,3.1A11.06,11.06,0,0,0,60,37.81c.57.92,1.27,1.75,1.9,2.63a11.52,11.52,0,0,1,.06,13.77c-.47.65-.94,1.31-1.44,1.94a11.62,11.62,0,0,0,0,14.06c.54.67,1.05,1.38,1.55,2.09a11.49,11.49,0,0,1,.06,13.23c-.49.71-1,1.4-1.54,2.09a11.63,11.63,0,0,0-2.18,9.71,12.29,12.29,0,0,0,2.69,5.21A12.62,12.62,0,0,1,64,108.45a11.49,11.49,0,0,1-2,8.81c-.5.67-1,1.36-1.5,2a11.62,11.62,0,0,0,.08,14.22c.43.53.83,1.08,1.23,1.63a11.59,11.59,0,0,1-.1,14.15,22.53,22.53,0,0,0-2.68,4.2,10.91,10.91,0,0,0,1,10.75c.67,1,1.47,2,2.17,3a11.51,11.51,0,0,1,0,13c-.28.41-.58.8-.88,1.2-2.36,3.08-2.79,4.15-3.17,8H71.89a9.33,9.33,0,0,1,1.28-5.32c.77-1.27,1.68-2.45,2.54-3.66a11.5,11.5,0,0,0,.11-13.3c-.61-.89-1.29-1.74-1.91-2.63a11.48,11.48,0,0,1,0-13.15c.67-1,1.41-1.88,2.07-2.85a11.49,11.49,0,0,0,0-12.77c-.69-1-1.48-2-2.18-3a11.49,11.49,0,0,1,0-12.77c.64-.95,1.36-1.84,2-2.78a11.42,11.42,0,0,0,0-13.22c-.67-1-1.41-1.88-2.07-2.86a11.49,11.49,0,0,1,.08-12.85c.65-.94,1.38-1.83,2-2.78a11.44,11.44,0,0,0-.06-13.15c-.62-.89-1.3-1.73-1.92-2.62a11.52,11.52,0,0,1,0-13.08c.6-.87,1.26-1.68,1.87-2.54a11.48,11.48,0,0,0,.13-13.23c-.66-1-1.41-1.88-2.07-2.86a11.5,11.5,0,0,1,0-12.92c.65-.94,1.37-1.84,2-2.78a11.48,11.48,0,0,0,.08-12.92c-.76-1.13-1.62-2.19-2.37-3.32A9.79,9.79,0,0,1,71.9,0H58.15a10.75,10.75,0,0,0,2.16,6.77C60.88,7.54,61.47,8.3,62,9.08Z"/><path class="cls-1" d="M91.44,17.07a11,11,0,0,1-2,5.4c-.56.78-1.15,1.54-1.71,2.32a11.45,11.45,0,0,0,0,13.53c.5.71,1,1.39,1.54,2.09a11.5,11.5,0,0,1,0,13.92c-.53.73-1.08,1.43-1.6,2.17a11.48,11.48,0,0,0-.08,13.23c.65.94,1.38,1.83,2,2.78a11.47,11.47,0,0,1,0,12.92c-.56.82-1.19,1.58-1.76,2.39a11.52,11.52,0,0,0,.37,14.36c1.43,1.85,2.8,3.72,3.16,6.11a11.48,11.48,0,0,1-1.9,8.92c-.62.85-1.27,1.68-1.87,2.54a11.5,11.5,0,0,0,0,13.15c.6.86,1.26,1.69,1.87,2.55a11.49,11.49,0,0,1,0,13.39c-.57.81-1.19,1.58-1.76,2.39a11.48,11.48,0,0,0,0,13.38c.55.78,1.16,1.53,1.71,2.31a11.52,11.52,0,0,1-.08,13.69c-.29.4-.59.8-.89,1.19a11.65,11.65,0,0,0-2.91,7.63H99.07a10,10,0,0,1,1.51-5.71c.66-1,1.42-2,2.15-3a11.49,11.49,0,0,0,0-13.91c-.53-.73-1.08-1.43-1.6-2.16a11.5,11.5,0,0,1,0-13.31c.55-.79,1.15-1.54,1.71-2.32a11.47,11.47,0,0,0,.07-13.61c-.55-.78-1.16-1.53-1.71-2.32a11.5,11.5,0,0,1,0-13.46c.7-1,1.49-1.91,2.11-2.94a11.23,11.23,0,0,0,.11-12.05c-.61-1.07-1.44-2-2.16-3a11.48,11.48,0,0,1,0-13.61c.54-.76,1.11-1.48,1.65-2.24a11.46,11.46,0,0,0,.1-13.38c-.67-1-1.42-1.88-2.07-2.86a11.52,11.52,0,0,1,0-12.69c.67-1,1.44-1.93,2.12-2.93A11.46,11.46,0,0,0,103,40.79c-.58-.84-1.22-1.64-1.81-2.47a11.49,11.49,0,0,1-.06-13.38c.55-.79,1.15-1.54,1.71-2.32a11.47,11.47,0,0,0,.08-13.54c-.39-.56-.79-1.11-1.22-1.64A11.6,11.6,0,0,1,99,0H85.46a11.88,11.88,0,0,0,3,7.81A12,12,0,0,1,91.44,17.07Z"/><path class="cls-1" d="M34.16,7.95a12.26,12.26,0,0,1,2.67,5.14A11.49,11.49,0,0,1,35,22.53c-.69.95-1.46,1.85-2.06,2.86a11.25,11.25,0,0,0,0,12.37c.6,1,1.38,1.9,2.06,2.86a11.49,11.49,0,0,1,0,13.46c-.75,1.06-1.62,2.05-2.26,3.18a11.23,11.23,0,0,0,.15,12.05c.6,1,1.37,1.91,2.06,2.86a11.5,11.5,0,0,1,0,13.61A30.67,30.67,0,0,0,32.61,89a11.27,11.27,0,0,0,.4,12.05c.54.86,1.21,1.65,1.81,2.47a11.47,11.47,0,0,1,0,13.91c-.4.55-.81,1.09-1.22,1.64a11.49,11.49,0,0,0,0,14.43c1.37,1.84,2.8,3.64,3.23,6a11.51,11.51,0,0,1-1.91,9.35c-.5.67-1,1.34-1.49,2a11.5,11.5,0,0,0,0,14.06c.57.77,1.16,1.53,1.7,2.32a11.51,11.51,0,0,1,0,12.85c-.09.13-.17.26-.26.38-2.06,2.62-4,5.3-3.76,8.91H44.54a9.45,9.45,0,0,1,1.36-5.5c.73-1.18,1.58-2.29,2.4-3.42A11.49,11.49,0,0,0,48.4,167c-.55-.78-1.15-1.53-1.71-2.31A11.51,11.51,0,0,1,46.78,151c.55-.75,1.12-1.48,1.65-2.24a11.48,11.48,0,0,0,0-13.23c-.75-1.06-1.62-2.05-2.26-3.17a11.26,11.26,0,0,1,0-12.06c.62-1.06,1.44-2,2.16-3a11.47,11.47,0,0,0,0-13.46c-.55-.78-1.16-1.53-1.71-2.32a11.5,11.5,0,0,1,0-13.46c.52-.73,1.08-1.44,1.6-2.16a11.45,11.45,0,0,0,0-13.83c-.44-.6-.89-1.19-1.33-1.79a11.52,11.52,0,0,1,0-14.14c.42-.58.85-1.14,1.27-1.71a11.45,11.45,0,0,0,0-14.05c-.44-.6-.89-1.19-1.33-1.79a11.5,11.5,0,0,1,0-13.91c.53-.73,1.08-1.43,1.6-2.17a11.47,11.47,0,0,0,0-13.38C47.59,8,46.75,6.95,46,5.82A9.09,9.09,0,0,1,44.59,0H31c.09.73.15,1.47.27,2.2A12.46,12.46,0,0,0,34.16,7.95Z"/><path class="cls-1" d="M172,20.21a15.74,15.74,0,0,1-2.15,3.44,13.82,13.82,0,0,0-2.53,4.7,11.63,11.63,0,0,0,2.41,10.94A11.77,11.77,0,0,1,172.56,50a16.25,16.25,0,0,1-1.73,4A25,25,0,0,1,169,56.41,11.53,11.53,0,0,0,169,69.8c.56.81,1.19,1.59,1.76,2.39A11.5,11.5,0,0,1,170.45,86a15.65,15.65,0,0,0-3.1,5.32,12.07,12.07,0,0,0,2.48,11.29,11.8,11.8,0,0,1,2.81,5.46,11.59,11.59,0,0,1-2,9.26c-.55.75-1.12,1.48-1.66,2.24A11.49,11.49,0,0,0,169,133c.57.81,1.18,1.59,1.75,2.4a11.45,11.45,0,0,1-.36,13.89c-1.64,2.12-3.09,4.31-3.4,7.08a11.89,11.89,0,0,0,2.49,9c1.41,1.81,2.8,3.63,3.18,6a11.62,11.62,0,0,1-1.94,9.17c-.2.27-.39.56-.6.82a12,12,0,0,0-3.2,8.12h13.54a10.41,10.41,0,0,1,1.76-6.13c.59-.87,1.23-1.7,1.86-2.55a11.51,11.51,0,0,0,.06-14c-.49-.68-1-1.33-1.49-2a11.51,11.51,0,0,1,.13-13.84c.51-.7,1.05-1.38,1.55-2.09a11.49,11.49,0,0,0-.11-13.53c-.52-.73-1.08-1.44-1.6-2.17a11.49,11.49,0,0,1,0-13.61c.4-.55.81-1.09,1.22-1.64,3.51-4.72,3.51-10-.07-14.73-1.59-2.09-3-4.21-3.29-6.94a11.44,11.44,0,0,1,2-8c.57-.81,1.19-1.59,1.76-2.39a11.48,11.48,0,0,0,0-13.61c-.5-.71-1-1.38-1.55-2.09a11.5,11.5,0,0,1,0-13.84c.36-.5.74-1,1.11-1.49,3.56-4.75,3.58-9.95,0-14.73-1.26-1.69-2.58-3.34-3.06-5.46a11.56,11.56,0,0,1,1.94-9.95c.43-.57.86-1.13,1.28-1.71a11.51,11.51,0,0,0,0-14.29c-1.36-1.84-2.85-3.61-3.26-6-.15-.88-.21-1.78-.31-2.67H166.83a13,13,0,0,0,3.27,8.19A11.44,11.44,0,0,1,172,20.21Z"/><path class="cls-1" d="M114.56,6.3c.59.87,1.24,1.7,1.86,2.55a11.52,11.52,0,0,1,.12,13.69c-.69,1-1.5,1.91-2.11,2.94a11.24,11.24,0,0,0,.06,12.29c.62,1,1.42,1.95,2.11,2.94a11.52,11.52,0,0,1,0,13.31c-.64.91-1.34,1.78-2,2.7a11.47,11.47,0,0,0,.08,13c.77,1.12,1.67,2.16,2.34,3.34a11.2,11.2,0,0,1-.49,12.59c-.75,1.13-1.69,2.16-2.34,3.34a11.23,11.23,0,0,0,.12,11.74,27,27,0,0,0,1.84,2.56,11.54,11.54,0,0,1,0,14.44c-.5.67-1,1.33-1.49,2a11.45,11.45,0,0,0,0,13.15c.63.92,1.34,1.78,2,2.7a11.5,11.5,0,0,1,0,13.08c-.58.84-1.23,1.63-1.82,2.47a11.48,11.48,0,0,0,0,13.46c.6.86,1.26,1.68,1.86,2.55a11.54,11.54,0,0,1,0,13.08c-.25.36-.49.72-.76,1.05-1.93,2.35-3.34,4.91-3.21,8.15h13.58a9.85,9.85,0,0,1,1.61-5.9c.79-1.22,1.71-2.35,2.52-3.56a10.77,10.77,0,0,0,1.11-10.25,17.77,17.77,0,0,0-2.69-4.39,11.91,11.91,0,0,1-2.13-10.78c.56-2.19,2.05-3.86,3.36-5.62a11.53,11.53,0,0,0,.51-12.81c-.7-1.09-1.49-2.13-2.28-3.16a11.68,11.68,0,0,1,0-13.16c.71-.94,1.42-1.87,2.08-2.85a11.44,11.44,0,0,0-.34-13.27c-.54-.72-1.09-1.43-1.6-2.16a11.57,11.57,0,0,1,0-13.47,28.16,28.16,0,0,0,3-4.73,10.89,10.89,0,0,0-.85-10.37,26.4,26.4,0,0,0-2-2.71,11.71,11.71,0,0,1-.05-14c.61-.78,1.23-1.56,1.76-2.39a11.34,11.34,0,0,0,.49-12.13,29.66,29.66,0,0,0-2.31-3.24,11.51,11.51,0,0,1,0-13.77c.47-.65.93-1.31,1.45-1.93A11.58,11.58,0,0,0,130,8.93c-.73-.92-1.42-1.88-2.07-2.86A9.71,9.71,0,0,1,126.33,0H112.77A9.83,9.83,0,0,0,114.56,6.3Z"/><path class="cls-1" d="M145.7,13.37a11.6,11.6,0,0,1-2.09,9.4c-.55.71-1.09,1.43-1.6,2.16a11.46,11.46,0,0,0,0,13.3c.73,1,1.57,2,2.21,3.1a11.25,11.25,0,0,1-.09,12.21c-.72,1.19-1.69,2.22-2.41,3.41a11.2,11.2,0,0,0,0,12.37c.59,1,1.34,1.85,2,2.78a11.5,11.5,0,0,1,0,13.62c-.5.71-1,1.39-1.55,2.09a11.47,11.47,0,0,0,0,13.91c.46.63.93,1.23,1.39,1.86a11.51,11.51,0,0,1,0,13.84c-.41.58-.85,1.14-1.27,1.71a11.47,11.47,0,0,0,0,14.36c.42.57.86,1.14,1.27,1.71a11.51,11.51,0,0,1,.12,13.62c-.58.84-1.23,1.63-1.82,2.47a11.48,11.48,0,0,0,0,13.23c.76,1.09,1.65,2.1,2.31,3.25a11.29,11.29,0,0,1-.09,12,16.41,16.41,0,0,1-1.45,2,11.58,11.58,0,0,0-2.85,7.62h13.41a10.17,10.17,0,0,1,1.57-5.81c.67-1,1.43-2,2.15-3a11.5,11.5,0,0,0,0-13.69c-.52-.73-1.07-1.44-1.59-2.17a11.51,11.51,0,0,1,0-13.54c.71-1,1.53-2,2.15-3a11.27,11.27,0,0,0,0-12.14c-.63-1.06-1.44-2-2.15-3a11.56,11.56,0,0,1,0-13.32c.37-.53.74-1.07,1.16-1.56a11.84,11.84,0,0,0,0-15.21,12.19,12.19,0,0,1-2.93-5.52A11.54,11.54,0,0,1,155.43,88c.63-.88,1.3-1.73,1.91-2.63a11.5,11.5,0,0,0,.12-12.69c-.72-1.08-1.55-2.09-2.27-3.17a11.53,11.53,0,0,1,0-12.77c.69-1,1.48-2,2.16-3a11.55,11.55,0,0,0-.06-12.86,30.5,30.5,0,0,1-3.15-5,10.93,10.93,0,0,1,1-10.71c.73-1.11,1.63-2.12,2.31-3.26a11.33,11.33,0,0,0-.1-12.45,16,16,0,0,0-1.3-1.8A12,12,0,0,1,153.27,0H139.89a11.74,11.74,0,0,0,2.74,7.52A12.79,12.79,0,0,1,145.7,13.37Z"/><path class="cls-2" d="M102.92,387a11.47,11.47,0,0,1-.08,13.54c-.56.78-1.16,1.53-1.71,2.32a11.49,11.49,0,0,0,.06,13.38c.59.83,1.23,1.63,1.81,2.47a11.46,11.46,0,0,1,.07,13.08c-.68,1-1.45,1.93-2.12,2.93a11.52,11.52,0,0,0,0,12.69c.65,1,1.4,1.89,2.07,2.86a11.46,11.46,0,0,1-.1,13.38c-.54.76-1.12,1.48-1.65,2.24a11.48,11.48,0,0,0,0,13.61c.72,1,1.55,2,2.16,3a11.23,11.23,0,0,1-.11,12.05c-.62,1-1.41,2-2.11,2.94a11.5,11.5,0,0,0,0,13.46c.55.78,1.16,1.53,1.71,2.32a11.47,11.47,0,0,1-.07,13.61c-.56.78-1.16,1.53-1.71,2.32a11.5,11.5,0,0,0,0,13.31c.52.73,1.07,1.44,1.6,2.16a11.49,11.49,0,0,1,0,13.91c-.73,1-1.49,2-2.15,3a10,10,0,0,0-1.51,5.71h13.66c-.14-3.23,1.28-5.79,3.21-8.15.27-.33.52-.7.76-1.05a11.54,11.54,0,0,0,0-13.08c-.6-.86-1.26-1.68-1.86-2.55a11.48,11.48,0,0,1,0-13.46c.59-.83,1.24-1.63,1.82-2.47a11.5,11.5,0,0,0,0-13.08c-.63-.92-1.33-1.79-2-2.7a11.45,11.45,0,0,1,0-13.15c.47-.69,1-1.34,1.49-2a11.54,11.54,0,0,0,0-14.44,27,27,0,0,1-1.84-2.56,11.23,11.23,0,0,1-.12-11.74c.66-1.18,1.59-2.21,2.34-3.34a11.2,11.2,0,0,0,.49-12.59c-.67-1.18-1.57-2.22-2.34-3.34a11.47,11.47,0,0,1-.08-13c.62-.92,1.33-1.79,2-2.7a11.52,11.52,0,0,0,0-13.31c-.69-1-1.49-1.91-2.11-2.94a11.24,11.24,0,0,1-.06-12.29c.61-1,1.41-2,2.11-2.94a11.52,11.52,0,0,0-.12-13.69c-.62-.85-1.28-1.68-1.86-2.55a9.83,9.83,0,0,1-1.79-6.3H99a11.6,11.6,0,0,0,2.68,7.45C102.13,385.85,102.53,386.4,102.92,387Z"/><path class="cls-2" d="M21.22,386.81a11.31,11.31,0,0,1,2,9,10.73,10.73,0,0,1-1.88,4.48,25.42,25.42,0,0,0-3.08,4.8c-1.85,4.63-.76,8.84,2.43,12.58a11.56,11.56,0,0,1,.68,14.12c-.49.71-1,1.39-1.54,2.09a11.53,11.53,0,0,0,0,14.21c.47.65,1,1.28,1.43,1.94a11.19,11.19,0,0,1,.79,12.17,28.73,28.73,0,0,1-2.48,3.68,10.83,10.83,0,0,0-1.47,10.57,21.39,21.39,0,0,0,3.14,5.1,11.66,11.66,0,0,1,.6,12.67c-.72,1.15-1.59,2.21-2.37,3.33a11.52,11.52,0,0,0,0,13.23c.71,1,1.49,2,2.17,3a11.55,11.55,0,0,1-.39,12.9,23.59,23.59,0,0,0-2.65,3.9,11,11,0,0,0,.7,11.45c.77,1.16,1.72,2.2,2.4,3.41a11.42,11.42,0,0,1-.68,13.15c-.75,1.06-1.56,2.08-2.24,3.19a9.68,9.68,0,0,0-1.36,5.46H31.15c-.23-3.61,1.7-6.29,3.76-8.91.1-.12.18-.25.26-.38a11.51,11.51,0,0,0,0-12.85c-.54-.79-1.13-1.55-1.7-2.32a11.5,11.5,0,0,1,0-14.06c.49-.68,1-1.34,1.49-2a11.51,11.51,0,0,0,1.91-9.35c-.44-2.34-1.86-4.14-3.23-6a11.49,11.49,0,0,1,0-14.43c.4-.55.82-1.09,1.22-1.64a11.47,11.47,0,0,0,0-13.91c-.6-.83-1.26-1.61-1.81-2.47a11.27,11.27,0,0,1-.4-12.05,30.67,30.67,0,0,1,2.3-3.26,11.5,11.5,0,0,0,0-13.61c-.68-1-1.45-1.86-2.06-2.86a11.23,11.23,0,0,1-.15-12.05C33.37,434,34.24,433,35,432a11.49,11.49,0,0,0,0-13.46c-.68-1-1.46-1.86-2.06-2.86a11.25,11.25,0,0,1,0-12.37c.6-1,1.37-1.91,2.06-2.86A11.49,11.49,0,0,0,36.83,391a12.26,12.26,0,0,0-2.67-5.14,12.46,12.46,0,0,1-2.86-5.75c-.11-.73-.18-1.47-.27-2.2H17.46a10.87,10.87,0,0,0,2.21,6.84C20.2,385.42,20.7,386.12,21.22,386.81Z"/><path class="cls-2" d="M46,383.7c.7,1.13,1.54,2.17,2.31,3.25a11.47,11.47,0,0,1,0,13.38c-.52.73-1.07,1.44-1.6,2.17a11.5,11.5,0,0,0,0,13.91c.43.6.89,1.19,1.33,1.79a11.45,11.45,0,0,1,0,14.05c-.42.58-.85,1.14-1.27,1.71a11.52,11.52,0,0,0,0,14.14c.44.6.89,1.19,1.33,1.79a11.45,11.45,0,0,1,0,13.83c-.53.73-1.09,1.43-1.6,2.16a11.5,11.5,0,0,0,0,13.46c.55.78,1.15,1.53,1.71,2.32a11.47,11.47,0,0,1,0,13.46c-.71,1-1.53,2-2.16,3a11.26,11.26,0,0,0,0,12.06c.65,1.12,1.52,2.11,2.26,3.17a11.48,11.48,0,0,1,0,13.23c-.53.76-1.11,1.49-1.65,2.24a11.51,11.51,0,0,0-.09,13.77c.56.78,1.16,1.53,1.71,2.31a11.49,11.49,0,0,1-.1,13.46c-.81,1.13-1.67,2.23-2.4,3.42a9.45,9.45,0,0,0-1.36,5.5H58.09c.38-3.84.81-4.91,3.17-8,.3-.39.6-.79.88-1.2a11.51,11.51,0,0,0,0-13c-.69-1-1.49-2-2.17-3a10.91,10.91,0,0,1-1-10.75,22.53,22.53,0,0,1,2.68-4.2,11.59,11.59,0,0,0,.1-14.15c-.4-.55-.8-1.1-1.23-1.63a11.62,11.62,0,0,1-.08-14.22c.52-.65,1-1.34,1.5-2a11.49,11.49,0,0,0,2-8.81,12.62,12.62,0,0,0-2.91-5.92,12.29,12.29,0,0,1-2.69-5.21,11.63,11.63,0,0,1,2.18-9.71c.53-.69,1.05-1.38,1.54-2.09a11.49,11.49,0,0,0-.06-13.23c-.5-.71-1-1.41-1.55-2.09a11.62,11.62,0,0,1,0-14.06c.51-.63,1-1.28,1.44-1.94a11.52,11.52,0,0,0-.06-13.77c-.63-.88-1.34-1.71-1.9-2.63a11.06,11.06,0,0,1-.17-12.16c.63-1.09,1.46-2.07,2.2-3.1A11.52,11.52,0,0,0,62,387c-.55-.79-1.14-1.55-1.71-2.32a10.75,10.75,0,0,1-2.16-6.77H44.59A9.09,9.09,0,0,0,46,383.7Z"/><path class="cls-2" d="M73.55,383.95c.75,1.13,1.61,2.2,2.37,3.32a11.48,11.48,0,0,1-.08,12.92c-.65.94-1.37,1.84-2,2.78a11.5,11.5,0,0,0,0,12.92c.66,1,1.41,1.88,2.07,2.86A11.48,11.48,0,0,1,75.72,432c-.61.86-1.27,1.68-1.87,2.54a11.52,11.52,0,0,0,0,13.08c.62.89,1.3,1.73,1.92,2.62a11.44,11.44,0,0,1,.06,13.15c-.65.94-1.37,1.83-2,2.78A11.49,11.49,0,0,0,73.74,479c.66,1,1.4,1.89,2.07,2.86a11.42,11.42,0,0,1,0,13.22c-.66.94-1.38,1.83-2,2.78a11.49,11.49,0,0,0,0,12.77c.7,1,1.49,2,2.18,3a11.49,11.49,0,0,1,0,12.77c-.66,1-1.4,1.89-2.07,2.85a11.48,11.48,0,0,0,0,13.15c.62.89,1.3,1.73,1.91,2.63a11.5,11.5,0,0,1-.11,13.3c-.86,1.21-1.77,2.39-2.54,3.66a9.33,9.33,0,0,0-1.28,5.32H85.44a11.65,11.65,0,0,1,2.91-7.63c.3-.4.6-.79.89-1.19a11.52,11.52,0,0,0,.08-13.69c-.55-.78-1.16-1.53-1.71-2.31a11.48,11.48,0,0,1,0-13.38c.57-.81,1.19-1.58,1.76-2.39a11.49,11.49,0,0,0,0-13.39c-.61-.86-1.27-1.68-1.87-2.55a11.5,11.5,0,0,1,0-13.15c.6-.86,1.25-1.7,1.87-2.54a11.48,11.48,0,0,0,1.9-8.92c-.36-2.39-1.73-4.26-3.16-6.11a11.52,11.52,0,0,1-.37-14.36c.57-.81,1.2-1.57,1.76-2.39a11.47,11.47,0,0,0,0-12.92c-.65-.94-1.37-1.83-2-2.78a11.48,11.48,0,0,1,.08-13.23c.52-.73,1.07-1.44,1.6-2.17a11.5,11.5,0,0,0,0-13.92c-.51-.7-1-1.38-1.54-2.09a11.45,11.45,0,0,1,0-13.53c.56-.78,1.15-1.54,1.71-2.32a11,11,0,0,0,2-5.4,12,12,0,0,0-3-9.26,11.88,11.88,0,0,1-3-7.81H71.9A9.79,9.79,0,0,0,73.55,383.95Z"/><path class="cls-2" d="M128,383.95c.65,1,1.34,1.93,2.07,2.86a11.58,11.58,0,0,1-.06,13.81c-.52.62-1,1.28-1.45,1.93a11.51,11.51,0,0,0,0,13.77,29.66,29.66,0,0,1,2.31,3.24,11.34,11.34,0,0,1-.49,12.13c-.54.83-1.15,1.62-1.76,2.39a11.71,11.71,0,0,0,.05,14,26.4,26.4,0,0,1,2,2.71,10.89,10.89,0,0,1,.85,10.37,28.16,28.16,0,0,1-3,4.73,11.57,11.57,0,0,0,0,13.47c.52.73,1.07,1.44,1.6,2.16a11.44,11.44,0,0,1,.34,13.27c-.66,1-1.37,1.91-2.08,2.85a11.68,11.68,0,0,0,0,13.16c.79,1,1.58,2.07,2.28,3.16a11.53,11.53,0,0,1-.51,12.81c-1.31,1.76-2.8,3.43-3.36,5.62a11.91,11.91,0,0,0,2.13,10.78,17.77,17.77,0,0,1,2.69,4.39,10.77,10.77,0,0,1-1.11,10.25c-.81,1.21-1.73,2.34-2.52,3.56a9.85,9.85,0,0,0-1.61,5.9h13.61a11.58,11.58,0,0,1,2.85-7.62,16.41,16.41,0,0,0,1.45-2,11.29,11.29,0,0,0,.09-12c-.65-1.15-1.55-2.16-2.31-3.25a11.48,11.48,0,0,1,0-13.23c.58-.84,1.23-1.63,1.82-2.47a11.51,11.51,0,0,0-.12-13.62c-.42-.58-.85-1.14-1.27-1.71a11.47,11.47,0,0,1,0-14.36c.42-.57.86-1.14,1.27-1.71a11.51,11.51,0,0,0,0-13.84c-.45-.63-.93-1.24-1.39-1.86a11.47,11.47,0,0,1,0-13.91c.51-.7,1.05-1.38,1.55-2.09a11.5,11.5,0,0,0,0-13.62c-.67-.93-1.42-1.81-2-2.78a11.2,11.2,0,0,1,0-12.37c.72-1.19,1.69-2.22,2.41-3.41a11.25,11.25,0,0,0,.09-12.21c-.63-1.09-1.48-2.06-2.21-3.1a11.46,11.46,0,0,1,0-13.3c.51-.74,1.06-1.45,1.6-2.16a11.6,11.6,0,0,0,2.09-9.4,12.79,12.79,0,0,0-3.06-5.85,11.74,11.74,0,0,1-2.74-7.52H126.33A9.71,9.71,0,0,0,128,383.95Z"/><path class="cls-2" d="M157.42,387.36a11.33,11.33,0,0,1,.1,12.45c-.68,1.14-1.57,2.15-2.31,3.26a10.93,10.93,0,0,0-1,10.71,30.5,30.5,0,0,0,3.15,5,11.55,11.55,0,0,1,.06,12.86c-.69,1-1.47,2-2.16,3a11.53,11.53,0,0,0,0,12.77c.72,1.08,1.55,2.09,2.27,3.17a11.5,11.5,0,0,1-.12,12.69c-.61.89-1.28,1.75-1.91,2.63a11.54,11.54,0,0,0-1.85,9.36,12.19,12.19,0,0,0,2.93,5.52,11.84,11.84,0,0,1,0,15.21c-.42.49-.79,1-1.16,1.56a11.56,11.56,0,0,0,0,13.32c.71,1,1.53,2,2.15,3a11.27,11.27,0,0,1,0,12.14c-.62,1.07-1.44,2-2.15,3a11.51,11.51,0,0,0,0,13.54c.52.73,1.08,1.44,1.59,2.17a11.5,11.5,0,0,1,0,13.69c-.72,1-1.48,2-2.15,3a10.17,10.17,0,0,0-1.57,5.81H166.9a12,12,0,0,1,3.2-8.12c.22-.26.4-.55.6-.82a11.62,11.62,0,0,0,1.94-9.17c-.38-2.37-1.77-4.18-3.18-6a11.89,11.89,0,0,1-2.49-9c.3-2.78,1.76-5,3.4-7.08a11.45,11.45,0,0,0,.36-13.89c-.56-.81-1.18-1.59-1.75-2.4a11.49,11.49,0,0,1,0-13.39c.53-.76,1.1-1.49,1.66-2.24a11.59,11.59,0,0,0,2-9.26,11.8,11.8,0,0,0-2.81-5.46,12.07,12.07,0,0,1-2.48-11.29,15.65,15.65,0,0,1,3.1-5.32,11.5,11.5,0,0,0,.27-13.83c-.57-.81-1.19-1.58-1.76-2.39a11.53,11.53,0,0,1,.08-13.39,25,25,0,0,0,1.79-2.48,16.25,16.25,0,0,0,1.73-4,11.77,11.77,0,0,0-2.83-10.69,11.63,11.63,0,0,1-2.41-10.94,13.82,13.82,0,0,1,2.53-4.7,15.74,15.74,0,0,0,2.15-3.44,11.44,11.44,0,0,0-1.9-12,13,13,0,0,1-3.27-8.19H153.27a12,12,0,0,0,2.85,7.67A16,16,0,0,1,157.42,387.36Z"/><path class="cls-2" d="M3.86,567.3c-.14-3.27,1.32-5.84,3.26-8.22.18-.22.34-.44.5-.67a11.5,11.5,0,0,0,0-13.61c-.66-.93-1.42-1.81-2-2.79a11.27,11.27,0,0,1,0-12.45c.65-1.08,1.5-2,2.22-3.09a11.49,11.49,0,0,0,0-13c-.7-1-1.53-2-2.17-3a11.27,11.27,0,0,1,0-12.45c.65-1.08,1.49-2.05,2.22-3.09a11.45,11.45,0,0,0,1.7-9.21c-.47-2.37-2-4.17-3.34-6a11.49,11.49,0,0,1,0-14.06c.47-.65,1-1.28,1.44-1.94a11.51,11.51,0,0,0,0-13.76c-.45-.63-.93-1.24-1.39-1.86A11.5,11.5,0,0,1,6.2,434c.51-.7,1-1.38,1.55-2.09a11.5,11.5,0,0,0,0-13.3c-.62-.89-1.31-1.73-1.92-2.62a11.46,11.46,0,0,1,0-13.08c.63-.92,1.34-1.78,2-2.7A11.51,11.51,0,0,0,7.76,387c-.6-.86-1.26-1.68-1.87-2.54a9.93,9.93,0,0,1-2-6.61H0V567.3Z"/><path class="cls-2" d="M184,386.51a11.51,11.51,0,0,1,0,14.29c-.42.57-.85,1.14-1.28,1.71a11.56,11.56,0,0,0-1.94,9.95c.48,2.12,1.8,3.77,3.06,5.46,3.55,4.78,3.52,10,0,14.73-.37.5-.75,1-1.11,1.49a11.5,11.5,0,0,0,0,13.84c.5.71,1,1.38,1.55,2.09a11.48,11.48,0,0,1,0,13.61c-.58.81-1.19,1.59-1.76,2.39a11.44,11.44,0,0,0-2,8c.26,2.73,1.69,4.85,3.29,6.94,3.58,4.7,3.59,10,.07,14.73-.41.55-.82,1.09-1.22,1.64a11.49,11.49,0,0,0,0,13.61c.52.73,1.07,1.44,1.6,2.17a11.49,11.49,0,0,1,.11,13.53c-.5.71-1,1.39-1.55,2.09a11.51,11.51,0,0,0-.13,13.84c.48.68,1,1.34,1.49,2a11.51,11.51,0,0,1-.06,14c-.62.85-1.27,1.68-1.86,2.55a10.41,10.41,0,0,0-1.76,6.13h9.8V377.88h-9.85c.1.89.15,1.79.31,2.67C181.11,382.89,182.6,384.67,184,386.51Z"/><path class="cls-2" d="M102.92,198a11.47,11.47,0,0,1-.08,13.54c-.56.78-1.16,1.53-1.71,2.32a11.49,11.49,0,0,0,.06,13.38c.59.83,1.23,1.63,1.81,2.47a11.46,11.46,0,0,1,.07,13.08c-.68,1-1.45,1.93-2.12,2.93a11.52,11.52,0,0,0,0,12.69c.65,1,1.4,1.89,2.07,2.86a11.46,11.46,0,0,1-.1,13.38c-.54.76-1.12,1.48-1.65,2.24a11.48,11.48,0,0,0,0,13.61c.72,1,1.55,2,2.16,3a11.23,11.23,0,0,1-.11,12.05c-.62,1-1.41,2-2.11,2.94a11.5,11.5,0,0,0,0,13.46c.55.78,1.16,1.53,1.71,2.32a11.47,11.47,0,0,1-.07,13.61c-.56.78-1.16,1.53-1.71,2.32a11.5,11.5,0,0,0,0,13.31c.52.73,1.07,1.44,1.6,2.17a11.49,11.49,0,0,1,0,13.91c-.73,1-1.49,2-2.15,3a10,10,0,0,0-1.51,5.71h13.66c-.14-3.23,1.28-5.79,3.21-8.15.27-.33.52-.7.76-1.05a11.54,11.54,0,0,0,0-13.08c-.6-.86-1.26-1.68-1.86-2.55a11.48,11.48,0,0,1,0-13.46c.59-.83,1.24-1.63,1.82-2.47a11.5,11.5,0,0,0,0-13.08c-.63-.92-1.33-1.79-2-2.7a11.45,11.45,0,0,1,0-13.15c.47-.69,1-1.34,1.49-2a11.54,11.54,0,0,0,0-14.44,27,27,0,0,1-1.84-2.56,11.23,11.23,0,0,1-.12-11.74c.66-1.18,1.59-2.21,2.34-3.34a11.2,11.2,0,0,0,.49-12.59c-.67-1.18-1.57-2.22-2.34-3.34a11.47,11.47,0,0,1-.08-13c.62-.92,1.33-1.79,2-2.7a11.52,11.52,0,0,0,0-13.31c-.69-1-1.49-1.91-2.11-2.94a11.24,11.24,0,0,1-.06-12.29c.61-1,1.41-2,2.11-2.94a11.52,11.52,0,0,0-.12-13.69c-.62-.85-1.28-1.68-1.86-2.55a9.83,9.83,0,0,1-1.79-6.3H99a11.6,11.6,0,0,0,2.68,7.45C102.13,196.91,102.53,197.47,102.92,198Z"/><path class="cls-2" d="M21.22,197.87a11.31,11.31,0,0,1,2,9,10.73,10.73,0,0,1-1.88,4.48,25.42,25.42,0,0,0-3.08,4.8c-1.85,4.63-.76,8.84,2.43,12.58a11.56,11.56,0,0,1,.68,14.12c-.49.71-1,1.39-1.54,2.09a11.53,11.53,0,0,0,0,14.21c.47.65,1,1.28,1.43,1.94a11.19,11.19,0,0,1,.79,12.17A28.73,28.73,0,0,1,19.61,277a10.83,10.83,0,0,0-1.47,10.57,21.39,21.39,0,0,0,3.14,5.1,11.66,11.66,0,0,1,.6,12.67c-.72,1.15-1.59,2.21-2.37,3.33a11.52,11.52,0,0,0,0,13.23c.71,1,1.49,2,2.17,3a11.55,11.55,0,0,1-.39,12.9,23.59,23.59,0,0,0-2.65,3.9,11,11,0,0,0,.7,11.45c.77,1.16,1.72,2.2,2.4,3.41a11.42,11.42,0,0,1-.68,13.15c-.75,1.06-1.56,2.08-2.24,3.19a9.68,9.68,0,0,0-1.36,5.46H31.15c-.23-3.61,1.7-6.29,3.76-8.91.1-.12.18-.25.26-.38a11.51,11.51,0,0,0,0-12.85c-.54-.79-1.13-1.55-1.7-2.32a11.5,11.5,0,0,1,0-14.06c.49-.68,1-1.34,1.49-2a11.51,11.51,0,0,0,1.91-9.35c-.44-2.34-1.86-4.14-3.23-6a11.49,11.49,0,0,1,0-14.43c.4-.55.82-1.09,1.22-1.64a11.47,11.47,0,0,0,0-13.91c-.6-.83-1.26-1.61-1.81-2.47a11.27,11.27,0,0,1-.4-12.05,30.67,30.67,0,0,1,2.3-3.26,11.5,11.5,0,0,0,0-13.61c-.68-1-1.45-1.86-2.06-2.86a11.23,11.23,0,0,1-.15-12.05c.64-1.12,1.51-2.11,2.26-3.18a11.49,11.49,0,0,0,0-13.46c-.68-1-1.46-1.86-2.06-2.86a11.25,11.25,0,0,1,0-12.37c.6-1,1.37-1.91,2.06-2.86A11.49,11.49,0,0,0,36.83,202a12.26,12.26,0,0,0-2.67-5.14,12.46,12.46,0,0,1-2.86-5.75c-.11-.73-.18-1.47-.27-2.2H17.46a10.87,10.87,0,0,0,2.21,6.84C20.2,196.48,20.7,197.18,21.22,197.87Z"/><path class="cls-2" d="M46,194.76c.7,1.13,1.54,2.17,2.31,3.25a11.47,11.47,0,0,1,0,13.38c-.52.73-1.07,1.44-1.6,2.17a11.5,11.5,0,0,0,0,13.91c.43.6.89,1.19,1.33,1.79a11.45,11.45,0,0,1,0,14.05c-.42.58-.85,1.14-1.27,1.71a11.52,11.52,0,0,0,0,14.14c.44.6.89,1.19,1.33,1.79a11.45,11.45,0,0,1,0,13.83c-.53.73-1.09,1.43-1.6,2.16a11.5,11.5,0,0,0,0,13.46c.55.78,1.15,1.53,1.71,2.32a11.47,11.47,0,0,1,0,13.46c-.71,1-1.53,2-2.16,3a11.26,11.26,0,0,0,0,12.06c.65,1.12,1.52,2.11,2.26,3.17a11.48,11.48,0,0,1,0,13.23c-.53.76-1.11,1.49-1.65,2.24a11.51,11.51,0,0,0-.09,13.77c.56.78,1.16,1.53,1.71,2.31a11.49,11.49,0,0,1-.1,13.46c-.81,1.13-1.67,2.23-2.4,3.42a9.45,9.45,0,0,0-1.36,5.5H58.09c.38-3.84.81-4.91,3.17-8,.3-.39.6-.79.88-1.2a11.51,11.51,0,0,0,0-13c-.69-1-1.49-2-2.17-3a10.91,10.91,0,0,1-1-10.75,22.53,22.53,0,0,1,2.68-4.2,11.59,11.59,0,0,0,.1-14.15c-.4-.55-.8-1.1-1.23-1.63a11.62,11.62,0,0,1-.08-14.22c.52-.65,1-1.34,1.5-2a11.49,11.49,0,0,0,2-8.81,12.62,12.62,0,0,0-2.91-5.92,12.29,12.29,0,0,1-2.69-5.21,11.63,11.63,0,0,1,2.18-9.71c.53-.69,1.05-1.38,1.54-2.09a11.49,11.49,0,0,0-.06-13.23c-.5-.71-1-1.41-1.55-2.09a11.62,11.62,0,0,1,0-14.06c.51-.63,1-1.28,1.44-1.94a11.52,11.52,0,0,0-.06-13.77c-.63-.88-1.34-1.71-1.9-2.63a11.06,11.06,0,0,1-.17-12.16c.63-1.09,1.46-2.07,2.2-3.1A11.52,11.52,0,0,0,62,198c-.55-.79-1.14-1.55-1.71-2.32a10.75,10.75,0,0,1-2.16-6.77H44.59A9.09,9.09,0,0,0,46,194.76Z"/><path class="cls-2" d="M73.55,195c.75,1.13,1.61,2.2,2.37,3.32a11.48,11.48,0,0,1-.08,12.92c-.65.94-1.37,1.84-2,2.78a11.5,11.5,0,0,0,0,12.92c.66,1,1.41,1.88,2.07,2.86A11.48,11.48,0,0,1,75.72,243c-.61.86-1.27,1.68-1.87,2.54a11.52,11.52,0,0,0,0,13.08c.62.89,1.3,1.73,1.92,2.62a11.44,11.44,0,0,1,.06,13.15c-.65.94-1.37,1.83-2,2.78A11.49,11.49,0,0,0,73.74,290c.66,1,1.4,1.89,2.07,2.86a11.42,11.42,0,0,1,0,13.22c-.66.94-1.38,1.83-2,2.78a11.49,11.49,0,0,0,0,12.77c.7,1,1.49,2,2.18,3a11.49,11.49,0,0,1,0,12.77c-.66,1-1.4,1.89-2.07,2.85a11.48,11.48,0,0,0,0,13.15c.62.89,1.3,1.73,1.91,2.63a11.5,11.5,0,0,1-.11,13.3c-.86,1.21-1.77,2.39-2.54,3.66a9.33,9.33,0,0,0-1.28,5.32H85.44a11.65,11.65,0,0,1,2.91-7.63c.3-.4.6-.79.89-1.19a11.52,11.52,0,0,0,.08-13.69c-.55-.78-1.16-1.53-1.71-2.31a11.48,11.48,0,0,1,0-13.38c.57-.81,1.19-1.58,1.76-2.39a11.49,11.49,0,0,0,0-13.39c-.61-.86-1.27-1.68-1.87-2.55a11.5,11.5,0,0,1,0-13.15c.6-.86,1.25-1.7,1.87-2.54a11.48,11.48,0,0,0,1.9-8.92c-.36-2.39-1.73-4.26-3.16-6.11a11.52,11.52,0,0,1-.37-14.36c.57-.81,1.2-1.57,1.76-2.39a11.47,11.47,0,0,0,0-12.92c-.65-.94-1.37-1.83-2-2.78a11.48,11.48,0,0,1,.08-13.23c.52-.73,1.07-1.44,1.6-2.17a11.5,11.5,0,0,0,0-13.92c-.51-.7-1-1.38-1.54-2.09a11.45,11.45,0,0,1,0-13.53c.56-.78,1.15-1.54,1.71-2.32a11,11,0,0,0,2-5.4,12,12,0,0,0-3-9.26,11.88,11.88,0,0,1-3-7.81H71.9A9.79,9.79,0,0,0,73.55,195Z"/><path class="cls-2" d="M128,195c.65,1,1.34,1.93,2.07,2.86a11.58,11.58,0,0,1-.06,13.81c-.52.62-1,1.28-1.45,1.93a11.51,11.51,0,0,0,0,13.77,29.66,29.66,0,0,1,2.31,3.24,11.34,11.34,0,0,1-.49,12.13c-.54.83-1.15,1.62-1.76,2.39a11.71,11.71,0,0,0,.05,14,26.4,26.4,0,0,1,2,2.71,10.89,10.89,0,0,1,.85,10.37,28.16,28.16,0,0,1-3,4.73,11.57,11.57,0,0,0,0,13.47c.52.73,1.07,1.44,1.6,2.16a11.44,11.44,0,0,1,.34,13.27c-.66,1-1.37,1.91-2.08,2.85a11.68,11.68,0,0,0,0,13.16c.79,1,1.58,2.07,2.28,3.16a11.53,11.53,0,0,1-.51,12.81c-1.31,1.76-2.8,3.43-3.36,5.62a11.91,11.91,0,0,0,2.13,10.78,17.77,17.77,0,0,1,2.69,4.39,10.77,10.77,0,0,1-1.11,10.25c-.81,1.21-1.73,2.34-2.52,3.56a9.85,9.85,0,0,0-1.61,5.9h13.61a11.58,11.58,0,0,1,2.85-7.62,16.41,16.41,0,0,0,1.45-2,11.29,11.29,0,0,0,.09-12c-.65-1.15-1.55-2.16-2.31-3.25a11.48,11.48,0,0,1,0-13.23c.58-.84,1.23-1.63,1.82-2.47a11.51,11.51,0,0,0-.12-13.62c-.42-.58-.85-1.14-1.27-1.71a11.47,11.47,0,0,1,0-14.36c.42-.57.86-1.14,1.27-1.71a11.51,11.51,0,0,0,0-13.84c-.45-.63-.93-1.24-1.39-1.86a11.47,11.47,0,0,1,0-13.91c.51-.7,1.05-1.38,1.55-2.09a11.5,11.5,0,0,0,0-13.62c-.67-.93-1.42-1.81-2-2.78a11.2,11.2,0,0,1,0-12.36c.72-1.19,1.69-2.22,2.41-3.41a11.25,11.25,0,0,0,.09-12.21c-.63-1.09-1.48-2.06-2.21-3.1a11.46,11.46,0,0,1,0-13.3c.51-.74,1.06-1.45,1.6-2.16a11.6,11.6,0,0,0,2.09-9.4,12.79,12.79,0,0,0-3.06-5.85,11.74,11.74,0,0,1-2.74-7.52H126.33A9.71,9.71,0,0,0,128,195Z"/><path class="cls-2" d="M157.42,198.42a11.33,11.33,0,0,1,.1,12.45c-.68,1.14-1.57,2.15-2.31,3.26a10.93,10.93,0,0,0-1,10.71,30.5,30.5,0,0,0,3.15,5,11.55,11.55,0,0,1,.06,12.86c-.69,1-1.47,2-2.16,3a11.53,11.53,0,0,0,0,12.77c.72,1.08,1.55,2.09,2.27,3.17a11.5,11.5,0,0,1-.12,12.69c-.61.89-1.28,1.75-1.91,2.63a11.54,11.54,0,0,0-1.85,9.36,12.19,12.19,0,0,0,2.93,5.52,11.84,11.84,0,0,1,0,15.21c-.42.49-.79,1-1.16,1.56a11.56,11.56,0,0,0,0,13.32c.71,1,1.53,2,2.15,3a11.27,11.27,0,0,1,0,12.14c-.62,1.07-1.44,2-2.15,3a11.51,11.51,0,0,0,0,13.54c.52.73,1.08,1.44,1.59,2.17a11.5,11.5,0,0,1,0,13.69c-.72,1-1.48,2-2.15,3a10.17,10.17,0,0,0-1.57,5.81H166.9a12,12,0,0,1,3.2-8.12c.22-.26.4-.55.6-.82a11.62,11.62,0,0,0,1.94-9.17c-.38-2.37-1.77-4.18-3.18-6a11.89,11.89,0,0,1-2.49-9c.3-2.78,1.76-5,3.4-7.08a11.45,11.45,0,0,0,.36-13.89c-.56-.81-1.18-1.59-1.75-2.4a11.49,11.49,0,0,1,0-13.39c.53-.76,1.1-1.49,1.66-2.24a11.59,11.59,0,0,0,2-9.26,11.8,11.8,0,0,0-2.81-5.46,12.07,12.07,0,0,1-2.48-11.29,15.65,15.65,0,0,1,3.1-5.32,11.5,11.5,0,0,0,.27-13.83c-.57-.81-1.19-1.58-1.76-2.39a11.53,11.53,0,0,1,.08-13.39,25,25,0,0,0,1.79-2.48,16.25,16.25,0,0,0,1.73-4,11.77,11.77,0,0,0-2.83-10.69,11.63,11.63,0,0,1-2.41-10.94,13.82,13.82,0,0,1,2.53-4.7,15.74,15.74,0,0,0,2.15-3.44,11.44,11.44,0,0,0-1.9-12,13,13,0,0,1-3.27-8.19H153.27a12,12,0,0,0,2.85,7.67A16,16,0,0,1,157.42,198.42Z"/><path class="cls-2" d="M3.86,378.36c-.14-3.27,1.32-5.84,3.26-8.22.18-.22.34-.44.5-.67a11.5,11.5,0,0,0,0-13.61c-.66-.93-1.42-1.81-2-2.79a11.27,11.27,0,0,1,0-12.45c.65-1.08,1.5-2,2.22-3.09a11.49,11.49,0,0,0,0-13c-.7-1-1.53-2-2.17-3a11.27,11.27,0,0,1,0-12.45C6.27,308,7.11,307,7.84,306a11.45,11.45,0,0,0,1.7-9.21c-.47-2.37-2-4.17-3.34-6a11.49,11.49,0,0,1,0-14.06c.47-.65,1-1.28,1.44-1.94a11.51,11.51,0,0,0,0-13.76c-.45-.63-.93-1.24-1.39-1.86A11.5,11.5,0,0,1,6.2,245c.51-.7,1-1.38,1.55-2.09a11.5,11.5,0,0,0,0-13.3c-.62-.89-1.31-1.73-1.92-2.62a11.46,11.46,0,0,1,0-13.08c.63-.92,1.34-1.78,2-2.7a11.51,11.51,0,0,0-.07-13.15c-.6-.86-1.26-1.68-1.87-2.54a9.93,9.93,0,0,1-2-6.61H0V378.36Z"/><path class="cls-2" d="M184,197.57a11.51,11.51,0,0,1,0,14.29c-.42.57-.85,1.14-1.28,1.71a11.56,11.56,0,0,0-1.94,9.95c.48,2.12,1.8,3.77,3.06,5.46,3.55,4.78,3.52,10,0,14.73-.37.5-.75,1-1.11,1.49a11.5,11.5,0,0,0,0,13.84c.5.71,1,1.38,1.55,2.09a11.48,11.48,0,0,1,0,13.61c-.58.81-1.19,1.59-1.76,2.39a11.44,11.44,0,0,0-2,8c.26,2.73,1.69,4.85,3.29,6.94,3.58,4.7,3.59,10,.07,14.73-.41.55-.82,1.09-1.22,1.64a11.49,11.49,0,0,0,0,13.61c.52.73,1.07,1.44,1.6,2.17a11.49,11.49,0,0,1,.11,13.53c-.5.71-1,1.39-1.55,2.09a11.51,11.51,0,0,0-.13,13.84c.48.68,1,1.34,1.49,2a11.51,11.51,0,0,1-.06,14c-.62.85-1.27,1.68-1.86,2.55a10.41,10.41,0,0,0-1.76,6.13h9.8V188.94h-9.85c.1.89.15,1.79.31,2.67C181.11,194,182.6,195.73,184,197.57Z"/><path class="cls-2" d="M102.92,9.08a11.47,11.47,0,0,1-.08,13.54c-.56.78-1.16,1.53-1.71,2.32a11.49,11.49,0,0,0,.06,13.38c.59.83,1.23,1.63,1.81,2.47a11.46,11.46,0,0,1,.07,13.08c-.68,1-1.45,1.93-2.12,2.93a11.52,11.52,0,0,0,0,12.69c.65,1,1.4,1.89,2.07,2.86a11.46,11.46,0,0,1-.1,13.38c-.54.76-1.12,1.48-1.65,2.24a11.48,11.48,0,0,0,0,13.61c.72,1,1.55,2,2.16,3a11.23,11.23,0,0,1-.11,12.05c-.62,1-1.41,2-2.11,2.94a11.5,11.5,0,0,0,0,13.46c.55.78,1.16,1.53,1.71,2.32a11.47,11.47,0,0,1-.07,13.61c-.56.78-1.16,1.53-1.71,2.32a11.5,11.5,0,0,0,0,13.31c.52.73,1.07,1.44,1.6,2.16a11.49,11.49,0,0,1,0,13.91c-.73,1-1.49,2-2.15,3a10,10,0,0,0-1.51,5.71h13.66c-.14-3.23,1.28-5.79,3.21-8.15.27-.33.52-.7.76-1.05a11.54,11.54,0,0,0,0-13.08c-.6-.86-1.26-1.68-1.86-2.55a11.48,11.48,0,0,1,0-13.46c.59-.83,1.24-1.63,1.82-2.47a11.5,11.5,0,0,0,0-13.08c-.63-.92-1.33-1.79-2-2.7a11.45,11.45,0,0,1,0-13.15c.47-.69,1-1.34,1.49-2a11.54,11.54,0,0,0,0-14.44,27,27,0,0,1-1.84-2.56A11.23,11.23,0,0,1,114.24,89c.66-1.18,1.59-2.21,2.34-3.34a11.2,11.2,0,0,0,.49-12.59c-.67-1.18-1.57-2.22-2.34-3.34a11.47,11.47,0,0,1-.08-13c.62-.92,1.33-1.79,2-2.7a11.52,11.52,0,0,0,0-13.31c-.69-1-1.49-1.91-2.11-2.94a11.24,11.24,0,0,1-.06-12.29c.61-1,1.41-2,2.11-2.94a11.52,11.52,0,0,0-.12-13.69c-.62-.85-1.28-1.68-1.86-2.55A9.83,9.83,0,0,1,112.77,0H99a11.6,11.6,0,0,0,2.68,7.45C102.13,8,102.53,8.53,102.92,9.08Z"/><path class="cls-2" d="M21.22,8.93a11.31,11.31,0,0,1,2,9,10.73,10.73,0,0,1-1.88,4.48,25.42,25.42,0,0,0-3.08,4.8c-1.85,4.63-.76,8.84,2.43,12.58A11.56,11.56,0,0,1,21.41,54c-.49.71-1,1.39-1.54,2.09a11.53,11.53,0,0,0,0,14.21c.47.65,1,1.28,1.43,1.94a11.19,11.19,0,0,1,.79,12.17,28.73,28.73,0,0,1-2.48,3.68,10.83,10.83,0,0,0-1.47,10.57,21.39,21.39,0,0,0,3.14,5.1,11.66,11.66,0,0,1,.6,12.67c-.72,1.15-1.59,2.21-2.37,3.33a11.52,11.52,0,0,0,0,13.23c.71,1,1.49,2,2.17,3a11.55,11.55,0,0,1-.39,12.9,23.59,23.59,0,0,0-2.65,3.9,11,11,0,0,0,.7,11.45c.77,1.16,1.72,2.2,2.4,3.41a11.42,11.42,0,0,1-.68,13.15c-.75,1.06-1.56,2.08-2.24,3.19a9.68,9.68,0,0,0-1.36,5.46H31.15c-.23-3.61,1.7-6.29,3.76-8.91.1-.12.18-.25.26-.38a11.51,11.51,0,0,0,0-12.85c-.54-.79-1.13-1.55-1.7-2.32a11.5,11.5,0,0,1,0-14.06c.49-.68,1-1.34,1.49-2a11.51,11.51,0,0,0,1.91-9.35c-.44-2.34-1.86-4.14-3.23-6a11.49,11.49,0,0,1,0-14.43c.4-.55.82-1.09,1.22-1.64a11.47,11.47,0,0,0,0-13.91c-.6-.83-1.26-1.61-1.81-2.47A11.27,11.27,0,0,1,32.61,89a30.67,30.67,0,0,1,2.3-3.26,11.5,11.5,0,0,0,0-13.61c-.68-1-1.45-1.86-2.06-2.86a11.23,11.23,0,0,1-.15-12.05c.64-1.12,1.51-2.11,2.26-3.18a11.49,11.49,0,0,0,0-13.46c-.68-1-1.46-1.86-2.06-2.86a11.25,11.25,0,0,1,0-12.37c.6-1,1.37-1.91,2.06-2.86a11.49,11.49,0,0,0,1.86-9.45,12.26,12.26,0,0,0-2.67-5.14A12.46,12.46,0,0,1,31.29,2.2C31.18,1.47,31.11.73,31,0H17.46a10.87,10.87,0,0,0,2.21,6.84C20.2,7.54,20.7,8.24,21.22,8.93Z"/><path class="cls-2" d="M46,5.82c.7,1.13,1.54,2.17,2.31,3.25a11.47,11.47,0,0,1,0,13.38c-.52.73-1.07,1.44-1.6,2.17a11.5,11.5,0,0,0,0,13.91c.43.6.89,1.19,1.33,1.79a11.45,11.45,0,0,1,0,14.05c-.42.58-.85,1.14-1.27,1.71a11.52,11.52,0,0,0,0,14.14c.44.6.89,1.19,1.33,1.79a11.45,11.45,0,0,1,0,13.83c-.53.73-1.09,1.43-1.6,2.16a11.5,11.5,0,0,0,0,13.46c.55.78,1.15,1.53,1.71,2.32a11.47,11.47,0,0,1,0,13.46c-.71,1-1.53,2-2.16,3a11.26,11.26,0,0,0,0,12.06c.65,1.12,1.52,2.11,2.26,3.17a11.48,11.48,0,0,1,0,13.23c-.53.76-1.11,1.49-1.65,2.24a11.51,11.51,0,0,0-.09,13.77c.56.78,1.16,1.53,1.71,2.31a11.49,11.49,0,0,1-.1,13.46c-.81,1.13-1.67,2.23-2.4,3.42a9.45,9.45,0,0,0-1.36,5.5H58.09c.38-3.84.81-4.91,3.17-8,.3-.39.6-.79.88-1.2a11.51,11.51,0,0,0,0-13c-.69-1-1.49-2-2.17-3a10.91,10.91,0,0,1-1-10.75,22.53,22.53,0,0,1,2.68-4.2,11.59,11.59,0,0,0,.1-14.15c-.4-.55-.8-1.11-1.23-1.63a11.62,11.62,0,0,1-.08-14.22c.52-.65,1-1.34,1.5-2a11.49,11.49,0,0,0,2-8.81,12.62,12.62,0,0,0-2.91-5.92,12.29,12.29,0,0,1-2.69-5.21,11.63,11.63,0,0,1,2.18-9.71c.53-.69,1.05-1.38,1.54-2.09a11.49,11.49,0,0,0-.06-13.23c-.5-.71-1-1.41-1.55-2.09a11.62,11.62,0,0,1,0-14.06c.51-.63,1-1.28,1.44-1.94a11.52,11.52,0,0,0-.06-13.77c-.63-.88-1.34-1.71-1.9-2.63a11.06,11.06,0,0,1-.17-12.16c.63-1.09,1.46-2.07,2.2-3.1A11.52,11.52,0,0,0,62,9.08c-.55-.79-1.14-1.55-1.71-2.32A10.75,10.75,0,0,1,58.15,0H44.59A9.09,9.09,0,0,0,46,5.82Z"/><path class="cls-2" d="M73.55,6.07c.75,1.13,1.61,2.2,2.37,3.32a11.48,11.48,0,0,1-.08,12.92c-.65.94-1.37,1.84-2,2.78a11.5,11.5,0,0,0,0,12.92c.66,1,1.41,1.88,2.07,2.86a11.48,11.48,0,0,1-.13,13.23c-.61.86-1.27,1.68-1.87,2.54a11.52,11.52,0,0,0,0,13.08c.62.89,1.3,1.73,1.92,2.62a11.44,11.44,0,0,1,.06,13.15c-.65.94-1.37,1.83-2,2.78a11.49,11.49,0,0,0-.08,12.85c.66,1,1.4,1.89,2.07,2.86a11.42,11.42,0,0,1,0,13.22c-.66.94-1.38,1.83-2,2.78a11.49,11.49,0,0,0,0,12.77c.7,1,1.49,2,2.18,3a11.49,11.49,0,0,1,0,12.77c-.66,1-1.4,1.89-2.07,2.85a11.48,11.48,0,0,0,0,13.15c.62.89,1.3,1.73,1.91,2.63a11.5,11.5,0,0,1-.11,13.3c-.86,1.21-1.77,2.39-2.54,3.66a9.33,9.33,0,0,0-1.28,5.32H85.44a11.65,11.65,0,0,1,2.91-7.63c.3-.4.6-.79.89-1.19a11.52,11.52,0,0,0,.08-13.69c-.55-.78-1.16-1.53-1.71-2.31a11.48,11.48,0,0,1,0-13.38c.57-.81,1.19-1.58,1.76-2.39a11.49,11.49,0,0,0,0-13.39c-.61-.86-1.27-1.68-1.87-2.55a11.5,11.5,0,0,1,0-13.15c.6-.86,1.25-1.7,1.87-2.54a11.48,11.48,0,0,0,1.9-8.92c-.36-2.39-1.73-4.26-3.16-6.11a11.52,11.52,0,0,1-.37-14.36c.57-.81,1.2-1.57,1.76-2.39a11.47,11.47,0,0,0,0-12.92c-.65-.94-1.37-1.83-2-2.78a11.48,11.48,0,0,1,.08-13.23c.52-.73,1.07-1.44,1.6-2.17a11.5,11.5,0,0,0,0-13.92c-.51-.7-1-1.38-1.54-2.09a11.45,11.45,0,0,1,0-13.53c.56-.78,1.15-1.54,1.71-2.32a11,11,0,0,0,2-5.4,12,12,0,0,0-3-9.26,11.88,11.88,0,0,1-3-7.81H71.9A9.79,9.79,0,0,0,73.55,6.07Z"/><path class="cls-2" d="M128,6.07c.65,1,1.34,1.93,2.07,2.86A11.58,11.58,0,0,1,130,22.74c-.52.62-1,1.28-1.45,1.93a11.51,11.51,0,0,0,0,13.77,29.66,29.66,0,0,1,2.31,3.24,11.34,11.34,0,0,1-.49,12.13c-.54.83-1.15,1.62-1.76,2.39a11.71,11.71,0,0,0,.05,14,26.4,26.4,0,0,1,2,2.71,10.89,10.89,0,0,1,.85,10.37,28.16,28.16,0,0,1-3,4.73,11.57,11.57,0,0,0,0,13.47c.52.73,1.07,1.44,1.6,2.16a11.44,11.44,0,0,1,.34,13.27c-.66,1-1.37,1.91-2.08,2.85a11.68,11.68,0,0,0,0,13.16c.79,1,1.58,2.07,2.28,3.16a11.53,11.53,0,0,1-.51,12.81c-1.31,1.76-2.8,3.43-3.36,5.62a11.91,11.91,0,0,0,2.13,10.78,17.77,17.77,0,0,1,2.69,4.39A10.77,10.77,0,0,1,130.44,180c-.81,1.21-1.73,2.34-2.52,3.56a9.85,9.85,0,0,0-1.61,5.9h13.61a11.58,11.58,0,0,1,2.85-7.62,16.41,16.41,0,0,0,1.45-2,11.29,11.29,0,0,0,.09-12c-.65-1.15-1.55-2.16-2.31-3.25a11.48,11.48,0,0,1,0-13.23c.58-.84,1.23-1.63,1.82-2.47a11.51,11.51,0,0,0-.12-13.62c-.42-.58-.85-1.14-1.27-1.71a11.47,11.47,0,0,1,0-14.36c.42-.57.86-1.14,1.27-1.71a11.51,11.51,0,0,0,0-13.84c-.45-.63-.93-1.23-1.39-1.86a11.47,11.47,0,0,1,0-13.91c.51-.7,1.05-1.38,1.55-2.09a11.5,11.5,0,0,0,0-13.62c-.67-.93-1.42-1.81-2-2.78a11.2,11.2,0,0,1,0-12.37c.72-1.19,1.69-2.22,2.41-3.41a11.25,11.25,0,0,0,.09-12.21c-.63-1.09-1.48-2.06-2.21-3.1a11.46,11.46,0,0,1,0-13.3c.51-.74,1.06-1.45,1.6-2.16a11.6,11.6,0,0,0,2.09-9.4,12.79,12.79,0,0,0-3.06-5.85A11.74,11.74,0,0,1,139.89,0H126.33A9.71,9.71,0,0,0,128,6.07Z"/><path class="cls-2" d="M157.42,9.48a11.33,11.33,0,0,1,.1,12.45c-.68,1.14-1.57,2.15-2.31,3.26a10.93,10.93,0,0,0-1,10.71,30.5,30.5,0,0,0,3.15,5,11.55,11.55,0,0,1,.06,12.86c-.69,1-1.47,2-2.16,3a11.53,11.53,0,0,0,0,12.77c.72,1.08,1.55,2.09,2.27,3.17a11.5,11.5,0,0,1-.12,12.69c-.61.89-1.28,1.75-1.91,2.63a11.54,11.54,0,0,0-1.85,9.36,12.19,12.19,0,0,0,2.93,5.52,11.84,11.84,0,0,1,0,15.21c-.42.49-.79,1-1.16,1.56a11.56,11.56,0,0,0,0,13.32c.71,1,1.53,2,2.15,3a11.27,11.27,0,0,1,0,12.14c-.62,1.07-1.44,2-2.15,3a11.51,11.51,0,0,0,0,13.54c.52.73,1.08,1.44,1.59,2.17a11.5,11.5,0,0,1,0,13.69c-.72,1-1.48,2-2.15,3a10.17,10.17,0,0,0-1.57,5.81H166.9a12,12,0,0,1,3.2-8.12c.22-.26.4-.55.6-.82a11.62,11.62,0,0,0,1.94-9.17c-.38-2.37-1.77-4.18-3.18-6a11.89,11.89,0,0,1-2.49-9c.3-2.78,1.76-5,3.4-7.08a11.45,11.45,0,0,0,.36-13.89c-.56-.81-1.18-1.59-1.75-2.4a11.49,11.49,0,0,1,0-13.39c.53-.76,1.1-1.49,1.66-2.24a11.59,11.59,0,0,0,2-9.26,11.8,11.8,0,0,0-2.81-5.46,12.07,12.07,0,0,1-2.48-11.29,15.65,15.65,0,0,1,3.1-5.32,11.5,11.5,0,0,0,.27-13.83c-.57-.81-1.19-1.58-1.76-2.39A11.53,11.53,0,0,1,169,56.41a25,25,0,0,0,1.79-2.48,16.25,16.25,0,0,0,1.73-4,11.77,11.77,0,0,0-2.83-10.69,11.63,11.63,0,0,1-2.41-10.94,13.82,13.82,0,0,1,2.53-4.7A15.74,15.74,0,0,0,172,20.21a11.44,11.44,0,0,0-1.9-12A13,13,0,0,1,166.83,0H153.27a12,12,0,0,0,2.85,7.67A16,16,0,0,1,157.42,9.48Z"/><path class="cls-2" d="M3.86,189.42c-.14-3.27,1.32-5.84,3.26-8.22.18-.22.34-.44.5-.67a11.5,11.5,0,0,0,0-13.61c-.66-.93-1.42-1.81-2-2.79a11.27,11.27,0,0,1,0-12.45c.65-1.08,1.5-2,2.22-3.09a11.49,11.49,0,0,0,0-13c-.7-1-1.53-2-2.17-3a11.27,11.27,0,0,1,0-12.45c.65-1.08,1.49-2.05,2.22-3.09a11.45,11.45,0,0,0,1.7-9.21c-.47-2.37-2-4.17-3.34-6a11.49,11.49,0,0,1,0-14.06c.47-.65,1-1.28,1.44-1.94A11.51,11.51,0,0,0,7.56,72c-.45-.63-.93-1.24-1.39-1.86a11.5,11.5,0,0,1,0-14.07c.51-.7,1-1.38,1.55-2.09a11.5,11.5,0,0,0,0-13.3c-.62-.89-1.31-1.73-1.92-2.62A11.46,11.46,0,0,1,5.86,25c.63-.92,1.34-1.78,2-2.7A11.51,11.51,0,0,0,7.76,9.16c-.6-.86-1.26-1.68-1.87-2.54A9.93,9.93,0,0,1,3.9,0H0V189.42Z"/><path class="cls-2" d="M184,8.63a11.51,11.51,0,0,1,0,14.29c-.42.57-.85,1.14-1.28,1.71a11.56,11.56,0,0,0-1.94,9.95c.48,2.12,1.8,3.77,3.06,5.46,3.55,4.78,3.52,10,0,14.73-.37.5-.75,1-1.11,1.49a11.5,11.5,0,0,0,0,13.84c.5.71,1,1.38,1.55,2.09a11.48,11.48,0,0,1,0,13.61c-.58.81-1.19,1.59-1.76,2.39a11.44,11.44,0,0,0-2,8c.26,2.73,1.69,4.85,3.29,6.94,3.58,4.7,3.59,10,.07,14.73-.41.55-.82,1.09-1.22,1.64a11.49,11.49,0,0,0,0,13.61c.52.73,1.07,1.44,1.6,2.17a11.49,11.49,0,0,1,.11,13.53c-.5.71-1,1.39-1.55,2.09a11.51,11.51,0,0,0-.13,13.84c.48.68,1,1.34,1.49,2a11.51,11.51,0,0,1-.06,14c-.62.85-1.27,1.68-1.86,2.55a10.41,10.41,0,0,0-1.76,6.13h9.8V0h-9.85c.1.89.15,1.79.31,2.67C181.11,5,182.6,6.79,184,8.63Z"/></g></g></svg>