<svg xmlns="http://www.w3.org/2000/svg" viewBox="0 0 568.26 190.24"><defs><style>.cls-1{fill:#00eaff;}.cls-2{fill:#24f2fc;}</style></defs><title>Asset 28</title><g id="Layer_2" data-name="Layer 2"><g id="Layer_1-2" data-name="Layer 1"><rect class="cls-1" width="568.26" height="190.24"/><path class="cls-1" d="M385.45,184.35c.86-.61,1.68-1.27,2.54-1.87a11.51,11.51,0,0,1,13.15-.07c.92.63,1.78,1.34,2.7,2a11.46,11.46,0,0,0,13.08,0c.9-.61,1.74-1.29,2.62-1.92a11.5,11.5,0,0,1,13.3,0c.71.5,1.39,1,2.09,1.55a11.5,11.5,0,0,0,14.07,0c.63-.46,1.23-.93,1.86-1.39a11.51,11.51,0,0,1,13.76,0c.66.47,1.29,1,1.94,1.44a11.49,11.49,0,0,0,14.06,0c1.87-1.38,3.66-2.87,6-3.34a11.45,11.45,0,0,1,9.21,1.7c1,.73,2,1.56,3.09,2.22a11.27,11.27,0,0,0,12.45,0c1.05-.64,2-1.47,3-2.17a11.49,11.49,0,0,1,13,0c1,.71,2,1.56,3.09,2.22a11.27,11.27,0,0,0,12.45,0c1-.59,1.85-1.34,2.79-2a11.5,11.5,0,0,1,13.61,0c.23.16.46.32.67.5,2.38,1.94,5,3.4,8.22,3.26V172.75a9.68,9.68,0,0,1-5.46-1.36c-1.11-.67-2.13-1.48-3.19-2.23a11.42,11.42,0,0,0-13.15-.68c-1.2.68-2.25,1.63-3.41,2.4a11,11,0,0,1-11.45.7,23.59,23.59,0,0,1-3.9-2.65,11.55,11.55,0,0,0-12.9-.39c-1,.68-2,1.47-3,2.17a11.52,11.52,0,0,1-13.23,0c-1.12-.78-2.17-1.65-3.33-2.37a11.66,11.66,0,0,0-12.67.6,21.39,21.39,0,0,1-5.1,3.14,10.83,10.83,0,0,1-10.57-1.47,28.72,28.72,0,0,0-3.68-2.48,11.19,11.19,0,0,0-12.17.79c-.66.45-1.29,1-1.94,1.43a11.53,11.53,0,0,1-14.21,0c-.7-.51-1.38-1-2.09-1.54a11.56,11.56,0,0,0-14.12.68c-3.75,3.19-8,4.28-12.58,2.43a25.43,25.43,0,0,1-4.8-3.08,10.72,10.72,0,0,0-4.48-1.88,11.31,11.31,0,0,0-9,2c-.69.52-1.39,1-2.09,1.55a10.87,10.87,0,0,1-6.84,2.21v13.56A9.93,9.93,0,0,0,385.45,184.35Z"/><path class="cls-1" d="M387.93,128.22a11.52,11.52,0,0,1,13.46,0c1,.73,2,1.56,3.1,2.2a11.06,11.06,0,0,0,12.16-.17c.92-.57,1.75-1.27,2.63-1.9a11.52,11.52,0,0,1,13.77-.06c.65.47,1.31.94,1.94,1.44a11.62,11.62,0,0,0,14.06,0c.67-.54,1.38-1.05,2.09-1.55a11.49,11.49,0,0,1,13.23-.06c.71.49,1.4,1,2.09,1.54a11.63,11.63,0,0,0,9.71,2.18,12.29,12.29,0,0,0,5.21-2.69,12.62,12.62,0,0,1,5.92-2.91,11.49,11.49,0,0,1,8.81,2c.67.5,1.36,1,2,1.5a11.62,11.62,0,0,0,14.22-.08c.53-.43,1.08-.83,1.63-1.23a11.59,11.59,0,0,1,14.15.1,22.53,22.53,0,0,0,4.2,2.68,10.91,10.91,0,0,0,10.75-1c1-.67,2-1.47,3-2.17a11.51,11.51,0,0,1,13,0c.41.28.8.58,1.2.88,3.08,2.36,4.15,2.79,8,3.17V118.35a9.33,9.33,0,0,1-5.32-1.28c-1.27-.77-2.45-1.68-3.66-2.54a11.5,11.5,0,0,0-13.3-.11c-.89.61-1.74,1.29-2.63,1.91a11.48,11.48,0,0,1-13.15,0c-1-.67-1.88-1.41-2.85-2.07a11.49,11.49,0,0,0-12.77,0c-1,.69-2,1.48-3,2.18a11.49,11.49,0,0,1-12.77,0c-.95-.64-1.84-1.36-2.78-2a11.42,11.42,0,0,0-13.22,0c-1,.67-1.88,1.41-2.86,2.07a11.49,11.49,0,0,1-12.85-.08c-.94-.65-1.83-1.38-2.78-2a11.44,11.44,0,0,0-13.15.06c-.89.62-1.73,1.3-2.62,1.92a11.52,11.52,0,0,1-13.08,0c-.87-.6-1.68-1.26-2.54-1.87a11.48,11.48,0,0,0-13.23-.13c-1,.66-1.88,1.41-2.86,2.07a11.5,11.5,0,0,1-12.92,0c-.94-.65-1.84-1.37-2.78-2a11.48,11.48,0,0,0-12.92-.08c-1.13.76-2.19,1.62-3.32,2.37a9.79,9.79,0,0,1-6.07,1.66v13.75a10.75,10.75,0,0,0,6.77-2.16C386.38,129.35,387.14,128.77,387.93,128.22Z"/><path class="cls-1" d="M395.91,98.8a11,11,0,0,1,5.4,2c.78.56,1.54,1.15,2.32,1.71a11.45,11.45,0,0,0,13.53,0c.71-.5,1.39-1,2.09-1.54a11.5,11.5,0,0,1,13.92,0c.73.53,1.43,1.08,2.17,1.6a11.48,11.48,0,0,0,13.23.08c.94-.65,1.83-1.38,2.78-2a11.47,11.47,0,0,1,12.92,0c.82.56,1.58,1.19,2.39,1.76a11.52,11.52,0,0,0,14.36-.37c1.85-1.43,3.72-2.8,6.11-3.16a11.48,11.48,0,0,1,8.92,1.9c.85.62,1.68,1.27,2.54,1.87a11.5,11.5,0,0,0,13.15,0c.86-.6,1.69-1.26,2.55-1.87a11.49,11.49,0,0,1,13.39,0c.81.57,1.58,1.19,2.39,1.76a11.48,11.48,0,0,0,13.38,0c.78-.55,1.53-1.16,2.32-1.71a11.52,11.52,0,0,1,13.69.08l1.19.89a11.65,11.65,0,0,0,7.63,2.91V91.17a10,10,0,0,1-5.71-1.51c-1-.66-2-1.42-3-2.15a11.49,11.49,0,0,0-13.91,0c-.73.53-1.43,1.08-2.16,1.6a11.5,11.5,0,0,1-13.31,0c-.79-.55-1.54-1.15-2.32-1.71a11.47,11.47,0,0,0-13.61-.07c-.78.55-1.53,1.16-2.32,1.71a11.5,11.5,0,0,1-13.46,0c-1-.7-1.91-1.49-2.94-2.11a11.23,11.23,0,0,0-12.05-.11c-1.07.61-2,1.44-3,2.16a11.48,11.48,0,0,1-13.61,0c-.76-.54-1.48-1.11-2.24-1.65a11.46,11.46,0,0,0-13.38-.1c-1,.67-1.88,1.42-2.86,2.07a11.52,11.52,0,0,1-12.69,0c-1-.67-1.94-1.44-2.93-2.12a11.46,11.46,0,0,0-13.08.07c-.84.58-1.64,1.22-2.47,1.81a11.49,11.49,0,0,1-13.38.06c-.79-.55-1.54-1.15-2.32-1.71a11.47,11.47,0,0,0-13.54-.08c-.56.39-1.11.79-1.64,1.22a11.6,11.6,0,0,1-7.45,2.68v13.56a11.88,11.88,0,0,0,7.81-3A12,12,0,0,1,395.91,98.8Z"/><path class="cls-1" d="M386.79,156.08a12.26,12.26,0,0,1,5.14-2.67,11.49,11.49,0,0,1,9.45,1.86c.95.69,1.85,1.46,2.86,2.06a11.25,11.25,0,0,0,12.37,0c1-.6,1.9-1.38,2.86-2.06a11.49,11.49,0,0,1,13.46,0c1.06.75,2.05,1.62,3.18,2.25a11.23,11.23,0,0,0,12.05-.15c1-.6,1.91-1.37,2.86-2.06a11.5,11.5,0,0,1,13.61,0,30.68,30.68,0,0,0,3.26,2.3,11.27,11.27,0,0,0,12.05-.4c.86-.54,1.65-1.21,2.47-1.81a11.47,11.47,0,0,1,13.91,0c.55.4,1.09.81,1.64,1.22a11.49,11.49,0,0,0,14.43,0c1.84-1.37,3.64-2.8,6-3.23a11.51,11.51,0,0,1,9.35,1.91c.67.5,1.34,1,2,1.49a11.5,11.5,0,0,0,14.06,0c.77-.57,1.53-1.16,2.32-1.7a11.51,11.51,0,0,1,12.85,0c.13.09.26.17.38.26,2.62,2.06,5.3,4,8.91,3.76V145.69a9.45,9.45,0,0,1-5.5-1.36c-1.18-.73-2.29-1.58-3.42-2.4a11.49,11.49,0,0,0-13.46-.1c-.78.55-1.53,1.15-2.31,1.71a11.51,11.51,0,0,1-13.77-.09c-.75-.55-1.48-1.12-2.24-1.65a11.48,11.48,0,0,0-13.23,0c-1.06.75-2.05,1.62-3.17,2.26a11.26,11.26,0,0,1-12.06,0c-1.06-.62-2-1.44-3-2.16a11.47,11.47,0,0,0-13.46,0c-.78.55-1.53,1.16-2.32,1.71a11.5,11.5,0,0,1-13.46,0c-.73-.52-1.44-1.08-2.16-1.6a11.45,11.45,0,0,0-13.83,0c-.6.44-1.19.89-1.79,1.33a11.52,11.52,0,0,1-14.14,0c-.58-.42-1.14-.85-1.71-1.27a11.45,11.45,0,0,0-14.05,0c-.6.44-1.19.89-1.79,1.33a11.5,11.5,0,0,1-13.91,0c-.73-.53-1.43-1.08-2.17-1.6a11.47,11.47,0,0,0-13.38,0c-1.08.77-2.13,1.6-3.25,2.31a9.09,9.09,0,0,1-5.82,1.46v13.56c.73-.09,1.47-.15,2.2-.27A12.46,12.46,0,0,0,386.79,156.08Z"/><path class="cls-1" d="M399.05,18.24a15.74,15.74,0,0,1,3.44,2.15,13.82,13.82,0,0,0,4.7,2.53,11.63,11.63,0,0,0,10.94-2.41,11.77,11.77,0,0,1,10.69-2.83,16.26,16.26,0,0,1,4,1.73,25.05,25.05,0,0,1,2.48,1.79,11.53,11.53,0,0,0,13.39.08c.81-.56,1.59-1.19,2.39-1.76a11.5,11.5,0,0,1,13.83.27,15.65,15.65,0,0,0,5.32,3.1,12.07,12.07,0,0,0,11.29-2.48,11.81,11.81,0,0,1,5.46-2.81,11.59,11.59,0,0,1,9.26,2c.75.55,1.48,1.12,2.24,1.66a11.49,11.49,0,0,0,13.39,0c.81-.57,1.59-1.18,2.4-1.75a11.45,11.45,0,0,1,13.89.36c2.12,1.64,4.31,3.09,7.08,3.4a11.89,11.89,0,0,0,9-2.49c1.81-1.41,3.63-2.8,6-3.18a11.62,11.62,0,0,1,9.17,1.94c.27.2.56.39.82.6a12,12,0,0,0,8.12,3.2V9.8A10.41,10.41,0,0,1,562.14,8c-.87-.59-1.7-1.23-2.55-1.86a11.51,11.51,0,0,0-14-.06c-.68.49-1.33,1-2,1.49a11.51,11.51,0,0,1-13.84-.13c-.7-.51-1.38-1.05-2.09-1.55A11.49,11.49,0,0,0,514.12,6c-.73.52-1.44,1.08-2.17,1.6a11.49,11.49,0,0,1-13.61,0c-.55-.4-1.09-.81-1.64-1.22-4.72-3.51-10-3.51-14.73.07-2.09,1.59-4.21,3-6.94,3.29a11.44,11.44,0,0,1-8-2c-.81-.57-1.59-1.19-2.39-1.76A11.48,11.48,0,0,0,451,6c-.71.5-1.38,1-2.09,1.55a11.5,11.5,0,0,1-13.84,0c-.51-.36-1-.74-1.49-1.11-4.75-3.56-9.95-3.58-14.73,0-1.69,1.26-3.34,2.58-5.46,3.06a11.56,11.56,0,0,1-9.95-1.94c-.57-.43-1.13-.86-1.71-1.28a11.51,11.51,0,0,0-14.29,0c-1.84,1.36-3.62,2.85-6,3.26-.88.15-1.78.21-2.67.31V23.41A13,13,0,0,0,387,20.14,11.44,11.44,0,0,1,399.05,18.24Z"/><path class="cls-1" d="M385.14,75.68c.87-.59,1.7-1.24,2.55-1.86a11.52,11.52,0,0,1,13.69-.12c1,.69,1.91,1.5,2.94,2.11a11.24,11.24,0,0,0,12.29-.06c1-.62,1.95-1.42,2.94-2.11a11.52,11.52,0,0,1,13.31,0c.91.64,1.78,1.34,2.7,2a11.47,11.47,0,0,0,13-.08c1.12-.77,2.16-1.67,3.34-2.34a11.2,11.2,0,0,1,12.59.49c1.13.75,2.16,1.69,3.34,2.34a11.23,11.23,0,0,0,11.74-.12A27,27,0,0,0,482.12,74a11.54,11.54,0,0,1,14.44,0c.67.5,1.33,1,2,1.49a11.45,11.45,0,0,0,13.15,0c.92-.63,1.78-1.34,2.7-2a11.5,11.5,0,0,1,13.08,0c.84.58,1.63,1.22,2.47,1.82a11.48,11.48,0,0,0,13.46,0c.86-.6,1.68-1.26,2.55-1.86a11.54,11.54,0,0,1,13.08,0c.36.25.72.49,1.05.76,2.35,1.93,4.91,3.34,8.15,3.21V63.93a9.85,9.85,0,0,1-5.9-1.61c-1.22-.79-2.35-1.71-3.56-2.52a10.77,10.77,0,0,0-10.25-1.11,17.77,17.77,0,0,0-4.39,2.69,11.91,11.91,0,0,1-10.78,2.13c-2.19-.56-3.86-2.05-5.62-3.36a11.53,11.53,0,0,0-12.81-.51c-1.09.7-2.13,1.49-3.16,2.28a11.68,11.68,0,0,1-13.16,0c-.94-.71-1.87-1.42-2.85-2.08a11.44,11.44,0,0,0-13.27.34c-.72.54-1.43,1.09-2.16,1.6a11.57,11.57,0,0,1-13.47,0,28.16,28.16,0,0,0-4.73-3,10.89,10.89,0,0,0-10.37.85,26.4,26.4,0,0,0-2.71,2,11.71,11.71,0,0,1-14,.05c-.78-.61-1.56-1.23-2.39-1.76a11.34,11.34,0,0,0-12.13-.49,29.68,29.68,0,0,0-3.24,2.31,11.51,11.51,0,0,1-13.77,0c-.65-.47-1.31-.93-1.93-1.45a11.58,11.58,0,0,0-13.81-.06c-.92.73-1.88,1.42-2.86,2.07a9.71,9.71,0,0,1-6.07,1.65V77.47A9.83,9.83,0,0,0,385.14,75.68Z"/><path class="cls-1" d="M392.21,44.54a11.6,11.6,0,0,1,9.4,2.09c.71.55,1.43,1.09,2.16,1.6a11.46,11.46,0,0,0,13.3,0c1-.73,2-1.57,3.1-2.21a11.25,11.25,0,0,1,12.21.09c1.19.72,2.22,1.69,3.41,2.41a11.2,11.2,0,0,0,12.37,0c1-.59,1.85-1.34,2.78-2a11.5,11.5,0,0,1,13.62,0c.71.5,1.39,1,2.09,1.55a11.47,11.47,0,0,0,13.91,0c.63-.46,1.23-.93,1.86-1.39a11.51,11.51,0,0,1,13.84,0c.58.41,1.14.85,1.71,1.27a11.47,11.47,0,0,0,14.36,0c.57-.42,1.14-.86,1.71-1.27a11.51,11.51,0,0,1,13.62-.12c.84.58,1.63,1.23,2.47,1.82a11.47,11.47,0,0,0,13.23,0c1.09-.76,2.1-1.65,3.25-2.31a11.29,11.29,0,0,1,12,.09,16.41,16.41,0,0,1,2,1.45,11.58,11.58,0,0,0,7.62,2.85V36.91a10.17,10.17,0,0,1-5.81-1.57c-1-.67-2-1.43-3-2.15a11.5,11.5,0,0,0-13.69,0c-.73.52-1.44,1.07-2.17,1.59a11.51,11.51,0,0,1-13.54,0c-1-.71-2-1.53-3-2.15a11.27,11.27,0,0,0-12.14,0c-1.06.63-2,1.44-3,2.15a11.56,11.56,0,0,1-13.32,0c-.53-.37-1.07-.74-1.56-1.16a11.84,11.84,0,0,0-15.21,0,12.19,12.19,0,0,1-5.52,2.93,11.54,11.54,0,0,1-9.36-1.85c-.88-.63-1.73-1.3-2.63-1.91a11.5,11.5,0,0,0-12.69-.12c-1.08.72-2.09,1.55-3.17,2.27a11.53,11.53,0,0,1-12.77,0c-1-.69-2-1.48-3-2.16a11.55,11.55,0,0,0-12.86.06,30.5,30.5,0,0,1-5,3.15A10.93,10.93,0,0,1,404,35c-1.11-.73-2.12-1.63-3.26-2.31a11.33,11.33,0,0,0-12.45.1,16,16,0,0,0-1.81,1.3A12,12,0,0,1,378.84,37V50.35a11.74,11.74,0,0,0,7.52-2.74A12.8,12.8,0,0,1,392.21,44.54Z"/><path class="cls-2" d="M387.93,87.32a11.47,11.47,0,0,1,13.54.08c.78.56,1.53,1.16,2.32,1.71A11.49,11.49,0,0,0,417.16,89c.83-.59,1.63-1.23,2.47-1.81a11.46,11.46,0,0,1,13.08-.07c1,.68,1.93,1.45,2.93,2.12a11.52,11.52,0,0,0,12.69,0c1-.65,1.89-1.4,2.86-2.07a11.46,11.46,0,0,1,13.38.1c.76.54,1.48,1.12,2.24,1.65a11.48,11.48,0,0,0,13.61,0c1-.72,2-1.55,3-2.16a11.23,11.23,0,0,1,12.05.11c1,.62,2,1.41,2.94,2.11a11.5,11.5,0,0,0,13.46,0c.78-.55,1.53-1.16,2.32-1.71a11.47,11.47,0,0,1,13.61.07c.78.56,1.53,1.16,2.32,1.71a11.5,11.5,0,0,0,13.31,0c.73-.52,1.44-1.07,2.16-1.6a11.49,11.49,0,0,1,13.91,0c1,.73,2,1.49,3,2.15a10,10,0,0,0,5.71,1.51V77.51c-3.23.14-5.79-1.28-8.15-3.21-.33-.27-.7-.52-1.05-.76a11.54,11.54,0,0,0-13.08,0c-.86.6-1.68,1.26-2.55,1.86a11.48,11.48,0,0,1-13.46,0c-.83-.59-1.63-1.24-2.47-1.82a11.5,11.5,0,0,0-13.08,0c-.92.63-1.79,1.33-2.7,2a11.45,11.45,0,0,1-13.15,0c-.69-.47-1.34-1-2-1.49a11.54,11.54,0,0,0-14.44,0,27,27,0,0,1-2.56,1.84,11.23,11.23,0,0,1-11.74.12c-1.18-.66-2.21-1.59-3.34-2.34a11.2,11.2,0,0,0-12.59-.49c-1.18.67-2.22,1.57-3.34,2.34a11.47,11.47,0,0,1-13,.08c-.92-.62-1.79-1.33-2.7-2a11.52,11.52,0,0,0-13.31,0c-1,.69-1.91,1.49-2.94,2.11a11.24,11.24,0,0,1-12.29.06c-1-.61-2-1.41-2.94-2.11a11.52,11.52,0,0,0-13.69.12c-.85.62-1.68,1.28-2.55,1.86a9.83,9.83,0,0,1-6.3,1.79V91.22a11.6,11.6,0,0,0,7.45-2.68C386.82,88.11,387.37,87.71,387.93,87.32Z"/><path class="cls-2" d="M387.78,169a11.31,11.31,0,0,1,9-2,10.72,10.72,0,0,1,4.48,1.88,25.43,25.43,0,0,0,4.8,3.08c4.63,1.85,8.84.76,12.58-2.43a11.56,11.56,0,0,1,14.12-.68c.71.49,1.39,1,2.09,1.54a11.53,11.53,0,0,0,14.21,0c.65-.47,1.28-1,1.94-1.43a11.19,11.19,0,0,1,12.17-.79,28.72,28.72,0,0,1,3.68,2.48,10.83,10.83,0,0,0,10.57,1.47,21.39,21.39,0,0,0,5.1-3.14,11.66,11.66,0,0,1,12.67-.6c1.15.72,2.21,1.59,3.33,2.37a11.52,11.52,0,0,0,13.23,0c1-.71,2-1.49,3-2.17a11.55,11.55,0,0,1,12.9.39,23.59,23.59,0,0,0,3.9,2.65,11,11,0,0,0,11.45-.7c1.16-.77,2.2-1.72,3.41-2.4a11.42,11.42,0,0,1,13.15.68c1.06.75,2.08,1.56,3.19,2.23a9.68,9.68,0,0,0,5.46,1.36V159.08c-3.61.23-6.29-1.7-8.91-3.76-.12-.1-.25-.18-.38-.26a11.51,11.51,0,0,0-12.85,0c-.79.54-1.55,1.13-2.32,1.7a11.5,11.5,0,0,1-14.06,0c-.68-.49-1.34-1-2-1.49a11.51,11.51,0,0,0-9.35-1.91c-2.34.44-4.14,1.86-6,3.23a11.49,11.49,0,0,1-14.43,0c-.55-.4-1.09-.82-1.64-1.22a11.47,11.47,0,0,0-13.91,0c-.83.6-1.61,1.26-2.47,1.81a11.27,11.27,0,0,1-12.05.4,30.68,30.68,0,0,1-3.26-2.3,11.5,11.5,0,0,0-13.61,0c-1,.68-1.86,1.45-2.86,2.06a11.23,11.23,0,0,1-12.05.15c-1.12-.64-2.11-1.51-3.18-2.25a11.49,11.49,0,0,0-13.46,0c-1,.68-1.86,1.46-2.86,2.06a11.25,11.25,0,0,1-12.37,0c-1-.6-1.91-1.37-2.86-2.06a11.49,11.49,0,0,0-9.45-1.86,12.26,12.26,0,0,0-5.14,2.67,12.46,12.46,0,0,1-5.75,2.86c-.73.11-1.47.18-2.2.27v13.56a10.87,10.87,0,0,0,6.84-2.21C386.38,170,387.09,169.54,387.78,169Z"/><path class="cls-2" d="M384.66,144.19c1.13-.7,2.17-1.54,3.25-2.31a11.47,11.47,0,0,1,13.38,0c.73.52,1.44,1.07,2.17,1.6a11.5,11.5,0,0,0,13.91,0c.6-.43,1.19-.89,1.79-1.33a11.45,11.45,0,0,1,14.05,0c.58.42,1.14.85,1.71,1.27a11.52,11.52,0,0,0,14.14,0c.6-.44,1.19-.89,1.79-1.33a11.45,11.45,0,0,1,13.83,0c.73.53,1.43,1.09,2.16,1.6a11.5,11.5,0,0,0,13.46,0c.78-.55,1.53-1.15,2.32-1.71a11.47,11.47,0,0,1,13.46,0c1,.71,2,1.53,3,2.16a11.26,11.26,0,0,0,12.06,0c1.12-.65,2.11-1.52,3.17-2.26a11.48,11.48,0,0,1,13.23,0c.76.53,1.49,1.11,2.24,1.65a11.51,11.51,0,0,0,13.77.09c.78-.56,1.53-1.16,2.31-1.71a11.49,11.49,0,0,1,13.46.1c1.13.81,2.23,1.67,3.42,2.4a9.45,9.45,0,0,0,5.5,1.36V132.15c-3.84-.38-4.91-.81-8-3.17-.39-.3-.79-.6-1.2-.88a11.51,11.51,0,0,0-13,0c-1,.69-2,1.49-3,2.17a10.91,10.91,0,0,1-10.75,1,22.53,22.53,0,0,1-4.2-2.68,11.59,11.59,0,0,0-14.15-.1c-.55.4-1.1.8-1.63,1.23a11.62,11.62,0,0,1-14.22.08c-.65-.53-1.34-1-2-1.5a11.49,11.49,0,0,0-8.81-2,12.62,12.62,0,0,0-5.92,2.91,12.29,12.29,0,0,1-5.21,2.69,11.63,11.63,0,0,1-9.71-2.18c-.69-.53-1.38-1.05-2.09-1.54a11.49,11.49,0,0,0-13.23.06c-.71.5-1.41,1-2.09,1.55a11.62,11.62,0,0,1-14.06,0c-.63-.51-1.28-1-1.94-1.44a11.52,11.52,0,0,0-13.77.06c-.88.63-1.71,1.34-2.63,1.9a11.06,11.06,0,0,1-12.16.17c-1.09-.63-2.07-1.46-3.1-2.2a11.52,11.52,0,0,0-13.46,0c-.79.55-1.55,1.14-2.32,1.71a10.75,10.75,0,0,1-6.77,2.16v13.56A9.09,9.09,0,0,0,384.66,144.19Z"/><path class="cls-2" d="M384.91,116.68c1.13-.75,2.2-1.61,3.32-2.37a11.48,11.48,0,0,1,12.92.08c.94.65,1.84,1.37,2.78,2a11.5,11.5,0,0,0,12.92,0c1-.66,1.88-1.41,2.86-2.07a11.48,11.48,0,0,1,13.23.13c.86.61,1.68,1.27,2.54,1.87a11.52,11.52,0,0,0,13.08,0c.89-.62,1.73-1.3,2.62-1.92a11.44,11.44,0,0,1,13.15-.06c.94.65,1.83,1.37,2.78,2a11.49,11.49,0,0,0,12.85.08c1-.66,1.89-1.4,2.86-2.07a11.42,11.42,0,0,1,13.22,0c.94.66,1.83,1.38,2.78,2a11.49,11.49,0,0,0,12.77,0c1-.7,2-1.49,3-2.18a11.49,11.49,0,0,1,12.77,0c1,.66,1.89,1.4,2.85,2.07a11.48,11.48,0,0,0,13.15,0c.89-.62,1.73-1.3,2.63-1.91a11.5,11.5,0,0,1,13.3.11c1.21.86,2.39,1.77,3.66,2.54a9.33,9.33,0,0,0,5.32,1.28V104.79a11.65,11.65,0,0,1-7.63-2.91l-1.19-.89a11.52,11.52,0,0,0-13.69-.08c-.78.55-1.53,1.16-2.32,1.71a11.48,11.48,0,0,1-13.38,0c-.81-.57-1.58-1.19-2.39-1.76a11.49,11.49,0,0,0-13.39,0c-.86.61-1.68,1.27-2.55,1.87a11.5,11.5,0,0,1-13.15,0c-.86-.6-1.7-1.25-2.54-1.87a11.48,11.48,0,0,0-8.92-1.9c-2.39.36-4.26,1.73-6.11,3.16a11.52,11.52,0,0,1-14.36.37c-.81-.57-1.57-1.2-2.39-1.76a11.47,11.47,0,0,0-12.92,0c-.94.65-1.83,1.37-2.78,2a11.48,11.48,0,0,1-13.23-.08c-.73-.52-1.44-1.07-2.17-1.6a11.5,11.5,0,0,0-13.92,0c-.7.51-1.38,1-2.09,1.54a11.45,11.45,0,0,1-13.53,0c-.78-.56-1.54-1.15-2.32-1.71a11,11,0,0,0-5.4-2,12,12,0,0,0-9.26,3,11.88,11.88,0,0,1-7.81,3v13.56A9.79,9.79,0,0,0,384.91,116.68Z"/><path class="cls-2" d="M384.91,62.26c1-.65,1.93-1.34,2.86-2.07a11.58,11.58,0,0,1,13.81.06c.62.52,1.28,1,1.93,1.45a11.51,11.51,0,0,0,13.77,0,29.68,29.68,0,0,1,3.24-2.31,11.34,11.34,0,0,1,12.13.49c.83.54,1.62,1.15,2.39,1.76a11.71,11.71,0,0,0,14-.05,26.4,26.4,0,0,1,2.71-2,10.89,10.89,0,0,1,10.37-.85,28.16,28.16,0,0,1,4.73,3,11.57,11.57,0,0,0,13.47,0c.73-.52,1.44-1.07,2.16-1.6a11.44,11.44,0,0,1,13.27-.34c1,.66,1.91,1.37,2.85,2.08a11.68,11.68,0,0,0,13.16,0c1-.79,2.07-1.58,3.16-2.28a11.53,11.53,0,0,1,12.81.51c1.76,1.31,3.43,2.8,5.62,3.36a11.91,11.91,0,0,0,10.78-2.13,17.77,17.77,0,0,1,4.39-2.69A10.77,10.77,0,0,1,558.8,59.8c1.21.81,2.34,1.73,3.56,2.52a9.85,9.85,0,0,0,5.9,1.61V50.32a11.58,11.58,0,0,1-7.62-2.85,16.41,16.41,0,0,0-2-1.45,11.29,11.29,0,0,0-12-.09c-1.15.65-2.16,1.55-3.25,2.31a11.47,11.47,0,0,1-13.23,0c-.84-.58-1.63-1.23-2.47-1.82a11.51,11.51,0,0,0-13.62.12c-.58.42-1.14.85-1.71,1.27a11.47,11.47,0,0,1-14.36,0c-.57-.42-1.14-.86-1.71-1.27a11.51,11.51,0,0,0-13.84,0c-.63.45-1.24.93-1.86,1.39a11.47,11.47,0,0,1-13.91,0c-.7-.51-1.38-1.05-2.09-1.55a11.5,11.5,0,0,0-13.62,0c-.93.67-1.81,1.42-2.78,2a11.2,11.2,0,0,1-12.37,0c-1.19-.72-2.22-1.69-3.41-2.41A11.25,11.25,0,0,0,420.18,46c-1.09.63-2.06,1.48-3.1,2.21a11.46,11.46,0,0,1-13.3,0c-.74-.51-1.45-1.06-2.16-1.6a11.6,11.6,0,0,0-9.4-2.09,12.8,12.8,0,0,0-5.85,3.06,11.74,11.74,0,0,1-7.52,2.74V63.91A9.71,9.71,0,0,0,384.91,62.26Z"/><path class="cls-2" d="M388.32,32.82a11.33,11.33,0,0,1,12.45-.1c1.14.68,2.15,1.57,3.26,2.31a10.93,10.93,0,0,0,10.71,1,30.5,30.5,0,0,0,5-3.15,11.55,11.55,0,0,1,12.86-.06c1,.69,2,1.47,3,2.16a11.53,11.53,0,0,0,12.77,0c1.08-.72,2.09-1.55,3.17-2.27a11.5,11.5,0,0,1,12.69.12c.89.61,1.75,1.28,2.63,1.91a11.54,11.54,0,0,0,9.36,1.85,12.19,12.19,0,0,0,5.52-2.93,11.84,11.84,0,0,1,15.21,0c.49.42,1,.79,1.56,1.16a11.56,11.56,0,0,0,13.32,0c1-.71,2-1.53,3-2.15a11.27,11.27,0,0,1,12.14,0c1.07.62,2,1.44,3,2.15a11.51,11.51,0,0,0,13.54,0c.73-.52,1.44-1.08,2.17-1.59a11.5,11.5,0,0,1,13.69,0c1,.72,2,1.48,3,2.15a10.17,10.17,0,0,0,5.81,1.57V23.34a12,12,0,0,1-8.12-3.2c-.26-.22-.55-.4-.82-.6a11.62,11.62,0,0,0-9.17-1.94c-2.37.38-4.18,1.77-6,3.18a11.89,11.89,0,0,1-9,2.49c-2.78-.3-5-1.76-7.08-3.4a11.45,11.45,0,0,0-13.89-.36c-.81.56-1.59,1.18-2.4,1.75a11.49,11.49,0,0,1-13.39,0c-.76-.53-1.49-1.1-2.24-1.66a11.59,11.59,0,0,0-9.26-2,11.81,11.81,0,0,0-5.46,2.81,12.07,12.07,0,0,1-11.29,2.48,15.65,15.65,0,0,1-5.32-3.1A11.5,11.5,0,0,0,451,19.52c-.81.57-1.58,1.19-2.39,1.76a11.53,11.53,0,0,1-13.39-.08,25.05,25.05,0,0,0-2.48-1.79,16.26,16.26,0,0,0-4-1.73,11.77,11.77,0,0,0-10.69,2.83,11.63,11.63,0,0,1-10.94,2.41,13.82,13.82,0,0,1-4.7-2.53,15.74,15.74,0,0,0-3.44-2.15,11.44,11.44,0,0,0-12,1.9,13,13,0,0,1-8.19,3.27V37a12,12,0,0,0,7.67-2.85A16,16,0,0,1,388.32,32.82Z"/><path class="cls-2" d="M568.26,186.38c-3.27.14-5.84-1.32-8.22-3.26-.22-.18-.44-.34-.67-.5a11.5,11.5,0,0,0-13.61,0c-.93.66-1.81,1.42-2.79,2a11.27,11.27,0,0,1-12.45,0c-1.08-.65-2-1.5-3.09-2.22a11.49,11.49,0,0,0-13,0c-1,.7-2,1.53-3,2.17a11.27,11.27,0,0,1-12.45,0c-1.08-.65-2.05-1.49-3.09-2.22a11.45,11.45,0,0,0-9.21-1.7c-2.37.47-4.17,2-6,3.34a11.49,11.49,0,0,1-14.06,0c-.65-.47-1.28-1-1.94-1.44a11.51,11.51,0,0,0-13.76,0c-.63.45-1.24.93-1.86,1.39a11.5,11.5,0,0,1-14.07,0c-.7-.51-1.38-1-2.09-1.55a11.5,11.5,0,0,0-13.3,0c-.89.62-1.73,1.31-2.62,1.92a11.46,11.46,0,0,1-13.08,0c-.92-.63-1.78-1.34-2.7-2a11.51,11.51,0,0,0-13.15.07c-.86.6-1.68,1.26-2.54,1.87a9.93,9.93,0,0,1-6.61,2v3.9H568.26Z"/><path class="cls-2" d="M387.48,6.28a11.51,11.51,0,0,1,14.29,0c.57.42,1.14.85,1.71,1.28a11.56,11.56,0,0,0,9.95,1.94c2.12-.48,3.77-1.8,5.46-3.06,4.78-3.55,10-3.52,14.73,0,.5.37,1,.75,1.49,1.11a11.5,11.5,0,0,0,13.84,0c.71-.5,1.38-1,2.09-1.55a11.48,11.48,0,0,1,13.61,0c.81.58,1.59,1.19,2.39,1.76a11.44,11.44,0,0,0,8,2c2.73-.26,4.85-1.69,6.94-3.29,4.7-3.58,10-3.59,14.73-.07.55.41,1.09.82,1.64,1.22a11.49,11.49,0,0,0,13.61,0c.73-.52,1.44-1.07,2.17-1.6a11.49,11.49,0,0,1,13.53-.11c.71.5,1.39,1,2.09,1.55a11.51,11.51,0,0,0,13.84.13c.68-.48,1.34-1,2-1.49a11.51,11.51,0,0,1,14,.06c.85.62,1.68,1.27,2.55,1.86a10.41,10.41,0,0,0,6.13,1.76V0H378.84V9.85c.89-.1,1.79-.15,2.67-.31C383.86,9.13,385.64,7.64,387.48,6.28Z"/><path class="cls-1" d="M196,184.35c.86-.61,1.68-1.27,2.54-1.87a11.51,11.51,0,0,1,13.15-.07c.92.63,1.78,1.34,2.7,2a11.46,11.46,0,0,0,13.08,0c.9-.61,1.74-1.29,2.62-1.92a11.5,11.5,0,0,1,13.3,0c.71.5,1.39,1,2.09,1.55a11.5,11.5,0,0,0,14.07,0c.63-.46,1.23-.93,1.86-1.39a11.51,11.51,0,0,1,13.76,0c.66.47,1.29,1,1.94,1.44a11.49,11.49,0,0,0,14.06,0c1.87-1.38,3.66-2.87,6-3.34a11.45,11.45,0,0,1,9.21,1.7c1,.73,2,1.56,3.09,2.22a11.27,11.27,0,0,0,12.45,0c1.05-.64,2-1.47,3-2.17a11.49,11.49,0,0,1,13,0c1,.71,2,1.56,3.09,2.22a11.27,11.27,0,0,0,12.45,0c1-.59,1.85-1.34,2.79-2a11.5,11.5,0,0,1,13.61,0c.23.16.46.32.67.5,2.38,1.94,4.95,3.4,8.22,3.26V172.75a9.68,9.68,0,0,1-5.46-1.36c-1.11-.67-2.13-1.48-3.19-2.23a11.42,11.42,0,0,0-13.15-.68c-1.2.68-2.25,1.63-3.41,2.4a11,11,0,0,1-11.45.7,23.59,23.59,0,0,1-3.9-2.65,11.55,11.55,0,0,0-12.9-.39c-1,.68-2,1.47-3,2.17a11.52,11.52,0,0,1-13.23,0c-1.12-.78-2.17-1.65-3.33-2.37a11.66,11.66,0,0,0-12.67.6,21.39,21.39,0,0,1-5.1,3.14,10.83,10.83,0,0,1-10.57-1.47,28.72,28.72,0,0,0-3.68-2.48,11.19,11.19,0,0,0-12.17.79c-.66.45-1.29,1-1.94,1.43a11.53,11.53,0,0,1-14.21,0c-.7-.51-1.38-1-2.09-1.54a11.56,11.56,0,0,0-14.12.68c-3.75,3.19-8,4.28-12.58,2.43a25.42,25.42,0,0,1-4.8-3.08A10.72,10.72,0,0,0,207.4,167a11.31,11.31,0,0,0-9,2c-.69.52-1.39,1-2.09,1.55a10.87,10.87,0,0,1-6.84,2.21v13.56A9.93,9.93,0,0,0,196,184.35Z"/><path class="cls-1" d="M198.5,128.22a11.52,11.52,0,0,1,13.46,0c1,.73,2,1.56,3.1,2.2a11.06,11.06,0,0,0,12.16-.17c.92-.57,1.75-1.27,2.63-1.9a11.52,11.52,0,0,1,13.77-.06c.65.47,1.31.94,1.94,1.44a11.62,11.62,0,0,0,14.06,0c.67-.54,1.38-1.05,2.09-1.55a11.49,11.49,0,0,1,13.23-.06c.71.49,1.4,1,2.09,1.54a11.63,11.63,0,0,0,9.71,2.18,12.29,12.29,0,0,0,5.21-2.69,12.62,12.62,0,0,1,5.92-2.91,11.49,11.49,0,0,1,8.81,2c.67.5,1.36,1,2,1.5a11.62,11.62,0,0,0,14.22-.08c.53-.43,1.08-.83,1.63-1.23a11.59,11.59,0,0,1,14.15.1,22.53,22.53,0,0,0,4.2,2.68,10.91,10.91,0,0,0,10.75-1c1-.67,2-1.47,3-2.17a11.51,11.51,0,0,1,13,0c.41.28.8.58,1.2.88,3.08,2.36,4.15,2.79,8,3.17V118.35a9.33,9.33,0,0,1-5.32-1.28c-1.27-.77-2.45-1.68-3.66-2.54a11.5,11.5,0,0,0-13.3-.11c-.89.61-1.74,1.29-2.63,1.91a11.48,11.48,0,0,1-13.15,0c-1-.67-1.88-1.41-2.85-2.07a11.49,11.49,0,0,0-12.77,0c-1,.69-2,1.48-3,2.18a11.49,11.49,0,0,1-12.77,0c-.95-.64-1.84-1.36-2.78-2a11.42,11.42,0,0,0-13.22,0c-1,.67-1.88,1.41-2.86,2.07a11.49,11.49,0,0,1-12.85-.08c-.94-.65-1.83-1.38-2.78-2a11.44,11.44,0,0,0-13.15.06c-.89.62-1.73,1.3-2.62,1.92a11.52,11.52,0,0,1-13.08,0c-.87-.6-1.68-1.26-2.54-1.87a11.48,11.48,0,0,0-13.23-.13c-1,.66-1.88,1.41-2.86,2.07a11.5,11.5,0,0,1-12.92,0c-.94-.65-1.84-1.37-2.78-2a11.48,11.48,0,0,0-12.92-.08c-1.13.76-2.19,1.62-3.32,2.37a9.79,9.79,0,0,1-6.07,1.66v13.75a10.75,10.75,0,0,0,6.77-2.16C197,129.35,197.72,128.77,198.5,128.22Z"/><path class="cls-1" d="M206.49,98.8a11,11,0,0,1,5.4,2c.78.56,1.54,1.15,2.32,1.71a11.45,11.45,0,0,0,13.53,0c.71-.5,1.39-1,2.09-1.54a11.5,11.5,0,0,1,13.92,0c.73.53,1.43,1.08,2.17,1.6a11.48,11.48,0,0,0,13.23.08c.94-.65,1.83-1.38,2.78-2a11.47,11.47,0,0,1,12.92,0c.82.56,1.58,1.19,2.39,1.76a11.52,11.52,0,0,0,14.36-.37c1.85-1.43,3.72-2.8,6.11-3.16a11.48,11.48,0,0,1,8.92,1.9c.85.62,1.68,1.27,2.54,1.87a11.5,11.5,0,0,0,13.15,0c.86-.6,1.69-1.26,2.55-1.87a11.49,11.49,0,0,1,13.39,0c.81.57,1.58,1.19,2.39,1.76a11.48,11.48,0,0,0,13.38,0c.78-.55,1.53-1.16,2.31-1.71A11.52,11.52,0,0,1,370,101l1.19.89a11.65,11.65,0,0,0,7.63,2.91V91.17a10,10,0,0,1-5.71-1.51c-1-.66-2-1.42-3-2.15a11.49,11.49,0,0,0-13.91,0c-.73.53-1.43,1.08-2.17,1.6a11.5,11.5,0,0,1-13.31,0c-.79-.55-1.54-1.15-2.32-1.71a11.47,11.47,0,0,0-13.61-.07c-.78.55-1.53,1.16-2.32,1.71A11.5,11.5,0,0,1,309,89c-1-.7-1.91-1.49-2.94-2.11A11.23,11.23,0,0,0,294,86.83c-1.07.61-2,1.44-3,2.16a11.48,11.48,0,0,1-13.61,0c-.76-.54-1.48-1.11-2.24-1.65a11.46,11.46,0,0,0-13.38-.1c-1,.67-1.88,1.42-2.86,2.07a11.52,11.52,0,0,1-12.69,0c-1-.67-1.94-1.44-2.93-2.12a11.46,11.46,0,0,0-13.08.07c-.84.58-1.64,1.22-2.47,1.81a11.49,11.49,0,0,1-13.38.06c-.79-.55-1.54-1.15-2.32-1.71a11.47,11.47,0,0,0-13.53-.08c-.56.39-1.11.79-1.64,1.22a11.6,11.6,0,0,1-7.45,2.68v13.56a11.88,11.88,0,0,0,7.81-3A12,12,0,0,1,206.49,98.8Z"/><path class="cls-1" d="M197.37,156.08a12.26,12.26,0,0,1,5.14-2.67,11.49,11.49,0,0,1,9.45,1.86c.95.69,1.85,1.46,2.86,2.06a11.25,11.25,0,0,0,12.37,0c1-.6,1.9-1.38,2.86-2.06a11.49,11.49,0,0,1,13.46,0c1.06.75,2.05,1.62,3.18,2.25a11.23,11.23,0,0,0,12.05-.15c1-.6,1.91-1.37,2.86-2.06a11.5,11.5,0,0,1,13.61,0,30.67,30.67,0,0,0,3.26,2.3,11.27,11.27,0,0,0,12.05-.4c.86-.54,1.65-1.21,2.47-1.81a11.47,11.47,0,0,1,13.91,0c.55.4,1.09.81,1.64,1.22a11.49,11.49,0,0,0,14.43,0c1.84-1.37,3.64-2.8,6-3.23a11.51,11.51,0,0,1,9.35,1.91c.67.5,1.34,1,2,1.49a11.5,11.5,0,0,0,14.06,0c.77-.57,1.53-1.16,2.32-1.7a11.51,11.51,0,0,1,12.85,0c.13.09.26.17.38.26,2.62,2.06,5.3,4,8.91,3.76V145.69a9.45,9.45,0,0,1-5.5-1.36c-1.18-.73-2.29-1.58-3.42-2.4a11.49,11.49,0,0,0-13.46-.1c-.78.55-1.53,1.15-2.31,1.71a11.51,11.51,0,0,1-13.77-.09c-.75-.55-1.48-1.12-2.24-1.65a11.48,11.48,0,0,0-13.23,0c-1.06.75-2.05,1.62-3.17,2.26a11.26,11.26,0,0,1-12.06,0c-1.06-.62-2-1.44-3-2.16a11.47,11.47,0,0,0-13.46,0c-.78.55-1.53,1.16-2.32,1.71a11.5,11.5,0,0,1-13.46,0c-.73-.52-1.44-1.08-2.16-1.6a11.45,11.45,0,0,0-13.83,0c-.6.44-1.19.89-1.79,1.33a11.52,11.52,0,0,1-14.14,0c-.58-.42-1.14-.85-1.71-1.27a11.45,11.45,0,0,0-14.05,0c-.6.44-1.19.89-1.79,1.33a11.5,11.5,0,0,1-13.91,0c-.73-.53-1.43-1.08-2.17-1.6a11.47,11.47,0,0,0-13.38,0c-1.08.77-2.13,1.6-3.25,2.31a9.09,9.09,0,0,1-5.82,1.46v13.56c.73-.09,1.47-.15,2.2-.27A12.46,12.46,0,0,0,197.37,156.08Z"/><path class="cls-1" d="M209.63,18.24a15.74,15.74,0,0,1,3.44,2.15,13.82,13.82,0,0,0,4.7,2.53,11.63,11.63,0,0,0,10.94-2.41,11.77,11.77,0,0,1,10.69-2.83,16.25,16.25,0,0,1,4,1.73,25.06,25.06,0,0,1,2.48,1.79,11.53,11.53,0,0,0,13.39.08c.81-.56,1.59-1.19,2.39-1.76a11.5,11.5,0,0,1,13.83.27,15.65,15.65,0,0,0,5.32,3.1,12.07,12.07,0,0,0,11.29-2.48,11.8,11.8,0,0,1,5.46-2.81,11.59,11.59,0,0,1,9.26,2c.75.55,1.48,1.12,2.24,1.66a11.49,11.49,0,0,0,13.39,0c.81-.57,1.59-1.18,2.4-1.75a11.45,11.45,0,0,1,13.89.36c2.12,1.64,4.31,3.09,7.08,3.4a11.89,11.89,0,0,0,9-2.49c1.81-1.41,3.63-2.8,6-3.18a11.62,11.62,0,0,1,9.17,1.94c.27.2.56.39.82.6a12,12,0,0,0,8.12,3.2V9.8A10.41,10.41,0,0,1,372.71,8c-.87-.59-1.7-1.23-2.55-1.86a11.51,11.51,0,0,0-14-.06c-.68.49-1.33,1-2,1.49a11.51,11.51,0,0,1-13.84-.13c-.7-.51-1.38-1.05-2.09-1.55A11.49,11.49,0,0,0,324.7,6c-.73.52-1.44,1.08-2.17,1.6a11.49,11.49,0,0,1-13.61,0c-.55-.4-1.09-.81-1.64-1.22-4.72-3.51-10-3.51-14.73.07-2.09,1.59-4.21,3-6.94,3.29a11.44,11.44,0,0,1-8-2C276.8,7.23,276,6.62,275.21,6A11.48,11.48,0,0,0,261.6,6c-.71.5-1.38,1-2.09,1.55a11.5,11.5,0,0,1-13.84,0c-.5-.36-1-.74-1.49-1.11-4.75-3.56-9.95-3.58-14.73,0C227.77,7.67,226.12,9,224,9.48A11.56,11.56,0,0,1,214,7.53c-.57-.43-1.13-.86-1.71-1.28a11.51,11.51,0,0,0-14.29,0c-1.84,1.36-3.62,2.85-6,3.26-.88.15-1.78.21-2.67.31V23.41a13,13,0,0,0,8.19-3.27A11.44,11.44,0,0,1,209.63,18.24Z"/><path class="cls-1" d="M195.72,75.68c.87-.59,1.7-1.24,2.55-1.86A11.52,11.52,0,0,1,212,73.69c1,.69,1.91,1.5,2.94,2.11a11.24,11.24,0,0,0,12.29-.06c1-.62,1.95-1.42,2.94-2.11a11.52,11.52,0,0,1,13.31,0c.91.64,1.78,1.34,2.7,2a11.47,11.47,0,0,0,13-.08c1.12-.77,2.16-1.67,3.34-2.34a11.2,11.2,0,0,1,12.59.49c1.13.75,2.16,1.69,3.34,2.34a11.23,11.23,0,0,0,11.74-.12A27,27,0,0,0,292.7,74a11.54,11.54,0,0,1,14.44,0c.67.5,1.33,1,2,1.49a11.45,11.45,0,0,0,13.15,0c.92-.63,1.78-1.34,2.7-2a11.5,11.5,0,0,1,13.08,0c.84.58,1.63,1.22,2.47,1.82a11.48,11.48,0,0,0,13.46,0c.86-.6,1.68-1.26,2.55-1.86a11.54,11.54,0,0,1,13.08,0c.36.25.72.49,1.05.76,2.35,1.93,4.91,3.34,8.15,3.21V63.93a9.85,9.85,0,0,1-5.9-1.61c-1.22-.79-2.35-1.71-3.56-2.52a10.77,10.77,0,0,0-10.25-1.11,17.77,17.77,0,0,0-4.39,2.69A11.91,11.91,0,0,1,344,63.51c-2.19-.56-3.86-2.05-5.62-3.36a11.53,11.53,0,0,0-12.81-.51c-1.09.7-2.13,1.49-3.16,2.28a11.68,11.68,0,0,1-13.16,0c-.94-.71-1.87-1.42-2.85-2.08a11.44,11.44,0,0,0-13.27.34c-.72.54-1.43,1.09-2.16,1.6a11.57,11.57,0,0,1-13.47,0,28.16,28.16,0,0,0-4.73-3,10.89,10.89,0,0,0-10.37.85,26.4,26.4,0,0,0-2.71,2,11.71,11.71,0,0,1-14,.05c-.78-.61-1.56-1.23-2.39-1.76a11.34,11.34,0,0,0-12.13-.49,29.67,29.67,0,0,0-3.24,2.31,11.51,11.51,0,0,1-13.77,0c-.65-.47-1.31-.93-1.93-1.45a11.58,11.58,0,0,0-13.81-.06c-.92.73-1.88,1.42-2.86,2.07a9.71,9.71,0,0,1-6.07,1.65V77.47A9.83,9.83,0,0,0,195.72,75.68Z"/><path class="cls-1" d="M202.79,44.54a11.6,11.6,0,0,1,9.4,2.09c.71.55,1.43,1.09,2.16,1.6a11.46,11.46,0,0,0,13.3,0c1-.73,2-1.57,3.1-2.21A11.25,11.25,0,0,1,243,46.1c1.19.72,2.22,1.69,3.41,2.41a11.2,11.2,0,0,0,12.37,0c1-.59,1.85-1.34,2.78-2a11.5,11.5,0,0,1,13.62,0c.71.5,1.39,1,2.09,1.55a11.47,11.47,0,0,0,13.91,0c.63-.46,1.23-.93,1.86-1.39a11.51,11.51,0,0,1,13.84,0c.58.41,1.14.85,1.71,1.27a11.47,11.47,0,0,0,14.36,0c.57-.42,1.14-.86,1.71-1.27a11.51,11.51,0,0,1,13.62-.12c.84.58,1.63,1.23,2.47,1.82a11.48,11.48,0,0,0,13.23,0c1.09-.76,2.1-1.65,3.25-2.31a11.29,11.29,0,0,1,12,.09,16.41,16.41,0,0,1,2,1.45,11.58,11.58,0,0,0,7.62,2.85V36.91A10.17,10.17,0,0,1,373,35.34c-1-.67-2-1.43-3-2.15a11.5,11.5,0,0,0-13.69,0c-.73.52-1.44,1.07-2.17,1.59a11.51,11.51,0,0,1-13.54,0c-1-.71-2-1.53-3-2.15a11.27,11.27,0,0,0-12.14,0c-1.06.63-2,1.44-3,2.15a11.56,11.56,0,0,1-13.32,0c-.53-.37-1.07-.74-1.56-1.16a11.84,11.84,0,0,0-15.21,0,12.19,12.19,0,0,1-5.52,2.93,11.54,11.54,0,0,1-9.36-1.85c-.88-.63-1.73-1.3-2.63-1.91a11.5,11.5,0,0,0-12.69-.12C261,33.49,260,34.32,259,35a11.53,11.53,0,0,1-12.77,0c-1-.69-2-1.48-3-2.16a11.55,11.55,0,0,0-12.86.06,30.5,30.5,0,0,1-5,3.15,10.93,10.93,0,0,1-10.71-1c-1.11-.73-2.12-1.63-3.26-2.31a11.33,11.33,0,0,0-12.45.1,16,16,0,0,0-1.81,1.3A12,12,0,0,1,189.42,37V50.35a11.74,11.74,0,0,0,7.52-2.74A12.79,12.79,0,0,1,202.79,44.54Z"/><path class="cls-2" d="M198.51,87.32A11.47,11.47,0,0,1,212,87.4c.78.56,1.53,1.16,2.32,1.71A11.49,11.49,0,0,0,227.74,89c.83-.59,1.63-1.23,2.47-1.81a11.46,11.46,0,0,1,13.08-.07c1,.68,1.93,1.45,2.93,2.12a11.52,11.52,0,0,0,12.69,0c1-.65,1.89-1.4,2.86-2.07a11.46,11.46,0,0,1,13.38.1c.76.54,1.48,1.12,2.24,1.65A11.48,11.48,0,0,0,291,89c1-.72,2-1.55,3-2.16a11.23,11.23,0,0,1,12.05.11c1,.62,2,1.41,2.94,2.11a11.5,11.5,0,0,0,13.46,0c.78-.55,1.53-1.16,2.32-1.71a11.47,11.47,0,0,1,13.61.07c.78.56,1.53,1.16,2.32,1.71a11.5,11.5,0,0,0,13.31,0c.73-.52,1.44-1.07,2.17-1.6a11.49,11.49,0,0,1,13.91,0c1,.73,2,1.49,3,2.15a10,10,0,0,0,5.71,1.51V77.51c-3.23.14-5.79-1.28-8.15-3.21-.33-.27-.7-.52-1.05-.76a11.54,11.54,0,0,0-13.08,0c-.86.6-1.68,1.26-2.55,1.86a11.48,11.48,0,0,1-13.46,0c-.83-.59-1.63-1.24-2.47-1.82a11.5,11.5,0,0,0-13.08,0c-.92.63-1.79,1.33-2.7,2a11.45,11.45,0,0,1-13.15,0c-.69-.47-1.34-1-2-1.49a11.54,11.54,0,0,0-14.44,0,27,27,0,0,1-2.56,1.84A11.23,11.23,0,0,1,278.4,76c-1.18-.66-2.21-1.59-3.34-2.34a11.2,11.2,0,0,0-12.59-.49c-1.18.67-2.22,1.57-3.34,2.34a11.47,11.47,0,0,1-13,.08c-.92-.62-1.79-1.33-2.7-2a11.52,11.52,0,0,0-13.31,0c-1,.69-1.91,1.49-2.94,2.11a11.24,11.24,0,0,1-12.29.06c-1-.61-2-1.41-2.94-2.11a11.52,11.52,0,0,0-13.69.12c-.85.62-1.68,1.28-2.55,1.86a9.83,9.83,0,0,1-6.3,1.79V91.22a11.6,11.6,0,0,0,7.45-2.68C197.39,88.11,197.95,87.71,198.51,87.32Z"/><path class="cls-2" d="M198.35,169a11.31,11.31,0,0,1,9-2,10.72,10.72,0,0,1,4.48,1.88,25.42,25.42,0,0,0,4.8,3.08c4.63,1.85,8.84.76,12.58-2.43a11.56,11.56,0,0,1,14.12-.68c.71.49,1.39,1,2.09,1.54a11.53,11.53,0,0,0,14.21,0c.65-.47,1.28-1,1.94-1.43a11.19,11.19,0,0,1,12.17-.79,28.72,28.72,0,0,1,3.68,2.48A10.83,10.83,0,0,0,288,172.1a21.39,21.39,0,0,0,5.1-3.14,11.66,11.66,0,0,1,12.67-.6c1.15.72,2.21,1.59,3.33,2.37a11.52,11.52,0,0,0,13.23,0c1-.71,2-1.49,3-2.17a11.55,11.55,0,0,1,12.9.39,23.59,23.59,0,0,0,3.9,2.65,11,11,0,0,0,11.45-.7c1.16-.77,2.2-1.72,3.41-2.4a11.42,11.42,0,0,1,13.15.68c1.06.75,2.08,1.56,3.19,2.23a9.68,9.68,0,0,0,5.46,1.36V159.08c-3.61.23-6.29-1.7-8.91-3.76-.12-.1-.25-.18-.38-.26a11.51,11.51,0,0,0-12.85,0c-.79.54-1.55,1.13-2.32,1.7a11.5,11.5,0,0,1-14.06,0c-.68-.49-1.34-1-2-1.49a11.51,11.51,0,0,0-9.35-1.91c-2.34.44-4.14,1.86-6,3.23a11.49,11.49,0,0,1-14.43,0c-.55-.4-1.09-.82-1.64-1.22a11.47,11.47,0,0,0-13.91,0c-.83.6-1.61,1.26-2.47,1.81a11.27,11.27,0,0,1-12.05.4,30.67,30.67,0,0,1-3.26-2.3,11.5,11.5,0,0,0-13.61,0c-1,.68-1.86,1.45-2.86,2.06a11.23,11.23,0,0,1-12.05.15c-1.12-.64-2.11-1.51-3.18-2.25a11.49,11.49,0,0,0-13.46,0c-1,.68-1.86,1.46-2.86,2.06a11.25,11.25,0,0,1-12.37,0c-1-.6-1.91-1.37-2.86-2.06a11.49,11.49,0,0,0-9.45-1.86,12.26,12.26,0,0,0-5.14,2.67,12.46,12.46,0,0,1-5.75,2.86c-.73.11-1.47.18-2.2.27v13.56a10.87,10.87,0,0,0,6.84-2.21C197,170,197.67,169.54,198.35,169Z"/><path class="cls-2" d="M195.24,144.19c1.13-.7,2.17-1.54,3.25-2.31a11.47,11.47,0,0,1,13.38,0c.73.52,1.44,1.07,2.17,1.6a11.5,11.5,0,0,0,13.91,0c.6-.43,1.19-.89,1.79-1.33a11.45,11.45,0,0,1,14.05,0c.58.42,1.14.85,1.71,1.27a11.52,11.52,0,0,0,14.14,0c.6-.44,1.19-.89,1.79-1.33a11.45,11.45,0,0,1,13.83,0c.73.53,1.43,1.09,2.16,1.6a11.5,11.5,0,0,0,13.46,0c.78-.55,1.53-1.15,2.32-1.71a11.47,11.47,0,0,1,13.46,0c1,.71,2,1.53,3,2.16a11.26,11.26,0,0,0,12.06,0c1.12-.65,2.11-1.52,3.17-2.26a11.48,11.48,0,0,1,13.23,0c.76.53,1.49,1.11,2.24,1.65a11.51,11.51,0,0,0,13.77.09c.78-.56,1.53-1.16,2.31-1.71a11.49,11.49,0,0,1,13.46.1c1.13.81,2.23,1.67,3.42,2.4a9.45,9.45,0,0,0,5.5,1.36V132.15c-3.84-.38-4.91-.81-8-3.17-.39-.3-.79-.6-1.2-.88a11.51,11.51,0,0,0-13,0c-1,.69-2,1.49-3,2.17a10.91,10.91,0,0,1-10.75,1,22.53,22.53,0,0,1-4.2-2.68,11.59,11.59,0,0,0-14.15-.1c-.55.4-1.11.8-1.63,1.23a11.62,11.62,0,0,1-14.22.08c-.65-.53-1.34-1-2-1.5a11.49,11.49,0,0,0-8.81-2,12.62,12.62,0,0,0-5.92,2.91,12.29,12.29,0,0,1-5.21,2.69,11.63,11.63,0,0,1-9.71-2.18c-.69-.53-1.38-1.05-2.09-1.54a11.49,11.49,0,0,0-13.23.06c-.71.5-1.41,1-2.09,1.55a11.62,11.62,0,0,1-14.06,0c-.63-.51-1.28-1-1.94-1.44a11.52,11.52,0,0,0-13.77.06c-.88.63-1.71,1.34-2.63,1.9a11.06,11.06,0,0,1-12.16.17c-1.09-.63-2.07-1.46-3.1-2.2a11.52,11.52,0,0,0-13.46,0c-.79.55-1.55,1.14-2.32,1.71a10.75,10.75,0,0,1-6.77,2.16v13.56A9.09,9.09,0,0,0,195.24,144.19Z"/><path class="cls-2" d="M195.49,116.68c1.13-.75,2.2-1.61,3.32-2.37a11.48,11.48,0,0,1,12.92.08c.94.65,1.84,1.37,2.78,2a11.5,11.5,0,0,0,12.92,0c1-.66,1.88-1.41,2.86-2.07a11.48,11.48,0,0,1,13.23.13c.86.61,1.68,1.27,2.54,1.87a11.52,11.52,0,0,0,13.08,0c.89-.62,1.73-1.3,2.62-1.92a11.44,11.44,0,0,1,13.15-.06c.94.65,1.83,1.37,2.78,2a11.49,11.49,0,0,0,12.85.08c1-.66,1.89-1.4,2.86-2.07a11.42,11.42,0,0,1,13.22,0c.94.66,1.83,1.38,2.78,2a11.49,11.49,0,0,0,12.77,0c1-.7,2-1.49,3-2.18a11.49,11.49,0,0,1,12.77,0c1,.66,1.89,1.4,2.85,2.07a11.48,11.48,0,0,0,13.15,0c.89-.62,1.73-1.3,2.63-1.91a11.5,11.5,0,0,1,13.3.11c1.21.86,2.39,1.77,3.66,2.54a9.33,9.33,0,0,0,5.32,1.28V104.79a11.65,11.65,0,0,1-7.63-2.91L370,101a11.52,11.52,0,0,0-13.69-.08c-.78.55-1.53,1.16-2.31,1.71a11.48,11.48,0,0,1-13.38,0c-.81-.57-1.58-1.19-2.39-1.76a11.49,11.49,0,0,0-13.39,0c-.86.61-1.68,1.27-2.55,1.87a11.5,11.5,0,0,1-13.15,0c-.86-.6-1.7-1.25-2.54-1.87a11.48,11.48,0,0,0-8.92-1.9c-2.39.36-4.26,1.73-6.11,3.16a11.52,11.52,0,0,1-14.36.37c-.81-.57-1.57-1.2-2.39-1.76a11.47,11.47,0,0,0-12.92,0c-.94.65-1.83,1.37-2.78,2a11.48,11.48,0,0,1-13.23-.08c-.73-.52-1.44-1.07-2.17-1.6a11.5,11.5,0,0,0-13.92,0c-.7.51-1.38,1-2.09,1.54a11.45,11.45,0,0,1-13.53,0c-.78-.56-1.54-1.15-2.32-1.71a11,11,0,0,0-5.4-2,12,12,0,0,0-9.26,3,11.88,11.88,0,0,1-7.81,3v13.56A9.79,9.79,0,0,0,195.49,116.68Z"/><path class="cls-2" d="M195.49,62.26c1-.65,1.93-1.34,2.86-2.07a11.58,11.58,0,0,1,13.81.06c.62.52,1.28,1,1.93,1.45a11.51,11.51,0,0,0,13.77,0,29.67,29.67,0,0,1,3.24-2.31,11.34,11.34,0,0,1,12.13.49c.83.54,1.62,1.15,2.39,1.76a11.71,11.71,0,0,0,14-.05,26.4,26.4,0,0,1,2.71-2,10.89,10.89,0,0,1,10.37-.85,28.16,28.16,0,0,1,4.73,3,11.57,11.57,0,0,0,13.47,0c.73-.52,1.44-1.07,2.16-1.6a11.44,11.44,0,0,1,13.27-.34c1,.66,1.91,1.37,2.85,2.08a11.68,11.68,0,0,0,13.16,0c1-.79,2.07-1.58,3.16-2.28a11.53,11.53,0,0,1,12.81.51c1.76,1.31,3.43,2.8,5.62,3.36a11.91,11.91,0,0,0,10.78-2.13,17.77,17.77,0,0,1,4.39-2.69,10.77,10.77,0,0,1,10.25,1.11c1.21.81,2.34,1.73,3.56,2.52a9.85,9.85,0,0,0,5.9,1.61V50.32a11.58,11.58,0,0,1-7.62-2.85,16.41,16.41,0,0,0-2-1.45,11.29,11.29,0,0,0-12-.09c-1.15.65-2.16,1.55-3.25,2.31a11.48,11.48,0,0,1-13.23,0c-.84-.58-1.63-1.23-2.47-1.82a11.51,11.51,0,0,0-13.62.12c-.58.42-1.14.85-1.71,1.27a11.47,11.47,0,0,1-14.36,0c-.57-.42-1.14-.86-1.71-1.27a11.51,11.51,0,0,0-13.84,0c-.63.45-1.24.93-1.86,1.39a11.47,11.47,0,0,1-13.91,0c-.7-.51-1.38-1.05-2.09-1.55a11.5,11.5,0,0,0-13.62,0c-.93.67-1.81,1.42-2.78,2a11.2,11.2,0,0,1-12.37,0c-1.19-.72-2.22-1.69-3.41-2.41A11.25,11.25,0,0,0,230.76,46c-1.09.63-2.06,1.48-3.1,2.21a11.46,11.46,0,0,1-13.3,0c-.74-.51-1.45-1.06-2.16-1.6a11.6,11.6,0,0,0-9.4-2.09,12.79,12.79,0,0,0-5.85,3.06,11.74,11.74,0,0,1-7.52,2.74V63.91A9.71,9.71,0,0,0,195.49,62.26Z"/><path class="cls-2" d="M198.9,32.82a11.33,11.33,0,0,1,12.45-.1c1.14.68,2.15,1.57,3.26,2.31a10.93,10.93,0,0,0,10.71,1,30.5,30.5,0,0,0,5-3.15,11.55,11.55,0,0,1,12.86-.06c1,.69,2,1.47,3,2.16A11.53,11.53,0,0,0,259,35c1.08-.72,2.09-1.55,3.17-2.27a11.5,11.5,0,0,1,12.69.12c.89.61,1.75,1.28,2.63,1.91a11.54,11.54,0,0,0,9.36,1.85,12.19,12.19,0,0,0,5.52-2.93,11.84,11.84,0,0,1,15.21,0c.49.42,1,.79,1.56,1.16a11.56,11.56,0,0,0,13.32,0c1-.71,2-1.53,3-2.15a11.27,11.27,0,0,1,12.14,0c1.07.62,2,1.44,3,2.15a11.51,11.51,0,0,0,13.54,0c.73-.52,1.44-1.08,2.17-1.59a11.5,11.5,0,0,1,13.69,0c1,.72,2,1.48,3,2.15a10.17,10.17,0,0,0,5.81,1.57V23.34a12,12,0,0,1-8.12-3.2c-.26-.22-.55-.4-.82-.6a11.62,11.62,0,0,0-9.17-1.94c-2.37.38-4.18,1.77-6,3.18a11.89,11.89,0,0,1-9,2.49c-2.78-.3-5-1.76-7.08-3.4a11.45,11.45,0,0,0-13.89-.36c-.81.56-1.59,1.18-2.4,1.75a11.49,11.49,0,0,1-13.39,0c-.76-.53-1.49-1.1-2.24-1.66a11.59,11.59,0,0,0-9.26-2,11.8,11.8,0,0,0-5.46,2.81,12.07,12.07,0,0,1-11.29,2.48,15.65,15.65,0,0,1-5.32-3.1,11.5,11.5,0,0,0-13.83-.27c-.81.57-1.58,1.19-2.39,1.76a11.53,11.53,0,0,1-13.39-.08,25.06,25.06,0,0,0-2.48-1.79,16.25,16.25,0,0,0-4-1.73,11.77,11.77,0,0,0-10.69,2.83,11.63,11.63,0,0,1-10.94,2.41,13.82,13.82,0,0,1-4.7-2.53,15.74,15.74,0,0,0-3.44-2.15,11.44,11.44,0,0,0-12,1.9,13,13,0,0,1-8.19,3.27V37a12,12,0,0,0,7.67-2.85A16,16,0,0,1,198.9,32.82Z"/><path class="cls-2" d="M378.84,186.38c-3.27.14-5.84-1.32-8.22-3.26-.22-.18-.44-.34-.67-.5a11.5,11.5,0,0,0-13.61,0c-.93.66-1.81,1.42-2.79,2a11.27,11.27,0,0,1-12.45,0c-1.08-.65-2-1.5-3.09-2.22a11.49,11.49,0,0,0-13,0c-1,.7-2,1.53-3,2.17a11.27,11.27,0,0,1-12.45,0c-1.08-.65-2.05-1.49-3.09-2.22a11.45,11.45,0,0,0-9.21-1.7c-2.37.47-4.17,2-6,3.34a11.49,11.49,0,0,1-14.06,0c-.65-.47-1.28-1-1.94-1.44a11.51,11.51,0,0,0-13.76,0c-.63.45-1.24.93-1.86,1.39a11.5,11.5,0,0,1-14.07,0c-.7-.51-1.38-1-2.09-1.55a11.5,11.5,0,0,0-13.3,0c-.89.62-1.73,1.31-2.62,1.92a11.46,11.46,0,0,1-13.08,0c-.92-.63-1.78-1.34-2.7-2a11.51,11.51,0,0,0-13.15.07c-.86.6-1.68,1.26-2.54,1.87a9.93,9.93,0,0,1-6.61,2v3.9H378.84Z"/><path class="cls-2" d="M198.05,6.28a11.51,11.51,0,0,1,14.29,0c.57.42,1.14.85,1.71,1.28A11.56,11.56,0,0,0,224,9.48c2.12-.48,3.77-1.8,5.46-3.06,4.78-3.55,10-3.52,14.73,0,.5.37,1,.75,1.49,1.11a11.5,11.5,0,0,0,13.84,0c.71-.5,1.38-1,2.09-1.55a11.48,11.48,0,0,1,13.61,0c.81.58,1.59,1.19,2.39,1.76a11.44,11.44,0,0,0,8,2c2.73-.26,4.85-1.69,6.94-3.29,4.7-3.58,10-3.59,14.73-.07.55.41,1.09.82,1.64,1.22a11.49,11.49,0,0,0,13.61,0c.73-.52,1.44-1.07,2.17-1.6a11.49,11.49,0,0,1,13.53-.11c.71.5,1.39,1,2.09,1.55a11.51,11.51,0,0,0,13.84.13c.68-.48,1.34-1,2-1.49a11.51,11.51,0,0,1,14,.06c.85.62,1.68,1.27,2.55,1.86a10.41,10.41,0,0,0,6.13,1.76V0H189.42V9.85c.89-.1,1.79-.15,2.67-.31C194.44,9.13,196.21,7.64,198.05,6.28Z"/><path class="cls-1" d="M6.61,184.35c.86-.61,1.68-1.27,2.54-1.87a11.51,11.51,0,0,1,13.15-.07c.92.63,1.78,1.34,2.7,2a11.46,11.46,0,0,0,13.08,0c.9-.61,1.74-1.29,2.62-1.92a11.5,11.5,0,0,1,13.3,0c.71.5,1.39,1,2.09,1.55a11.5,11.5,0,0,0,14.07,0c.63-.46,1.23-.93,1.86-1.39a11.51,11.51,0,0,1,13.76,0c.66.47,1.29,1,1.94,1.44a11.49,11.49,0,0,0,14.06,0c1.87-1.38,3.66-2.87,6-3.34a11.45,11.45,0,0,1,9.21,1.7c1,.73,2,1.56,3.09,2.22a11.27,11.27,0,0,0,12.45,0c1.05-.64,2-1.47,3-2.17a11.49,11.49,0,0,1,13,0c1,.71,2,1.56,3.09,2.22a11.27,11.27,0,0,0,12.45,0c1-.59,1.85-1.34,2.79-2a11.5,11.5,0,0,1,13.61,0c.23.16.46.32.67.5,2.38,1.94,4.95,3.4,8.22,3.26V172.75a9.68,9.68,0,0,1-5.46-1.36c-1.11-.67-2.13-1.48-3.19-2.23a11.42,11.42,0,0,0-13.15-.68c-1.2.68-2.25,1.63-3.41,2.4a11,11,0,0,1-11.45.7,23.59,23.59,0,0,1-3.9-2.65,11.55,11.55,0,0,0-12.9-.39c-1,.68-2,1.47-3,2.17a11.52,11.52,0,0,1-13.23,0c-1.12-.78-2.17-1.65-3.33-2.37a11.66,11.66,0,0,0-12.67.6,21.39,21.39,0,0,1-5.1,3.14,10.83,10.83,0,0,1-10.57-1.47,28.72,28.72,0,0,0-3.68-2.48,11.19,11.19,0,0,0-12.17.79c-.66.45-1.29,1-1.94,1.43a11.53,11.53,0,0,1-14.21,0c-.7-.51-1.38-1-2.09-1.54a11.56,11.56,0,0,0-14.12.68c-3.75,3.19-8,4.28-12.58,2.43a25.42,25.42,0,0,1-4.8-3.08A10.72,10.72,0,0,0,18,167a11.31,11.31,0,0,0-9,2c-.69.52-1.39,1-2.09,1.55A10.87,10.87,0,0,1,0,172.78v13.56A9.93,9.93,0,0,0,6.61,184.35Z"/><path class="cls-1" d="M9.08,128.22a11.52,11.52,0,0,1,13.46,0c1,.73,2,1.56,3.1,2.2a11.06,11.06,0,0,0,12.16-.17c.92-.57,1.75-1.27,2.63-1.9a11.52,11.52,0,0,1,13.77-.06c.65.47,1.31.94,1.94,1.44a11.62,11.62,0,0,0,14.06,0c.67-.54,1.38-1.05,2.09-1.55a11.49,11.49,0,0,1,13.23-.06c.71.49,1.4,1,2.09,1.54a11.63,11.63,0,0,0,9.71,2.18,12.29,12.29,0,0,0,5.21-2.69,12.62,12.62,0,0,1,5.92-2.91,11.49,11.49,0,0,1,8.81,2c.67.5,1.36,1,2,1.5a11.62,11.62,0,0,0,14.22-.08c.53-.43,1.08-.83,1.63-1.23a11.59,11.59,0,0,1,14.15.1,22.53,22.53,0,0,0,4.2,2.68,10.91,10.91,0,0,0,10.75-1c1-.67,2-1.47,3-2.17a11.51,11.51,0,0,1,13,0c.41.28.8.58,1.2.88,3.08,2.36,4.15,2.79,8,3.17V118.35a9.33,9.33,0,0,1-5.32-1.28c-1.27-.77-2.45-1.68-3.66-2.54a11.5,11.5,0,0,0-13.3-.11c-.89.61-1.74,1.29-2.63,1.91a11.48,11.48,0,0,1-13.15,0c-1-.67-1.88-1.41-2.85-2.07a11.49,11.49,0,0,0-12.77,0c-1,.69-2,1.48-3,2.18a11.49,11.49,0,0,1-12.77,0c-.95-.64-1.84-1.36-2.78-2a11.42,11.42,0,0,0-13.22,0c-1,.67-1.88,1.41-2.86,2.07a11.49,11.49,0,0,1-12.85-.08c-.94-.65-1.83-1.38-2.78-2a11.44,11.44,0,0,0-13.15.06c-.89.62-1.73,1.3-2.62,1.92a11.52,11.52,0,0,1-13.08,0c-.87-.6-1.68-1.26-2.54-1.87a11.48,11.48,0,0,0-13.23-.13c-1,.66-1.88,1.41-2.86,2.07a11.5,11.5,0,0,1-12.92,0c-.94-.65-1.84-1.37-2.78-2a11.48,11.48,0,0,0-12.92-.08c-1.13.76-2.19,1.62-3.32,2.37A9.79,9.79,0,0,1,0,118.34v13.75a10.75,10.75,0,0,0,6.77-2.16C7.54,129.35,8.3,128.77,9.08,128.22Z"/><path class="cls-1" d="M17.07,98.8a11,11,0,0,1,5.4,2c.78.56,1.54,1.15,2.32,1.71a11.45,11.45,0,0,0,13.53,0c.71-.5,1.39-1,2.09-1.54a11.5,11.5,0,0,1,13.92,0c.73.53,1.43,1.08,2.17,1.6a11.48,11.48,0,0,0,13.23.08c.94-.65,1.83-1.38,2.78-2a11.47,11.47,0,0,1,12.92,0c.82.56,1.58,1.19,2.39,1.76a11.52,11.52,0,0,0,14.36-.37c1.85-1.43,3.72-2.8,6.11-3.16a11.48,11.48,0,0,1,8.92,1.9c.85.62,1.68,1.27,2.54,1.87a11.5,11.5,0,0,0,13.15,0c.86-.6,1.69-1.26,2.55-1.87a11.49,11.49,0,0,1,13.39,0c.81.57,1.58,1.19,2.39,1.76a11.48,11.48,0,0,0,13.38,0c.78-.55,1.53-1.16,2.31-1.71a11.52,11.52,0,0,1,13.69.08l1.19.89a11.65,11.65,0,0,0,7.63,2.91V91.17a10,10,0,0,1-5.71-1.51c-1-.66-2-1.42-3-2.15a11.49,11.49,0,0,0-13.91,0c-.73.53-1.43,1.08-2.16,1.6a11.5,11.5,0,0,1-13.31,0c-.79-.55-1.54-1.15-2.32-1.71a11.47,11.47,0,0,0-13.61-.07c-.78.55-1.53,1.16-2.32,1.71a11.5,11.5,0,0,1-13.46,0c-1-.7-1.91-1.49-2.94-2.11a11.23,11.23,0,0,0-12.05-.11c-1.07.61-2,1.44-3,2.16A11.48,11.48,0,0,1,88,89c-.76-.54-1.48-1.11-2.24-1.65a11.46,11.46,0,0,0-13.38-.1c-1,.67-1.88,1.42-2.86,2.07a11.52,11.52,0,0,1-12.69,0c-1-.67-1.94-1.44-2.93-2.12a11.46,11.46,0,0,0-13.08.07c-.84.58-1.64,1.22-2.47,1.81a11.49,11.49,0,0,1-13.38.06c-.79-.55-1.54-1.15-2.32-1.71a11.47,11.47,0,0,0-13.53-.08c-.56.39-1.11.79-1.64,1.22A11.6,11.6,0,0,1,0,91.22v13.56a11.88,11.88,0,0,0,7.81-3A12,12,0,0,1,17.07,98.8Z"/><path class="cls-1" d="M7.95,156.08a12.26,12.26,0,0,1,5.14-2.67,11.49,11.49,0,0,1,9.45,1.86c.95.69,1.85,1.46,2.86,2.06a11.25,11.25,0,0,0,12.37,0c1-.6,1.9-1.38,2.86-2.06a11.49,11.49,0,0,1,13.46,0c1.06.75,2.05,1.62,3.18,2.25a11.23,11.23,0,0,0,12.05-.15c1-.6,1.91-1.37,2.86-2.06a11.5,11.5,0,0,1,13.61,0,30.67,30.67,0,0,0,3.26,2.3,11.27,11.27,0,0,0,12.05-.4c.86-.54,1.65-1.21,2.47-1.81a11.47,11.47,0,0,1,13.91,0c.55.4,1.09.81,1.64,1.22a11.49,11.49,0,0,0,14.43,0c1.84-1.37,3.64-2.8,6-3.23a11.51,11.51,0,0,1,9.35,1.91c.67.5,1.34,1,2,1.49a11.5,11.5,0,0,0,14.06,0c.77-.57,1.53-1.16,2.32-1.7a11.51,11.51,0,0,1,12.85,0c.13.09.26.17.38.26,2.62,2.06,5.3,4,8.91,3.76V145.69a9.45,9.45,0,0,1-5.5-1.36c-1.18-.73-2.29-1.58-3.42-2.4a11.49,11.49,0,0,0-13.46-.1c-.78.55-1.53,1.15-2.31,1.71a11.51,11.51,0,0,1-13.77-.09c-.75-.55-1.48-1.12-2.24-1.65a11.48,11.48,0,0,0-13.23,0c-1.06.75-2.05,1.62-3.17,2.26a11.26,11.26,0,0,1-12.06,0c-1.06-.62-2-1.44-3-2.16a11.47,11.47,0,0,0-13.46,0c-.78.55-1.53,1.16-2.32,1.71a11.5,11.5,0,0,1-13.46,0c-.73-.52-1.44-1.08-2.16-1.6A11.45,11.45,0,0,0,72,142c-.6.44-1.19.89-1.79,1.33a11.52,11.52,0,0,1-14.14,0c-.58-.42-1.14-.85-1.71-1.27a11.45,11.45,0,0,0-14.05,0c-.6.44-1.19.89-1.79,1.33a11.5,11.5,0,0,1-13.91,0c-.73-.53-1.43-1.08-2.17-1.6a11.47,11.47,0,0,0-13.38,0c-1.08.77-2.13,1.6-3.25,2.31A9.09,9.09,0,0,1,0,145.65v13.56c.73-.09,1.47-.15,2.2-.27A12.46,12.46,0,0,0,7.95,156.08Z"/><path class="cls-1" d="M20.21,18.24a15.74,15.74,0,0,1,3.44,2.15,13.82,13.82,0,0,0,4.7,2.53,11.63,11.63,0,0,0,10.94-2.41A11.77,11.77,0,0,1,50,17.68a16.25,16.25,0,0,1,4,1.73,25.06,25.06,0,0,1,2.48,1.79,11.53,11.53,0,0,0,13.39.08c.81-.56,1.59-1.19,2.39-1.76A11.5,11.5,0,0,1,86,19.79a15.65,15.65,0,0,0,5.32,3.1,12.07,12.07,0,0,0,11.29-2.48,11.8,11.8,0,0,1,5.46-2.81,11.59,11.59,0,0,1,9.26,2c.75.55,1.48,1.12,2.24,1.66a11.49,11.49,0,0,0,13.39,0c.81-.57,1.59-1.18,2.4-1.75a11.45,11.45,0,0,1,13.89.36c2.12,1.64,4.31,3.09,7.08,3.4a11.89,11.89,0,0,0,9-2.49c1.81-1.41,3.63-2.8,6-3.18a11.62,11.62,0,0,1,9.17,1.94c.27.2.56.39.82.6a12,12,0,0,0,8.12,3.2V9.8A10.41,10.41,0,0,1,183.29,8c-.87-.59-1.7-1.23-2.55-1.86a11.51,11.51,0,0,0-14-.06c-.68.49-1.33,1-2,1.49a11.51,11.51,0,0,1-13.84-.13c-.7-.51-1.38-1.05-2.09-1.55A11.49,11.49,0,0,0,135.28,6c-.73.52-1.44,1.08-2.17,1.6a11.49,11.49,0,0,1-13.61,0c-.55-.4-1.09-.81-1.64-1.22-4.72-3.51-10-3.51-14.73.07-2.09,1.59-4.21,3-6.94,3.29a11.44,11.44,0,0,1-8-2C87.38,7.23,86.6,6.62,85.79,6A11.48,11.48,0,0,0,72.18,6c-.71.5-1.38,1-2.09,1.55a11.5,11.5,0,0,1-13.84,0c-.5-.36-1-.74-1.49-1.11C50,2.89,44.82,2.87,40,6.42,38.34,7.67,36.7,9,34.58,9.48a11.56,11.56,0,0,1-9.95-1.94c-.57-.43-1.13-.86-1.71-1.28a11.51,11.51,0,0,0-14.29,0C6.79,7.64,5,9.13,2.67,9.54c-.88.15-1.78.21-2.67.31V23.41a13,13,0,0,0,8.19-3.27A11.44,11.44,0,0,1,20.21,18.24Z"/><path class="cls-1" d="M6.3,75.68c.87-.59,1.7-1.24,2.55-1.86a11.52,11.52,0,0,1,13.69-.12c1,.69,1.91,1.5,2.94,2.11a11.24,11.24,0,0,0,12.29-.06c1-.62,1.95-1.42,2.94-2.11a11.52,11.52,0,0,1,13.31,0c.91.64,1.78,1.34,2.7,2a11.47,11.47,0,0,0,13-.08c1.12-.77,2.16-1.67,3.34-2.34a11.2,11.2,0,0,1,12.59.49c1.13.75,2.16,1.69,3.34,2.34a11.23,11.23,0,0,0,11.74-.12A27,27,0,0,0,103.28,74a11.54,11.54,0,0,1,14.44,0c.67.5,1.33,1,2,1.49a11.45,11.45,0,0,0,13.15,0c.92-.63,1.78-1.34,2.7-2a11.5,11.5,0,0,1,13.08,0c.84.58,1.63,1.22,2.47,1.82a11.48,11.48,0,0,0,13.46,0c.86-.6,1.68-1.26,2.55-1.86a11.54,11.54,0,0,1,13.08,0c.36.25.72.49,1.05.76,2.35,1.93,4.91,3.34,8.15,3.21V63.93a9.85,9.85,0,0,1-5.9-1.61c-1.22-.79-2.35-1.71-3.56-2.52a10.77,10.77,0,0,0-10.25-1.11,17.77,17.77,0,0,0-4.39,2.69,11.91,11.91,0,0,1-10.78,2.13c-2.19-.56-3.86-2.05-5.62-3.36a11.53,11.53,0,0,0-12.81-.51c-1.09.7-2.13,1.49-3.16,2.28a11.68,11.68,0,0,1-13.16,0c-.94-.71-1.87-1.42-2.85-2.08a11.44,11.44,0,0,0-13.27.34c-.72.54-1.43,1.09-2.16,1.6a11.57,11.57,0,0,1-13.47,0,28.16,28.16,0,0,0-4.73-3,10.89,10.89,0,0,0-10.37.85,26.4,26.4,0,0,0-2.71,2,11.71,11.71,0,0,1-14,.05c-.78-.61-1.56-1.23-2.39-1.76a11.34,11.34,0,0,0-12.13-.49,29.67,29.67,0,0,0-3.24,2.31,11.51,11.51,0,0,1-13.77,0c-.65-.47-1.32-.93-1.93-1.45A11.58,11.58,0,0,0,8.93,60.2c-.92.73-1.88,1.42-2.86,2.07A9.71,9.71,0,0,1,0,63.91V77.47A9.83,9.83,0,0,0,6.3,75.68Z"/><path class="cls-1" d="M13.37,44.54a11.6,11.6,0,0,1,9.4,2.09c.71.55,1.43,1.09,2.16,1.6a11.46,11.46,0,0,0,13.3,0c1-.73,2-1.57,3.1-2.21a11.25,11.25,0,0,1,12.21.09c1.19.72,2.22,1.69,3.41,2.41a11.2,11.2,0,0,0,12.37,0c1-.59,1.85-1.34,2.78-2a11.5,11.5,0,0,1,13.62,0c.71.5,1.39,1,2.09,1.55a11.47,11.47,0,0,0,13.91,0c.63-.46,1.23-.93,1.86-1.39a11.51,11.51,0,0,1,13.84,0c.58.41,1.14.85,1.71,1.27a11.47,11.47,0,0,0,14.36,0c.57-.42,1.14-.86,1.71-1.27a11.51,11.51,0,0,1,13.62-.12c.84.58,1.63,1.23,2.47,1.82a11.48,11.48,0,0,0,13.23,0c1.09-.76,2.1-1.65,3.25-2.31a11.29,11.29,0,0,1,12,.09,16.41,16.41,0,0,1,2,1.45,11.58,11.58,0,0,0,7.62,2.85V36.91a10.17,10.17,0,0,1-5.81-1.57c-1-.67-2-1.43-3-2.15a11.5,11.5,0,0,0-13.69,0c-.73.52-1.44,1.07-2.17,1.59a11.51,11.51,0,0,1-13.54,0c-1-.71-2-1.53-3-2.15a11.27,11.27,0,0,0-12.14,0c-1.06.63-2,1.44-3,2.15a11.56,11.56,0,0,1-13.32,0c-.53-.37-1.07-.74-1.56-1.16a11.84,11.84,0,0,0-15.21,0,12.19,12.19,0,0,1-5.52,2.93A11.54,11.54,0,0,1,88,34.81c-.88-.63-1.73-1.3-2.63-1.91a11.5,11.5,0,0,0-12.69-.12c-1.08.72-2.09,1.55-3.17,2.27a11.53,11.53,0,0,1-12.77,0c-1-.69-2-1.48-3-2.16a11.55,11.55,0,0,0-12.86.06,30.5,30.5,0,0,1-5,3.15,10.93,10.93,0,0,1-10.71-1c-1.11-.73-2.12-1.63-3.26-2.31a11.33,11.33,0,0,0-12.45.1,16,16,0,0,0-1.8,1.3A12,12,0,0,1,0,37V50.35A11.74,11.74,0,0,0,7.52,47.6,12.79,12.79,0,0,1,13.37,44.54Z"/><path class="cls-2" d="M9.08,87.32a11.47,11.47,0,0,1,13.53.08c.78.56,1.53,1.16,2.32,1.71A11.49,11.49,0,0,0,38.32,89c.83-.59,1.63-1.23,2.47-1.81a11.46,11.46,0,0,1,13.08-.07c1,.68,1.93,1.45,2.93,2.12a11.52,11.52,0,0,0,12.69,0c1-.65,1.89-1.4,2.86-2.07a11.46,11.46,0,0,1,13.38.1c.76.54,1.48,1.12,2.24,1.65a11.48,11.48,0,0,0,13.61,0c1-.72,2-1.55,3-2.16a11.23,11.23,0,0,1,12.05.11c1,.62,2,1.41,2.94,2.11a11.5,11.5,0,0,0,13.46,0c.78-.55,1.53-1.16,2.32-1.71a11.47,11.47,0,0,1,13.61.07c.78.56,1.53,1.16,2.32,1.71a11.5,11.5,0,0,0,13.31,0c.73-.52,1.44-1.07,2.16-1.6a11.49,11.49,0,0,1,13.91,0c1,.73,2,1.49,3,2.15a10,10,0,0,0,5.71,1.51V77.51c-3.23.14-5.79-1.28-8.15-3.21-.33-.27-.7-.52-1.05-.76a11.54,11.54,0,0,0-13.08,0c-.86.6-1.68,1.26-2.55,1.86a11.48,11.48,0,0,1-13.46,0c-.83-.59-1.63-1.24-2.47-1.82a11.5,11.5,0,0,0-13.08,0c-.92.63-1.79,1.33-2.7,2a11.45,11.45,0,0,1-13.15,0c-.69-.47-1.34-1-2-1.49a11.54,11.54,0,0,0-14.44,0,27,27,0,0,1-2.56,1.84A11.23,11.23,0,0,1,89,76c-1.18-.66-2.21-1.59-3.34-2.34a11.2,11.2,0,0,0-12.59-.49c-1.18.67-2.22,1.57-3.34,2.34a11.47,11.47,0,0,1-13,.08c-.92-.62-1.79-1.33-2.7-2a11.52,11.52,0,0,0-13.31,0c-1,.69-1.91,1.49-2.94,2.11a11.24,11.24,0,0,1-12.29.06c-1-.61-2-1.41-2.94-2.11a11.52,11.52,0,0,0-13.69.12c-.85.62-1.68,1.28-2.55,1.86A9.83,9.83,0,0,1,0,77.47V91.22a11.6,11.6,0,0,0,7.45-2.68C8,88.11,8.53,87.71,9.08,87.32Z"/><path class="cls-2" d="M8.93,169a11.31,11.31,0,0,1,9-2,10.72,10.72,0,0,1,4.48,1.88,25.42,25.42,0,0,0,4.8,3.08c4.63,1.85,8.84.76,12.58-2.43A11.56,11.56,0,0,1,54,168.82c.71.49,1.39,1,2.09,1.54a11.53,11.53,0,0,0,14.21,0c.65-.47,1.28-1,1.94-1.43a11.19,11.19,0,0,1,12.17-.79,28.72,28.72,0,0,1,3.68,2.48,10.83,10.83,0,0,0,10.57,1.47,21.39,21.39,0,0,0,5.1-3.14,11.66,11.66,0,0,1,12.67-.6c1.15.72,2.21,1.59,3.33,2.37a11.52,11.52,0,0,0,13.23,0c1-.71,2-1.49,3-2.17a11.55,11.55,0,0,1,12.9.39,23.59,23.59,0,0,0,3.9,2.65,11,11,0,0,0,11.45-.7c1.16-.77,2.2-1.72,3.41-2.4a11.42,11.42,0,0,1,13.15.68c1.06.75,2.08,1.56,3.19,2.23a9.68,9.68,0,0,0,5.46,1.36V159.08c-3.61.23-6.29-1.7-8.91-3.76-.12-.1-.25-.18-.38-.26a11.51,11.51,0,0,0-12.85,0c-.79.54-1.55,1.13-2.32,1.7a11.5,11.5,0,0,1-14.06,0c-.68-.49-1.34-1-2-1.49a11.51,11.51,0,0,0-9.35-1.91c-2.34.44-4.14,1.86-6,3.23a11.49,11.49,0,0,1-14.43,0c-.55-.4-1.09-.82-1.64-1.22a11.47,11.47,0,0,0-13.91,0c-.83.6-1.61,1.26-2.47,1.81a11.27,11.27,0,0,1-12.05.4,30.67,30.67,0,0,1-3.26-2.3,11.5,11.5,0,0,0-13.61,0c-1,.68-1.86,1.45-2.86,2.06a11.23,11.23,0,0,1-12.05.15c-1.12-.64-2.11-1.51-3.18-2.25a11.49,11.49,0,0,0-13.46,0c-1,.68-1.86,1.46-2.86,2.06a11.25,11.25,0,0,1-12.37,0c-1-.6-1.91-1.37-2.86-2.06a11.49,11.49,0,0,0-9.45-1.86,12.26,12.26,0,0,0-5.14,2.67,12.46,12.46,0,0,1-5.75,2.86c-.73.11-1.47.18-2.2.27v13.56a10.87,10.87,0,0,0,6.84-2.21C7.54,170,8.24,169.54,8.93,169Z"/><path class="cls-2" d="M5.82,144.19c1.13-.7,2.17-1.54,3.25-2.31a11.47,11.47,0,0,1,13.38,0c.73.52,1.44,1.07,2.17,1.6a11.5,11.5,0,0,0,13.91,0c.6-.43,1.19-.89,1.79-1.33a11.45,11.45,0,0,1,14.05,0c.58.42,1.14.85,1.71,1.27a11.52,11.52,0,0,0,14.14,0c.6-.44,1.19-.89,1.79-1.33a11.45,11.45,0,0,1,13.83,0c.73.53,1.43,1.09,2.16,1.6a11.5,11.5,0,0,0,13.46,0c.78-.55,1.53-1.15,2.32-1.71a11.47,11.47,0,0,1,13.46,0c1,.71,2,1.53,3,2.16a11.26,11.26,0,0,0,12.06,0c1.12-.65,2.11-1.52,3.17-2.26a11.48,11.48,0,0,1,13.23,0c.76.53,1.49,1.11,2.24,1.65a11.51,11.51,0,0,0,13.77.09c.78-.56,1.53-1.16,2.31-1.71a11.49,11.49,0,0,1,13.46.1c1.13.81,2.23,1.67,3.42,2.4a9.45,9.45,0,0,0,5.5,1.36V132.15c-3.84-.38-4.91-.81-8-3.17-.39-.3-.79-.6-1.2-.88a11.51,11.51,0,0,0-13,0c-1,.69-2,1.49-3,2.17a10.91,10.91,0,0,1-10.75,1,22.53,22.53,0,0,1-4.2-2.68,11.59,11.59,0,0,0-14.15-.1c-.55.4-1.1.8-1.63,1.23a11.62,11.62,0,0,1-14.22.08c-.65-.53-1.34-1-2-1.5a11.49,11.49,0,0,0-8.81-2,12.62,12.62,0,0,0-5.92,2.91,12.29,12.29,0,0,1-5.21,2.69,11.63,11.63,0,0,1-9.71-2.18c-.69-.53-1.38-1.05-2.09-1.54a11.49,11.49,0,0,0-13.23.06c-.71.5-1.41,1-2.09,1.55a11.62,11.62,0,0,1-14.06,0c-.63-.51-1.28-1-1.94-1.44a11.52,11.52,0,0,0-13.77.06c-.88.63-1.71,1.34-2.63,1.9a11.06,11.06,0,0,1-12.16.17c-1.09-.63-2.07-1.46-3.1-2.2a11.52,11.52,0,0,0-13.46,0c-.79.55-1.55,1.14-2.32,1.71A10.75,10.75,0,0,1,0,132.09v13.56A9.09,9.09,0,0,0,5.82,144.19Z"/><path class="cls-2" d="M6.07,116.68c1.13-.75,2.2-1.61,3.32-2.37a11.48,11.48,0,0,1,12.92.08c.94.65,1.84,1.37,2.78,2a11.5,11.5,0,0,0,12.92,0c1-.66,1.88-1.41,2.86-2.07a11.48,11.48,0,0,1,13.23.13c.86.61,1.68,1.27,2.54,1.87a11.52,11.52,0,0,0,13.08,0c.89-.62,1.73-1.3,2.62-1.92a11.44,11.44,0,0,1,13.15-.06c.94.65,1.83,1.37,2.78,2a11.49,11.49,0,0,0,12.85.08c1-.66,1.89-1.4,2.86-2.07a11.42,11.42,0,0,1,13.22,0c.94.66,1.83,1.38,2.78,2a11.49,11.49,0,0,0,12.77,0c1-.7,2-1.49,3-2.18a11.49,11.49,0,0,1,12.77,0c1,.66,1.89,1.4,2.85,2.07a11.48,11.48,0,0,0,13.15,0c.89-.62,1.73-1.3,2.63-1.91a11.5,11.5,0,0,1,13.3.11c1.21.86,2.39,1.77,3.66,2.54a9.33,9.33,0,0,0,5.32,1.28V104.79a11.65,11.65,0,0,1-7.63-2.91L180.6,101a11.52,11.52,0,0,0-13.69-.08c-.78.55-1.53,1.16-2.31,1.71a11.48,11.48,0,0,1-13.38,0c-.81-.57-1.58-1.19-2.39-1.76a11.49,11.49,0,0,0-13.39,0c-.86.61-1.68,1.27-2.55,1.87a11.5,11.5,0,0,1-13.15,0c-.86-.6-1.7-1.25-2.54-1.87a11.48,11.48,0,0,0-8.92-1.9c-2.39.36-4.26,1.73-6.11,3.16a11.52,11.52,0,0,1-14.36.37c-.81-.57-1.57-1.2-2.39-1.76a11.47,11.47,0,0,0-12.92,0c-.94.65-1.83,1.37-2.78,2a11.48,11.48,0,0,1-13.23-.08c-.73-.52-1.44-1.07-2.17-1.6a11.5,11.5,0,0,0-13.92,0c-.7.51-1.38,1-2.09,1.54a11.45,11.45,0,0,1-13.53,0c-.78-.56-1.54-1.15-2.32-1.71a11,11,0,0,0-5.4-2,12,12,0,0,0-9.26,3,11.88,11.88,0,0,1-7.81,3v13.56A9.79,9.79,0,0,0,6.07,116.68Z"/><path class="cls-2" d="M6.07,62.26c1-.65,1.93-1.34,2.86-2.07a11.58,11.58,0,0,1,13.81.06c.62.52,1.28,1,1.93,1.45a11.51,11.51,0,0,0,13.77,0,29.67,29.67,0,0,1,3.24-2.31,11.34,11.34,0,0,1,12.13.49c.83.54,1.62,1.15,2.39,1.76a11.71,11.71,0,0,0,14-.05,26.4,26.4,0,0,1,2.71-2,10.89,10.89,0,0,1,10.37-.85,28.16,28.16,0,0,1,4.73,3,11.57,11.57,0,0,0,13.47,0c.73-.52,1.44-1.07,2.16-1.6a11.44,11.44,0,0,1,13.27-.34c1,.66,1.91,1.37,2.85,2.08a11.68,11.68,0,0,0,13.16,0c1-.79,2.07-1.58,3.16-2.28a11.53,11.53,0,0,1,12.81.51c1.76,1.31,3.43,2.8,5.62,3.36a11.91,11.91,0,0,0,10.78-2.13,17.77,17.77,0,0,1,4.39-2.69A10.77,10.77,0,0,1,180,59.8c1.21.81,2.34,1.73,3.56,2.52a9.85,9.85,0,0,0,5.9,1.61V50.32a11.58,11.58,0,0,1-7.62-2.85,16.41,16.41,0,0,0-2-1.45,11.29,11.29,0,0,0-12-.09c-1.15.65-2.16,1.55-3.25,2.31a11.48,11.48,0,0,1-13.23,0c-.84-.58-1.63-1.23-2.47-1.82a11.51,11.51,0,0,0-13.62.12c-.58.42-1.14.85-1.71,1.27a11.47,11.47,0,0,1-14.36,0c-.57-.42-1.14-.86-1.71-1.27a11.51,11.51,0,0,0-13.84,0c-.63.45-1.23.93-1.86,1.39a11.47,11.47,0,0,1-13.91,0c-.7-.51-1.38-1.05-2.09-1.55a11.5,11.5,0,0,0-13.62,0c-.93.67-1.81,1.42-2.78,2a11.2,11.2,0,0,1-12.37,0c-1.19-.72-2.22-1.69-3.41-2.41A11.25,11.25,0,0,0,41.34,46c-1.09.63-2.06,1.48-3.1,2.21a11.46,11.46,0,0,1-13.3,0c-.74-.51-1.45-1.06-2.16-1.6a11.6,11.6,0,0,0-9.4-2.09A12.79,12.79,0,0,0,7.52,47.6,11.74,11.74,0,0,1,0,50.35V63.91A9.71,9.71,0,0,0,6.07,62.26Z"/><path class="cls-2" d="M9.48,32.82a11.33,11.33,0,0,1,12.45-.1c1.14.68,2.15,1.57,3.26,2.31a10.93,10.93,0,0,0,10.71,1,30.5,30.5,0,0,0,5-3.15,11.55,11.55,0,0,1,12.86-.06c1,.69,2,1.47,3,2.16a11.53,11.53,0,0,0,12.77,0c1.08-.72,2.09-1.55,3.17-2.27a11.5,11.5,0,0,1,12.69.12c.89.61,1.75,1.28,2.63,1.91a11.54,11.54,0,0,0,9.36,1.85,12.19,12.19,0,0,0,5.52-2.93,11.84,11.84,0,0,1,15.21,0c.49.42,1,.79,1.56,1.16a11.56,11.56,0,0,0,13.32,0c1-.71,2-1.53,3-2.15a11.27,11.27,0,0,1,12.14,0c1.07.62,2,1.44,3,2.15a11.51,11.51,0,0,0,13.54,0c.73-.52,1.44-1.08,2.17-1.59a11.5,11.5,0,0,1,13.69,0c1,.72,2,1.48,3,2.15a10.17,10.17,0,0,0,5.81,1.57V23.34a12,12,0,0,1-8.12-3.2c-.26-.22-.55-.4-.82-.6a11.62,11.62,0,0,0-9.17-1.94c-2.37.38-4.18,1.77-6,3.18a11.89,11.89,0,0,1-9,2.49c-2.78-.3-5-1.76-7.08-3.4a11.45,11.45,0,0,0-13.89-.36c-.81.56-1.59,1.18-2.4,1.75a11.49,11.49,0,0,1-13.39,0c-.76-.53-1.49-1.1-2.24-1.66a11.59,11.59,0,0,0-9.26-2,11.8,11.8,0,0,0-5.46,2.81,12.07,12.07,0,0,1-11.29,2.48A15.65,15.65,0,0,1,86,19.79a11.5,11.5,0,0,0-13.83-.27c-.81.57-1.58,1.19-2.39,1.76a11.53,11.53,0,0,1-13.39-.08,25.06,25.06,0,0,0-2.48-1.79,16.25,16.25,0,0,0-4-1.73,11.77,11.77,0,0,0-10.69,2.83,11.63,11.63,0,0,1-10.94,2.41,13.82,13.82,0,0,1-4.7-2.53,15.74,15.74,0,0,0-3.44-2.15,11.44,11.44,0,0,0-12,1.9A13,13,0,0,1,0,23.41V37a12,12,0,0,0,7.67-2.85A16,16,0,0,1,9.48,32.82Z"/><path class="cls-2" d="M189.42,186.38c-3.27.14-5.84-1.32-8.22-3.26-.22-.18-.44-.34-.67-.5a11.5,11.5,0,0,0-13.61,0c-.93.66-1.81,1.42-2.79,2a11.27,11.27,0,0,1-12.45,0c-1.08-.65-2-1.5-3.09-2.22a11.49,11.49,0,0,0-13,0c-1,.7-2,1.53-3,2.17a11.27,11.27,0,0,1-12.45,0c-1.08-.65-2.05-1.49-3.09-2.22a11.45,11.45,0,0,0-9.21-1.7c-2.37.47-4.17,2-6,3.34a11.49,11.49,0,0,1-14.06,0c-.65-.47-1.28-1-1.94-1.44a11.51,11.51,0,0,0-13.76,0c-.63.45-1.24.93-1.86,1.39a11.5,11.5,0,0,1-14.07,0c-.7-.51-1.38-1-2.09-1.55a11.5,11.5,0,0,0-13.3,0c-.89.62-1.73,1.31-2.62,1.92a11.46,11.46,0,0,1-13.08,0c-.92-.63-1.78-1.34-2.7-2a11.51,11.51,0,0,0-13.15.07c-.86.6-1.68,1.26-2.54,1.87a9.93,9.93,0,0,1-6.61,2v3.9H189.42Z"/><path class="cls-2" d="M8.63,6.28a11.51,11.51,0,0,1,14.29,0c.57.42,1.14.85,1.71,1.28a11.56,11.56,0,0,0,9.95,1.94C36.7,9,38.34,7.67,40,6.42c4.78-3.55,10-3.52,14.73,0,.5.37,1,.75,1.49,1.11a11.5,11.5,0,0,0,13.84,0c.71-.5,1.38-1,2.09-1.55A11.48,11.48,0,0,1,85.79,6c.81.58,1.59,1.19,2.39,1.76a11.44,11.44,0,0,0,8,2c2.73-.26,4.85-1.69,6.94-3.29,4.7-3.58,10-3.59,14.73-.07.55.41,1.09.82,1.64,1.22a11.49,11.49,0,0,0,13.61,0c.73-.52,1.44-1.07,2.17-1.6a11.49,11.49,0,0,1,13.53-.11c.71.5,1.39,1,2.09,1.55a11.51,11.51,0,0,0,13.84.13c.68-.48,1.34-1,2-1.49a11.51,11.51,0,0,1,14,.06c.85.62,1.68,1.27,2.55,1.86a10.41,10.41,0,0,0,6.13,1.76V0H0V9.85c.89-.1,1.79-.15,2.67-.31C5,9.13,6.79,7.64,8.63,6.28Z"/></g></g></svg>