<svg xmlns="http://www.w3.org/2000/svg" viewBox="0 0 500 500"><defs><style>.cls-1{fill:#13e59a;}.cls-2{fill:#00db92;}</style></defs><title>Asset 25</title><g id="Layer_2" data-name="Layer 2"><g id="Layer_1-2" data-name="Layer 1"><path class="cls-1" d="M500,126v28l-15.33-7.26,1.91,29L500,167v35l-20.7-10.16,1.95,28.93L500,209v41l-26-13.14,2,29.11,5.18-3.23L500,251v57l-4.69-1.07,1.87,27.89L500,334v22l-10.06-4.33,2,28.27L500,376v28l-15.33-7.24,1.89,28.84L500,417v35l-20.66-10.21,1.9,28.91L500,459c0,12.83,0,25.67,0,38.5a7.8,7.8,0,0,1-1,2.5l-25.14-13.41L475,500H439l2.09-3-25.75-12.72L417,500H376l6.91-5.54-25.82-12.69L358,500H314l10.34-8.21L298.46,479.1,300,500H251l14.91-10.79-26.24-13L242,500H189l18.34-13.49-25.76-12.74L183,500H159l-9-4.92V500H126l23-16.06L122.82,471,125,500H106l-15.28-7.88L92,500H52L33,489.62V500H0q0-42,0-84l11-6.23L0,404q0-14.5,0-29l16.48-10.82L0,357q0-12,0-24l22-13.86L0,309q0-71,0-142l10.58-7.41L0,154q0-14.5,0-29l16.59-10.78L0,107V83L22,69.14,0,59C0,39.44,0,19.88,0,0H33l1.55,18.84L57.67,3.44,55,0H91l2.21,21.4L117,5.58,108,0h42l1.39,24.32L175.51,8.18,161,0h47l2.09,26.8,24-16L214,0h86V8.85L312,0h46l1.21,10.74L375,0h42V14.14L437,0h38l.94,16.19c2.88-1.89,4.91-3.27,7-4.57Q491.45,6.29,500,1V58l-4.67-1.26,1.84,28.11L500,84v22l-10.06-4.31,2,28.36Zm-79.17,63.13,1.89,29.28,24.37-16.26Zm0,250,1.95,29.26,24.36-16.25ZM85.68,287.55l2,29.23L112,300.52ZM32.23,478.74l-26.35-13,2,29.21ZM197.14,327.13l-26.36-13,2,29.21ZM108.92,136l24.4-16.3-26.39-12.9ZM261,34.57l-26.3-12.92,1.91,29.19Zm-5.07,56.17,2,29.23,24.36-16.25Zm-58.8-13.6-26.27-13,1.91,29.29Zm149-16-26.27-13,1.91,29.23ZM154.59,438.81l-26.35-12.92,2,29.18ZM192,133.2l2,29.31,24.29-16.19Zm21.37,69.21,1.86,29.28,24.35-16.21Zm154,177.88L341,367.38,343,396.54ZM.66,261l1.79,29.29L26.89,274ZM93,271.57l24.41-16.27L91,242.39ZM50.33,383.33,74.81,367,48.56,354.17ZM255.67,79.8l-26.34-13,1.9,29.2ZM186.75,428.45l1.94,29.29,24.36-16.21ZM303.53,172.88l-26.33-13,1.94,29.18Zm58.53,2.63-26.35-12.9,1.92,29.17ZM250.65,136l1.81,29.27L276.89,149Zm156.09-31.91,24.44-16.3-26.31-13Zm-7.15,16,1.82,29.25L425.81,133ZM112.06,50.5,85.71,37.62l1.93,29.17ZM21.87,80.13l1.94,29.19,24.4-16.23ZM442,8.22l2,29.23,24.29-16.13Zm-80,417.3L335.7,412.59l2,29.19ZM5.83,215.74,8,245l24.23-16.27ZM460,151.89l24.34-16.26-26.33-13ZM74.8,117,48.55,104.14l1.83,29.15Zm292.56,13.31-26.38-13,2,29.19Zm58.75,13.58,2,29.29,24.31-16.26ZM69.51,162.22l-26.39-12.9,2,29.13Zm.22,11,2,29.23L96,186.13Zm84.87,15.6L128.26,175.9l1.92,29.19Zm34,19L213,191.51l-26.26-13Zm67.24,133,2,29.22,24.35-16.26ZM69.46,412.23,43.15,399.28l1.95,29.2Zm202.4-207.14,1.94,29.17,24.38-16.15Zm-147,45.19L149.24,234l-26.32-13ZM250.63,386l1.86,29.24,24.41-16.28ZM21.83,330.09l2,29.22,24.34-16.24ZM210,276.86l24.34-16.2-26.36-13ZM399.61,370l1.79,29.19L425.84,383Zm5-56.2-26.41-12.9,2,29.09ZM53.51,47.87l-26.33-13,2,29.21Zm148.9-15.94-26.29-13,2,29.26Zm-200,8.23L26.91,24,.67,11ZM383.64,5.67l1.79,29.27L409.89,18.6ZM314.46,93.42l1.91,29.21,24.4-16.25ZM372.85,96l2.07,29.26L399.26,109Zm90.2,220.46-26.32-13,2,29.16ZM213.43,452.42l1.82,29.3,24.36-16.24ZM316.28,372.6l24.49-16.2-26.26-12.93Zm-90.35,18.69L250.26,375,224,362ZM202.41,281.93l-26.3-13,2,29.24Zm-67,128,24.47-16.34-26.19-12.92ZM255.62,329.8l-26.27-13,1.9,29.23ZM149.61,245l1.77,29.19,24.38-16.29ZM90.78,481.37l-26.31-12.9,1.89,29.15ZM66.28,247.66l24.51-16.28L64.51,218.5ZM495,45.24l-26.28-13,1.88,29.21ZM404.54,63.81l-26.3-12.94,2,29.11Zm50.11,133.31L479,180.86l-26.29-13ZM436.75,53.45l1.95,29.23L463,66.5Zm-216.13,383L245,420.2l-26.27-12.94Zm234,10.66L479,430.86l-26.27-13ZM167.35,138.66l24.47-16.32-26.26-12.93Zm141.7-.06,2,29.23,24.36-16.27Zm-8.74,119.63L324.84,242l-26.27-12.88ZM34.38,269l24.48-16.34L32.57,239.75ZM59.08,13.63l2,29.21L85.43,26.57ZM463.42,77.44l1.86,29.26,24.35-16.25ZM133.64,130.69l1.81,29.21,24.46-16.27ZM77,157.23l24.36-16.31L75,128ZM468.36,271.29l-26.33-13,2,29.13ZM165.21,98.39,138.85,85.44l2,29.19ZM484.34,385.66l-26.32-13,2,29.28ZM351.44,16,325,3l2,29.16ZM146.17,319.44l24.35-16.29-26.3-12.9Zm173.58-21.22,1.9,29.15,24.44-16.2ZM298.12,468.1l-26.26-13,1.95,29.13Zm74.79-122,2,29.21L399.28,359ZM330.45,457.83,332.29,487l24.44-16.28ZM82.27,362l24.41-16.33L80.47,332.84Zm21.26,69.21,24.41-16.41L101.72,402ZM279.13,439l24.36-16.13-26.33-13ZM128,164.87,101.72,152l1.85,29.2Zm117.29,16.29,1.95,29.26,24.33-16.28Zm-40.67-109L229,55.84l-26.23-13Zm58.57,2.61,24.38-16.3L261.24,45.57Zm-199,382.63-26.38-12.9,1.92,29.19Zm101.33-98.07,1.89,29.27,24.31-16.29Zm39.08-37.19L229,305.86l-26.25-13Zm216,106-26.38-12.91,2,29.08ZM80.14,71.77,53.78,58.9,55.7,88.11Zm316,122.65,24.4-16.22-26.33-12.93ZM80.06,321.84l-26.28-13,1.92,29.26Zm167.12,138.6,24.41-16.3L245.3,431.22Zm99.21-138.29,1.89,29.25,24.35-16.3Zm84.84,15.61-26.38-12.93,1.91,29.11Zm34,18.87,24.41-16.16-26.24-13ZM140.8,364.7l24.4-16.32L138.9,335.45ZM13.16,449.76l24.4-16.23-26.32-13Zm133-380.29,24.41-16.3L144.23,40.27ZM183.3,252.92l24.44-16.19-26.21-13ZM64.2,207.44,37.81,194.53l1.94,29.17Zm175.7,18.89,2,29.26,24.31-16.21ZM156.77,229l24.4-16.27-26.32-13ZM436.51,42.54l-26.39-13,2,29.19ZM332.26,237.07l24.48-16.38L330.49,207.9Zm83-13.65-26.36-13,2,29.18Zm16.31-124.7,1.8,29.28,24.36-16.31ZM309.1,388.63l2,29.12,24.39-16.17ZM394,154.26l-26.3-12.9,1.82,29.14ZM287.8,319.46l2,29.23,24.36-16.27ZM218.72,157.23l1.89,29.27,24.32-16.27Zm164.57,87.42-26.38-12.93L359,260.79ZM226,141.26,250.26,125,224,112ZM417.33,263.62l24.44-16.25-26.17-13Zm-7.35,5-26.35-12.88,1.8,29ZM330.1,196.8l-26.31-12.94,1.9,29.21ZM80.43,82.81,82.33,112,106.7,95.71ZM61,292.86l24.43-16.29-26.36-12.9ZM16.64,375.37l1.76,29.2,24.45-16.26ZM364.21,215.73l24.45-16.28-26.33-12.88ZM112.31,61.49l1.92,29.21,24.37-16.24ZM53.47,297.82,27.15,284.94l2,29.08ZM314.18,82.44,287.81,69.51l1.94,29.17Zm-51,242.33,24.4-16.26-26.29-13Zm-250-125,24.35-16.29-26.24-13Zm351,265.85,24.42-16.2-26.29-12.9ZM96,436.13,69.78,423.25l1.87,29.1Zm122.27-39.85-26.24-13,2,29.18ZM305.72,463l24.43-16.21L303.77,433.9Zm-149,16,24.37-16.24L154.84,449.8ZM452.44,406.9,426.1,394l2,29.19ZM16.62,125.33l1.83,29.25,24.4-16.27Zm122,199.1-26.24-12.92,1.87,29.14Zm144-209.76,1.89,29.25,24.4-16.27Zm71-58.62,24.47-16.18L351.69,27ZM319.51,37.22,293.13,24.3l2,29ZM266.62.38l1.8,29.14L292.89,13.3ZM117.67,16.3l1.83,29.21,24.45-16.25ZM295.08,303.43l24.4-16.22-26.32-12.88ZM186.51,167.54,160.16,154.6l2,29.18Zm37.16-66.44-26.2-13,1.83,29.27Zm149-16L346.44,72.22l1.81,29.15ZM143.9,279.21l-26.21-12.86,1.81,29.13Zm117,5.35-26.19-12.94,1.86,29.14Zm207.8-2.37,1.91,29.23,24.35-16.16Zm-361.76,74.5,2,29.15,24.29-16.2ZM96.42,447.14l1.81,29.25,24.41-16.26ZM378,289.88,351.66,277l2,29.05Zm-276.66,101L75,378l2,29.12Zm207.51-13.28-26.31-12.9,1.9,29.06ZM473.67,226.1l-26.21-13,1.86,29.25Zm-351-16L96.4,197.21l1.84,29.17ZM390.79,489.59l24.43-16.18-26.32-13Zm67-127.88-26.28-13L433.37,378ZM223.67,351l-26.21-12.84,1.87,29.06ZM449.27,492.3l24.35-16.23-26.1-13Zm-98-226.38L325,253l2,29.17Zm-82.93,13.59,24.5-16.23-26.24-12.87Zm99.3,111.81,1.83,29.12,24.41-16.19Zm42.49-111.74,2,29.15,24.28-16.2Zm-250,125,1.95,29.16,24.27-16.18Z"/><path class="cls-2" d="M125,500l-2.18-29L149,483.94,126,500Z"/><path class="cls-2" d="M500,251l-18.87,11.74L475.95,266l-2-29.11L500,250Z"/><path class="cls-2" d="M214,0l20.07,10.83-24,16L208,0Z"/><path class="cls-2" d="M183,500l-1.42-26.23,25.76,12.74L189,500Z"/><path class="cls-2" d="M500,209l-18.75,11.76-1.95-28.93L500,202Z"/><path class="cls-2" d="M161,0l14.51,8.18L151.39,24.32,150,0Z"/><path class="cls-2" d="M500,459l-18.76,11.7-1.9-28.91L500,452Z"/><path class="cls-2" d="M242,500l-2.34-23.74,26.24,13L251,500Z"/><path class="cls-2" d="M300,500l-1.54-20.91,25.88,12.69L314,500Z"/><path class="cls-2" d="M108,0l9,5.58L93.21,21.4,91,0Z"/><path class="cls-2" d="M500,167l-13.42,8.7-1.91-29L500,154Z"/><path class="cls-2" d="M500,417l-13.44,8.61-1.89-28.84L500,404Z"/><path class="cls-2" d="M358,500l-.91-18.23,25.82,12.69L376,500Z"/><path class="cls-2" d="M0,59,22,69.14,0,83Q0,71,0,59Z"/><path class="cls-2" d="M55,0l2.67,3.43L34.55,18.85,33,0Z"/><path class="cls-2" d="M0,309l22,10.14L0,333Q0,321,0,309Z"/><path class="cls-2" d="M417,500l-1.66-15.73L441.09,497,439,500Z"/><path class="cls-2" d="M500,126l-8.11,4-2-28.36L500,106Z"/><path class="cls-2" d="M500,376l-8.1,3.94-2-28.27L500,356Z"/><path class="cls-2" d="M500,1q-8.54,5.31-17.07,10.62c-2.08,1.3-4.11,2.68-7,4.57L475,0c7.67,0,15.33,0,23,0C498.67.05,499.33.67,500,1Z"/><path class="cls-2" d="M475,500l-1.14-13.41L499,500Z"/><path class="cls-2" d="M0,107l16.59,7.22L0,125Q0,116,0,107Z"/><path class="cls-2" d="M0,357l16.48,7.18L0,375Q0,366,0,357Z"/><path class="cls-2" d="M437,0,417,14.14V0Z"/><path class="cls-2" d="M500,84l-2.82.85-1.84-28.11L500,58Z"/><path class="cls-2" d="M500,334l-2.82.82-1.87-27.89L500,308Z"/><path class="cls-2" d="M33,500V489.62L52,500Z"/><path class="cls-2" d="M375,0,359.21,10.75,358,0Z"/><path class="cls-2" d="M0,154l10.58,5.59L0,167Q0,160.5,0,154Z"/><path class="cls-2" d="M0,404l11,5.77L0,416Q0,410,0,404Z"/><path class="cls-2" d="M92,500l-1.28-7.88L106,500Z"/><path class="cls-2" d="M312,0,300,8.85V0Z"/><path class="cls-2" d="M150,500v-4.92l9,4.92Z"/><path class="cls-2" d="M420.83,189.13l26.26,13-24.37,16.26Z"/><path class="cls-2" d="M420.79,439.13l26.31,13-24.36,16.25Z"/><path class="cls-2" d="M85.68,287.55l26.34,13L87.68,316.79Z"/><path class="cls-2" d="M32.23,478.74,7.87,494.94l-2-29.21Z"/><path class="cls-2" d="M197.14,327.13l-24.37,16.23-2-29.21Z"/><path class="cls-2" d="M108.92,136l-2-29.21,26.39,12.9Z"/><path class="cls-2" d="M261,34.57,236.56,50.84l-1.91-29.19Z"/><path class="cls-2" d="M255.89,90.74l26.35,13L257.88,120Z"/><path class="cls-2" d="M197.08,77.14,172.72,93.41l-1.91-29.29Z"/><path class="cls-2" d="M346,61.19,321.67,77.42l-1.91-29.23Z"/><path class="cls-2" d="M154.59,438.81,130.2,455.07l-2-29.18Z"/><path class="cls-2" d="M192,133.2l26.31,13.12L194.05,162.5Z"/><path class="cls-2" d="M213.41,202.41l26.21,13.07-24.35,16.21Z"/><path class="cls-2" d="M367.36,380.29,343,396.54,341,367.38Z"/><path class="cls-2" d="M.66,261l26.23,13L2.45,290.26Z"/><path class="cls-2" d="M93,271.57l-2-29.17,26.39,12.9Z"/><path class="cls-2" d="M50.33,383.33l-1.77-29.15L74.81,367Z"/><path class="cls-2" d="M255.67,79.8,231.23,96l-1.9-29.2Z"/><path class="cls-2" d="M186.75,428.45l26.3,13.08-24.36,16.21Z"/><path class="cls-2" d="M303.53,172.88l-24.39,16.21-1.94-29.18Z"/><path class="cls-2" d="M362.06,175.51l-24.42,16.28-1.92-29.17Z"/><path class="cls-2" d="M250.65,136l26.24,13-24.43,16.28Z"/><path class="cls-2" d="M406.74,104.06,404.87,74.8l26.31,13Z"/><path class="cls-2" d="M399.6,120l26.21,13-24.39,16.28Z"/><path class="cls-2" d="M112.06,50.5,87.65,66.79,85.71,37.62Z"/><path class="cls-2" d="M21.87,80.13l26.34,13-24.4,16.23Z"/><path class="cls-2" d="M442,8.22l26.33,13.1L444.06,37.44Z"/><path class="cls-2" d="M362,425.52l-24.36,16.27-2-29.19Z"/><path class="cls-2" d="M5.83,215.74l26.36,13L8,245Z"/><path class="cls-2" d="M460,151.89l-2-29.24,26.33,13Z"/><path class="cls-2" d="M74.8,117,50.38,133.29l-1.83-29.15Z"/><path class="cls-2" d="M367.36,130.31,343,146.54l-2-29.19Z"/><path class="cls-2" d="M426.11,143.89l26.29,13-24.31,16.26Z"/><path class="cls-2" d="M69.51,162.22,45.14,178.44l-2-29.13Z"/><path class="cls-2" d="M69.73,173.22,96,186.13,71.69,202.45Z"/><path class="cls-2" d="M154.6,188.82,130.18,205.1l-1.92-29.19Z"/><path class="cls-2" d="M188.64,207.78l-1.85-29.3,26.26,13Z"/><path class="cls-2" d="M255.88,340.76l26.36,13L257.88,370Z"/><path class="cls-2" d="M69.46,412.23,45.1,428.48l-1.95-29.2Z"/><path class="cls-2" d="M271.86,205.09l26.32,13-24.38,16.15Z"/><path class="cls-2" d="M124.87,250.28l-2-29.21,26.32,13Z"/><path class="cls-2" d="M250.63,386l26.27,13-24.41,16.28Z"/><path class="cls-2" d="M21.83,330.09l26.36,13L23.85,359.32Z"/><path class="cls-2" d="M210,276.86l-2-29.24,26.36,13Z"/><path class="cls-2" d="M399.61,370l26.24,13L401.4,399.19Z"/><path class="cls-2" d="M404.62,313.8,380.23,330l-2-29.09Z"/><path class="cls-2" d="M53.51,47.87,29.14,64.12l-2-29.21Z"/><path class="cls-2" d="M202.41,31.93,178.09,48.15l-2-29.26Z"/><path class="cls-2" d="M2.42,40.17.67,11,26.91,24Z"/><path class="cls-2" d="M383.64,5.67,409.89,18.6,385.43,34.94Z"/><path class="cls-2" d="M314.46,93.42l26.31,13-24.4,16.25Z"/><path class="cls-2" d="M372.85,96l26.4,13-24.33,16.26Z"/><path class="cls-2" d="M463.05,316.48l-24.34,16.17-2-29.16Z"/><path class="cls-2" d="M213.43,452.42l26.19,13.06-24.36,16.24Z"/><path class="cls-2" d="M316.28,372.6l-1.77-29.14,26.26,12.93Z"/><path class="cls-2" d="M225.93,391.29,224,362,250.26,375Z"/><path class="cls-2" d="M202.41,281.93,178.1,298.16l-2-29.24Z"/><path class="cls-2" d="M135.4,410l-1.72-29.27,26.19,12.92Z"/><path class="cls-2" d="M255.62,329.8,231.24,346l-1.9-29.23Z"/><path class="cls-2" d="M149.61,245l26.15,12.89-24.38,16.29Z"/><path class="cls-2" d="M90.78,481.37,66.36,497.62l-1.89-29.15Z"/><path class="cls-2" d="M66.28,247.66,64.51,218.5l26.29,12.88Z"/><path class="cls-2" d="M495,45.24l-24.4,16.24L468.7,32.26Z"/><path class="cls-2" d="M404.54,63.81,380.2,80l-2-29.11Z"/><path class="cls-2" d="M454.66,197.12l-1.94-29.3,26.29,13Z"/><path class="cls-2" d="M436.75,53.45l26.3,13L438.7,82.69Z"/><path class="cls-2" d="M220.62,436.49l-1.94-29.23L245,420.2Z"/><path class="cls-2" d="M454.63,447.15l-1.89-29.29,26.27,13Z"/><path class="cls-2" d="M167.35,138.66l-1.79-29.25,26.26,12.93Z"/><path class="cls-2" d="M309.06,138.6l26.38,13-24.36,16.27Z"/><path class="cls-2" d="M300.31,258.23l-1.75-29.07L324.84,242Z"/><path class="cls-2" d="M34.38,269l-1.8-29.23,26.28,12.89Z"/><path class="cls-2" d="M59.08,13.63,85.43,26.57,61.08,42.85Z"/><path class="cls-2" d="M463.42,77.44l26.21,13L465.28,106.7Z"/><path class="cls-2" d="M133.64,130.69l26.27,12.94L135.45,159.9Z"/><path class="cls-2" d="M77,157.23,75,128l26.37,12.91Z"/><path class="cls-2" d="M468.36,271.29,444.06,287.4l-2-29.13Z"/><path class="cls-2" d="M165.21,98.39l-24.34,16.25-2-29.19Z"/><path class="cls-2" d="M484.34,385.66,460,401.89l-2-29.28Z"/><path class="cls-2" d="M351.44,16,327,32.16,325,3Z"/><path class="cls-2" d="M146.17,319.44l-2-29.19,26.3,12.9Z"/><path class="cls-2" d="M319.75,298.22l26.34,13-24.44,16.2Z"/><path class="cls-2" d="M298.12,468.1l-24.31,16.14-1.95-29.13Z"/><path class="cls-2" d="M372.91,346.08l26.37,13-24.39,16.25Z"/><path class="cls-2" d="M330.45,457.83l26.28,12.91L332.29,487Z"/><path class="cls-2" d="M82.27,362l-1.8-29.18,26.21,12.85Z"/><path class="cls-2" d="M103.54,431.23,101.72,402l26.23,12.8Z"/><path class="cls-2" d="M279.13,439l-2-29.08,26.33,13Z"/><path class="cls-2" d="M128,164.87l-24.42,16.29L101.72,152Z"/><path class="cls-2" d="M245.28,181.16l26.28,13-24.33,16.28Z"/><path class="cls-2" d="M204.6,72.18l-1.85-29.35,26.23,13Z"/><path class="cls-2" d="M263.17,74.79l-1.93-29.22,26.31,12.92Z"/><path class="cls-2" d="M64.21,457.42,39.74,473.71l-1.92-29.19Z"/><path class="cls-2" d="M165.53,359.35l26.2,13-24.31,16.29Z"/><path class="cls-2" d="M204.61,322.16l-1.85-29.34,26.25,13Z"/><path class="cls-2" d="M420.59,428.18l-24.4,16.16-2-29.08Z"/><path class="cls-2" d="M80.14,71.77,55.7,88.11,53.78,58.9Z"/><path class="cls-2" d="M396.15,194.42l-1.93-29.15,26.33,12.93Z"/><path class="cls-2" d="M80.06,321.84,55.7,338.08l-1.92-29.26Z"/><path class="cls-2" d="M247.17,460.43l-1.87-29.21,26.28,12.91Z"/><path class="cls-2" d="M346.38,322.15l26.24,12.95-24.35,16.3Z"/><path class="cls-2" d="M431.22,337.76l-24.47,16.17-1.91-29.11Z"/><path class="cls-2" d="M465.25,356.63l-1.83-29.16,26.24,13Z"/><path class="cls-2" d="M140.8,364.7l-1.89-29.25,26.29,12.93Z"/><path class="cls-2" d="M13.16,449.76l-1.92-29.2,26.32,13Z"/><path class="cls-2" d="M146.14,69.46l-1.91-29.19,26.32,12.89Z"/><path class="cls-2" d="M183.3,252.92l-1.77-29.21,26.21,13Z"/><path class="cls-2" d="M64.2,207.44,39.75,223.7l-1.94-29.17Z"/><path class="cls-2" d="M239.9,226.33l26.33,13.05-24.31,16.21Z"/><path class="cls-2" d="M156.77,229l-1.92-29.27,26.32,13Z"/><path class="cls-2" d="M436.51,42.54,412.17,58.77l-2-29.19Z"/><path class="cls-2" d="M332.26,237.07l-1.77-29.17,26.25,12.79Z"/><path class="cls-2" d="M415.22,223.42l-24.39,16.19-2-29.18Z"/><path class="cls-2" d="M431.53,98.72l26.16,13L433.33,128Z"/><path class="cls-2" d="M309.1,388.63l26.34,13-24.39,16.17Z"/><path class="cls-2" d="M394,154.26,369.5,170.5l-1.82-29.14Z"/><path class="cls-2" d="M287.8,319.46l26.35,13L289.8,348.69Z"/><path class="cls-2" d="M218.72,157.23l26.2,13L220.6,186.5Z"/><path class="cls-2" d="M383.29,244.65,359,260.79l-2.07-29.08Z"/><path class="cls-2" d="M226,141.26,224,112l26.31,13Z"/><path class="cls-2" d="M417.33,263.62l-1.73-29.23,26.17,13Z"/><path class="cls-2" d="M410,268.61l-24.54,16.16-1.8-29Z"/><path class="cls-2" d="M330.1,196.8,305.7,213.07l-1.9-29.21Z"/><path class="cls-2" d="M80.43,82.81l26.27,12.9L82.33,112Z"/><path class="cls-2" d="M61,292.86l-1.93-29.19,26.36,12.9Z"/><path class="cls-2" d="M16.64,375.37l26.21,12.94L18.4,404.58Z"/><path class="cls-2" d="M364.21,215.73l-1.88-29.16,26.33,12.88Z"/><path class="cls-2" d="M112.31,61.49l26.3,13L114.24,90.71Z"/><path class="cls-2" d="M53.47,297.82,29.18,314l-2-29.08Z"/><path class="cls-2" d="M314.18,82.44,289.75,98.68l-1.94-29.17Z"/><path class="cls-2" d="M263.15,324.77l-1.89-29.21,26.29,13Z"/><path class="cls-2" d="M13.16,199.79l-1.9-29.24,26.24,13Z"/><path class="cls-2" d="M364.2,465.64l-1.87-29.1,26.29,12.9Z"/><path class="cls-2" d="M96,436.13,71.65,452.35l-1.87-29.1Z"/><path class="cls-2" d="M218.29,396.27l-24.23,16.14-2-29.18Z"/><path class="cls-2" d="M305.72,463l-2-29.07,26.38,12.87Z"/><path class="cls-2" d="M156.76,479l-1.92-29.15,26.29,12.91Z"/><path class="cls-2" d="M452.44,406.9l-24.31,16.24-2-29.19Z"/><path class="cls-2" d="M16.62,125.33l26.23,13-24.4,16.27Z"/><path class="cls-2" d="M138.57,324.43l-24.37,16.22-1.87-29.14Z"/><path class="cls-2" d="M282.54,114.68l26.29,13-24.4,16.27Z"/><path class="cls-2" d="M353.58,56.06,351.69,27l26.36,12.88Z"/><path class="cls-2" d="M319.51,37.22l-24.4,16.13-2-29Z"/><path class="cls-2" d="M266.62.38,292.89,13.3,268.42,29.52Z"/><path class="cls-2" d="M117.67,16.3l26.27,13L119.5,45.51Z"/><path class="cls-2" d="M295.08,303.43l-1.92-29.1,26.32,12.88Z"/><path class="cls-2" d="M186.51,167.54l-24.36,16.24-2-29.18Z"/><path class="cls-2" d="M223.66,101.1,199.3,117.33l-1.83-29.27Z"/><path class="cls-2" d="M372.68,85.1l-24.44,16.28-1.81-29.15Z"/><path class="cls-2" d="M143.9,279.21l-24.4,16.27-1.81-29.13Z"/><path class="cls-2" d="M260.88,284.56l-24.33,16.2-1.86-29.14Z"/><path class="cls-2" d="M468.68,282.19l26.26,13.07-24.35,16.16Z"/><path class="cls-2" d="M106.92,356.69l26.31,12.94-24.29,16.2Z"/><path class="cls-2" d="M96.42,447.14l26.22,13L98.22,476.39Z"/><path class="cls-2" d="M378,289.88,353.63,306l-2-29.05Z"/><path class="cls-2" d="M101.35,390.92,77,407.12,75,378Z"/><path class="cls-2" d="M308.86,377.64,284.44,393.8l-1.9-29.06Z"/><path class="cls-2" d="M473.67,226.1,449.32,242.3l-1.86-29.25Z"/><path class="cls-2" d="M122.67,210.11,98.24,226.38,96.4,197.21Z"/><path class="cls-2" d="M390.79,489.59l-1.89-29.16,26.32,13Z"/><path class="cls-2" d="M457.77,361.71,433.37,378l-1.88-29.21Z"/><path class="cls-2" d="M223.67,351l-24.34,16.22-1.87-29.06Z"/><path class="cls-2" d="M449.27,492.3l-1.75-29.24,26.1,13Z"/><path class="cls-2" d="M351.31,265.92,327,282.15,325,253Z"/><path class="cls-2" d="M268.37,279.51l-1.74-29.1,26.24,12.87Z"/><path class="cls-2" d="M367.67,391.31l26.24,12.93L369.5,420.43Z"/><path class="cls-2" d="M410.16,279.57l26.27,12.94-24.28,16.2Z"/><path class="cls-2" d="M160.17,404.55l26.22,13-24.27,16.18Z"/></g></g></svg>