<svg xmlns="http://www.w3.org/2000/svg" viewBox="0 0 88.46 80.8"><defs><style>.cls-1,.cls-2{fill:#b40e3d;}.cls-1{stroke:#a00d3e;stroke-linecap:round;stroke-linejoin:round;stroke-width:5px;}.cls-3{fill:#a00d3e;}</style></defs><title>Asset 32</title><g id="Layer_2" data-name="Layer 2"><g id="Layer_1-2" data-name="Layer 1"><polygon class="cls-1" points="22.23 78.3 17.13 67.76 5.5 69.1 32.17 20.61 48.9 29.81 22.23 78.3"/><polygon class="cls-1" points="62.68 78.3 67.78 67.76 79.41 69.1 52.73 20.61 36.01 29.81 62.68 78.3"/><path class="cls-2" d="M44.35,26.72s-14.45,13-20.48,15C14.22,44.85,5.5,33.48,5.5,23.34h0C5.5,13.19,14.22,1.82,23.86,5c6,2,20.48,15,20.48,15"/><path class="cls-3" d="M44.35,26.72s-.24.38-.72,1.06-1.19,1.68-2.15,2.9a83,83,0,0,1-8.7,9.51c-1,.93-2.08,1.84-3.3,2.79a20.4,20.4,0,0,1-2,1.39,10.24,10.24,0,0,1-1.18.68l-.68.33-.34.16-.09,0,0,0-.37.11-.13,0-1.07.37L23,46.3l-.91.15c-.61.09-1.24.16-1.87.21s-1.1,0-1.67-.06l-.84-.06-.82-.16c-.54-.11-1.1-.24-1.64-.39a19.31,19.31,0,0,1-3-1.3,22.48,22.48,0,0,1-8.85-9A25.86,25.86,0,0,1,0,23.34l0-.61,0-.32,0-.65,0-.66.13-.91c.09-.6.18-1.21.29-1.8l.4-1.57a25.07,25.07,0,0,1,1-3c.46-1,.86-1.94,1.41-2.84a22.47,22.47,0,0,1,8.85-9,19.3,19.3,0,0,1,3-1.3c.54-.15,1.1-.27,1.64-.39l.82-.16.84-.06C19.13,0,19.69,0,20.24,0l1.63.18.8.11.76.21c.51.14,1,.31,1.48.47L25.1,1l.28.1,0,0,.06,0,.25.13.49.26c.28.14.75.42,1.16.66s.87.51,1.17.74l.94.7c1.22.94,2.3,1.87,3.3,2.79A82.65,82.65,0,0,1,41.48,16c1,1.22,1.66,2.23,2.15,2.9s.72,1.06.72,1.06l-1.14-.59c-.72-.4-1.82-.94-3.16-1.69L35.23,15c-1.85-1-3.91-2.18-6.14-3.34C28,11.09,26.82,10.49,25.65,10l-.87-.38c-.3-.14-.48-.17-.72-.26a8,8,0,0,0-.81-.27l-.53-.15-.27-.08-.07,0h0c.46.17.11,0,.21.08h-.09c-.24,0-.47,0-.7,0l-.34,0-.34,0-.66,0-.65.18-.32.07-.32.15-.65.25a10.15,10.15,0,0,0-1.28.82,13.42,13.42,0,0,0-2.44,2.38,15.86,15.86,0,0,0-1,1.55c-.16.27-.35.53-.5.81L12.8,16c-.32.56-.5,1.2-.77,1.8-.09.31-.18.63-.29.93a5.48,5.48,0,0,0-.27.93l-.23.94c0,.26-.06.5-.11.75a18.54,18.54,0,0,0-.15,2A15.28,15.28,0,0,0,11.48,27a5.71,5.71,0,0,0,.26.93l.28.94c.27.59.45,1.23.77,1.8l.44.87c.15.28.34.54.5.81a15.86,15.86,0,0,0,1,1.55,13.57,13.57,0,0,0,2.44,2.38,10.17,10.17,0,0,0,1.28.82c.22.09.43.16.65.26l.32.15.32.07.65.18a1.64,1.64,0,0,1,.42.07l.23.08.55-.08,1.12-.15.14,0-.3.09h.06l.17,0,.34-.08a4.37,4.37,0,0,0,.78-.25c.54-.18,1.13-.45,1.71-.7,1.17-.51,2.32-1.12,3.43-1.69,2.23-1.17,4.3-2.33,6.14-3.35L40,29c1.34-.75,2.44-1.29,3.16-1.69Z"/><path class="cls-2" d="M44.12,19.95S58.57,6.94,64.6,5C74.24,1.82,83,13.19,83,23.34h0C83,33.48,74.24,44.85,64.6,41.7c-6-2-20.48-15-20.48-15"/><path class="cls-3" d="M44.12,19.95s.24-.38.72-1.06S46,17.21,47,16a83,83,0,0,1,8.7-9.51c1-.93,2.08-1.84,3.3-2.79a20.38,20.38,0,0,1,2-1.39,10.25,10.25,0,0,1,1.18-.68l.68-.33.34-.16.09,0,0,0L63.69,1l.13,0L64.89.55l.55-.18.91-.15C67,.14,67.59.07,68.22,0s1.1,0,1.67.06l.84.06.82.16c.54.11,1.1.24,1.64.39a19.31,19.31,0,0,1,3,1.3,22.48,22.48,0,0,1,8.85,9,25.86,25.86,0,0,1,3.39,12.38l0,.61,0,.32,0,.65,0,.66-.13.91c-.09.6-.18,1.21-.29,1.8l-.4,1.57a25.06,25.06,0,0,1-1,3c-.46,1-.86,1.94-1.41,2.84a22.47,22.47,0,0,1-8.85,9,19.3,19.3,0,0,1-3,1.3c-.54.15-1.1.27-1.64.39l-.82.16-.84.06c-.56,0-1.12.06-1.66.06l-1.63-.18-.8-.11L65,46.17c-.51-.14-1-.31-1.48-.47l-.18-.06-.28-.1,0,0-.06,0-.25-.13-.49-.26c-.28-.14-.75-.42-1.16-.66s-.87-.51-1.17-.74L59,43c-1.22-.94-2.3-1.87-3.3-2.79A82.64,82.64,0,0,1,47,30.68c-1-1.22-1.66-2.23-2.15-2.9s-.72-1.06-.72-1.06l1.14.59c.72.4,1.82.94,3.16,1.69l4.82,2.66c1.85,1,3.91,2.18,6.14,3.34,1.12.58,2.26,1.18,3.43,1.69l.87.38c.3.14.48.17.72.26a8,8,0,0,0,.81.27l.53.15.27.08.07,0h0c-.46-.17-.11,0-.21-.08H66c.24,0,.47,0,.7,0l.34,0,.34,0,.66,0,.65-.18.32-.07.32-.15.65-.25a10.15,10.15,0,0,0,1.28-.82,13.42,13.42,0,0,0,2.44-2.38,15.84,15.84,0,0,0,1-1.55c.16-.27.35-.53.5-.81l.44-.87c.32-.56.5-1.2.77-1.8.09-.31.18-.63.29-.93A5.48,5.48,0,0,0,77,27l.23-.94c0-.26.06-.5.11-.75a18.54,18.54,0,0,0,.15-2A15.28,15.28,0,0,0,77,19.63a5.71,5.71,0,0,0-.26-.93l-.28-.94c-.27-.59-.45-1.23-.77-1.8l-.44-.87c-.15-.28-.34-.54-.5-.81a15.85,15.85,0,0,0-1-1.55,13.57,13.57,0,0,0-2.44-2.38A10.16,10.16,0,0,0,70,9.53c-.22-.09-.43-.16-.65-.26L69,9.12,68.68,9,68,8.87a1.64,1.64,0,0,1-.42-.07l-.23-.08-.55.08-1.12.15-.14,0,.3-.09h-.06l-.17,0L65.3,9a4.36,4.36,0,0,0-.78.25c-.54.18-1.13.45-1.71.7-1.17.51-2.32,1.12-3.43,1.69C57.14,12.82,55.07,14,53.23,15l-4.81,2.66c-1.34.75-2.44,1.29-3.16,1.69Z"/><rect class="cls-1" x="32.69" y="14.72" width="22.59" height="17.22" rx="8.61" ry="8.61"/></g></g></svg>