<svg xmlns="http://www.w3.org/2000/svg" viewBox="0 0 64 137.92"><defs><style>.cls-1{fill:#b40e3d;}.cls-2{fill:#fff;}</style></defs><title>Asset 24</title><g id="Layer_2" data-name="Layer 2"><g id="Layer_1-2" data-name="Layer 1"><rect class="cls-1" y="77.52" width="20" height="20.2"/><rect class="cls-2" y="97.72" width="20" height="20.2"/><path class="cls-1" d="M20,127.92a10,10,0,1,1-20,0v-10H20Z"/><path class="cls-1" d="M64,32a10,10,0,0,1-20,0,11.94,11.94,0,0,0-2.84-7.73L55.31,10.11A31.88,31.88,0,0,1,64,32Z"/><rect class="cls-1" y="37.12" width="20" height="20.2"/><path class="cls-2" d="M0,32A31.92,31.92,0,0,1,10.35,8.46L24.52,22.63A12,12,0,0,0,20,32v5.12H0Z"/><rect class="cls-2" y="57.32" width="20" height="20.2"/><path class="cls-2" d="M55.31,10.11,41.16,24.27a12,12,0,0,0-7.51-4.14V0A31.92,31.92,0,0,1,55.31,10.11Z"/><path class="cls-1" d="M32,0q.83,0,1.65,0V20.13a11.74,11.74,0,0,0-9.14,2.51L10.35,8.46A31.87,31.87,0,0,1,32,0Z"/></g></g></svg>