<svg xmlns="http://www.w3.org/2000/svg" viewBox="0 0 552.73 265.13"><defs><style>.cls-1{fill:#b40e3d;}.cls-2{fill:#a00d3e;}.cls-3{fill:#00cb00;}.cls-4{fill:#38a643;}.cls-5{fill:#ffca22;}.cls-6{fill:#e1b41d;}.cls-7{fill:#ff003d;}.cls-8{fill:#d2193b;}.cls-9{fill:#fb6a4f;}.cls-10{fill:#dc604a;}.cls-11{fill:#00eaff;}.cls-12{fill:#07c5d3;}.cls-13{fill:#13e59a;}.cls-14{fill:#51ba87;}.cls-15{fill:#17191b;}</style></defs><title>Asset 30</title><g id="Layer_2" data-name="Layer 2"><g id="Layer_1-2" data-name="Layer 1"><path class="cls-1" d="M95.1,21.26s22.72-27.47,28.17-7.8S95.1,21.26,95.1,21.26Z" transform="translate(-54.07)"/><path class="cls-2" d="M94.91,21.1a19.8,19.8,0,0,1,1.54-3,34,34,0,0,1,5.45-6.76,25.77,25.77,0,0,1,4.65-3.64A17.44,17.44,0,0,1,113,5.52a13.24,13.24,0,0,1,3.72,0A8.32,8.32,0,0,1,120.26,7a15.08,15.08,0,0,1,4.33,6.12l.65,1.71c.17.64.35,1.32.48,2a9.1,9.1,0,0,1-.34,4.31,8.42,8.42,0,0,1-2.73,3.76,11.85,11.85,0,0,1-3.76,1.89,18.9,18.9,0,0,1-7,.61A34.07,34.07,0,0,1,106,26.33a42.19,42.19,0,0,1-4.68-1.57,37.75,37.75,0,0,1-3.44-1.58c-.93-.48-1.65-.91-2.13-1.21L95,21.49a.31.31,0,0,1-.12-.37Zm.9,0c.55,0,1.45.08,2.62.19,1,.08,2.26.18,3.66.32s3,.27,4.65.36,3.49.21,5.34.2a29,29,0,0,0,5.47-.41,8.17,8.17,0,0,0,2.28-.8,3.86,3.86,0,0,0,1.45-1.5,5.68,5.68,0,0,1,.25-.52l.18-.6.11-.31,0-.34L122,17c0-.47.07-.94.1-1.46l-.07-.88,0-.44,0-.22v-.19s0-.08,0,0l-.28-1.62c-.16-.51-.31-1-.49-1.54a7.34,7.34,0,0,0-.77-1.37c-.16-.2-.31-.41-.48-.61l-.57-.5a4.38,4.38,0,0,0-2.76-.91,7.16,7.16,0,0,0-2.84.8A35.26,35.26,0,0,0,109,11.4l-4.31,3.2c-2.7,2-5,3.81-6.67,5C97,20.27,96.27,20.76,95.81,21.07Z" transform="translate(-54.07)"/><path class="cls-1" d="M95.37,21.26S72.64-6.21,67.19,13.45,95.37,21.26,95.37,21.26Z" transform="translate(-54.07)"/><path class="cls-2" d="M94.66,21.07c-.47-.3-1.23-.79-2.19-1.48-1.69-1.17-4-2.94-6.67-5l-4.31-3.2a35.26,35.26,0,0,0-4.78-3.33,7.16,7.16,0,0,0-2.84-.8,4.38,4.38,0,0,0-2.76.91l-.57.5c-.17.2-.32.41-.48.61a7.34,7.34,0,0,0-.77,1.37c-.18.51-.34,1-.49,1.54l-.26,1.56-.14,1.76c0,.52.05,1,.1,1.46l.11.7,0,.34.11.31.18.6a5.68,5.68,0,0,1,.25.52,3.86,3.86,0,0,0,1.45,1.5,8.17,8.17,0,0,0,2.28.8,29,29,0,0,0,5.47.41c1.85,0,3.66-.1,5.34-.2s3.25-.25,4.65-.36S91,21.34,92,21.25C93.21,21.15,94.1,21.1,94.66,21.07Zm.79.43-.73.48c-.48.3-1.19.72-2.13,1.21a37.75,37.75,0,0,1-3.44,1.58,42.19,42.19,0,0,1-4.68,1.57,34.07,34.07,0,0,1-5.86,1.05,18.9,18.9,0,0,1-7-.61,11.85,11.85,0,0,1-3.76-1.89,8.42,8.42,0,0,1-2.73-3.76,9.1,9.1,0,0,1-.34-4.31c.13-.68.31-1.37.48-2l.63-1.65c0-.14,0-.05,0-.09v0l0-.05.05-.11.1-.21.2-.43.4-.84c.31-.55.62-1.1,1-1.63L68.2,9l.27-.38.33-.35c.22-.23.43-.47.65-.7l.75-.6a8.32,8.32,0,0,1,3.52-1.45,13.24,13.24,0,0,1,3.72,0,17.44,17.44,0,0,1,6.46,2.22,25.77,25.77,0,0,1,4.65,3.64A34,34,0,0,1,94,18.14a19.8,19.8,0,0,1,1.54,3v0A.31.31,0,0,1,95.45,21.49Z" transform="translate(-54.07)"/><rect class="cls-3" x="5.67" y="24.24" width="73" height="102.93" rx="9.72" ry="9.72"/><rect class="cls-1" x="34.83" y="34.83" width="14.67" height="88.35"/><rect class="cls-2" x="34.83" y="123.17" width="14.67" height="4"/><path class="cls-4" d="M127.59,25.38A9.67,9.67,0,0,1,128.74,30v83.5a9.72,9.72,0,0,1-9.72,9.72H103.57v4H123a9.72,9.72,0,0,0,9.72-9.72V34A9.71,9.71,0,0,0,127.59,25.38Z" transform="translate(-54.07)"/><path class="cls-4" d="M65.45,123.17A9.67,9.67,0,0,1,60.88,122a9.71,9.71,0,0,0,8.57,5.14H88.9v-4Z" transform="translate(-54.07)"/><rect class="cls-3" y="19.76" width="84.33" height="15.07" rx="5.71" ry="5.71"/><path class="cls-4" d="M59.78,30.83a5.7,5.7,0,0,1-5.7-5.53c0,.06,0,.11,0,.17v3.65a5.71,5.71,0,0,0,5.71,5.71H85.57v-4Z" transform="translate(-54.07)"/><rect class="cls-1" x="31.5" y="19.76" width="21.33" height="11.07"/><rect class="cls-2" x="31.5" y="30.83" width="21.33" height="4"/><path class="cls-4" d="M138.4,25.29a5.7,5.7,0,0,1-5.7,5.53H106.9v4H132.7a5.71,5.71,0,0,0,5.71-5.71V25.47C138.4,25.41,138.4,25.35,138.4,25.29Z" transform="translate(-54.07)"/><path class="cls-1" d="M396.26,134s22.72-27.47,28.17-7.8S396.26,134,396.26,134Z" transform="translate(-54.07)"/><path class="cls-2" d="M396.07,133.83a19.8,19.8,0,0,1,1.54-3,34,34,0,0,1,5.45-6.76,25.77,25.77,0,0,1,4.65-3.64,17.44,17.44,0,0,1,6.46-2.22,13.24,13.24,0,0,1,3.72,0,8.32,8.32,0,0,1,3.52,1.45,15.08,15.08,0,0,1,4.33,6.12l.65,1.71c.17.64.35,1.32.48,2a9.1,9.1,0,0,1-.34,4.31,8.42,8.42,0,0,1-2.73,3.76A11.85,11.85,0,0,1,420,139.5a18.9,18.9,0,0,1-7,.61,34.07,34.07,0,0,1-5.86-1.05,42.19,42.19,0,0,1-4.68-1.57,37.75,37.75,0,0,1-3.44-1.58c-.93-.48-1.65-.91-2.13-1.21l-.73-.48a.31.31,0,0,1-.12-.37Zm.9,0c.55,0,1.45.08,2.62.19,1,.08,2.26.18,3.66.32s3,.27,4.65.36,3.49.21,5.34.2a29,29,0,0,0,5.47-.41,8.17,8.17,0,0,0,2.28-.8,3.86,3.86,0,0,0,1.45-1.5,5.68,5.68,0,0,1,.25-.52l.18-.6.11-.31,0-.34.11-.7c0-.47.07-.94.1-1.46l-.07-.88,0-.44,0-.22v-.19s0-.08,0,0l-.28-1.62c-.16-.51-.31-1-.49-1.54a7.34,7.34,0,0,0-.77-1.37c-.16-.2-.31-.41-.48-.61l-.57-.5a4.38,4.38,0,0,0-2.76-.91,7.16,7.16,0,0,0-2.84.8,35.26,35.26,0,0,0-4.78,3.33l-4.31,3.2c-2.7,2-5,3.81-6.67,5C398.2,133,397.44,133.49,397,133.79Z" transform="translate(-54.07)"/><path class="cls-1" d="M396.53,134s-22.72-27.47-28.17-7.8S396.53,134,396.53,134Z" transform="translate(-54.07)"/><path class="cls-2" d="M395.82,133.79c-.47-.3-1.23-.79-2.19-1.48-1.69-1.17-4-2.94-6.67-5l-4.31-3.2a35.26,35.26,0,0,0-4.78-3.33A7.16,7.16,0,0,0,375,120a4.38,4.38,0,0,0-2.76.91l-.57.5c-.17.2-.32.41-.48.61a7.34,7.34,0,0,0-.77,1.37c-.18.51-.34,1-.49,1.54l-.26,1.56-.14,1.76c0,.52.05,1,.1,1.46l.11.7,0,.34.11.31.18.6a5.68,5.68,0,0,1,.25.52,3.86,3.86,0,0,0,1.45,1.5,8.17,8.17,0,0,0,2.28.8,29,29,0,0,0,5.47.41c1.85,0,3.66-.1,5.34-.2s3.25-.25,4.65-.36,2.63-.23,3.66-.32C394.37,133.88,395.27,133.83,395.82,133.79Zm.79.43-.73.48c-.48.3-1.19.72-2.13,1.21a37.75,37.75,0,0,1-3.44,1.58,42.19,42.19,0,0,1-4.68,1.57,34.07,34.07,0,0,1-5.86,1.05,18.9,18.9,0,0,1-7-.61,11.85,11.85,0,0,1-3.76-1.89,8.42,8.42,0,0,1-2.73-3.76,9.1,9.1,0,0,1-.34-4.31c.13-.68.31-1.37.48-2l.63-1.65c0-.14,0-.05,0-.09v0l0-.05.05-.11.1-.21.2-.43.4-.84c.31-.55.62-1.1,1-1.63l.56-.77.27-.38L370,121c.22-.23.43-.47.65-.7l.75-.6a8.32,8.32,0,0,1,3.52-1.45,13.24,13.24,0,0,1,3.72,0,17.44,17.44,0,0,1,6.46,2.22,25.77,25.77,0,0,1,4.65,3.64,34,34,0,0,1,5.45,6.76,19.8,19.8,0,0,1,1.54,3v0A.31.31,0,0,1,396.61,134.22Z" transform="translate(-54.07)"/><rect class="cls-5" x="306.83" y="136.97" width="73" height="102.93" rx="9.72" ry="9.72"/><rect class="cls-1" x="336" y="147.55" width="14.67" height="88.35"/><rect class="cls-2" x="336" y="235.9" width="14.67" height="4"/><path class="cls-6" d="M428.76,138.11a9.67,9.67,0,0,1,1.14,4.57v83.5a9.72,9.72,0,0,1-9.72,9.72H404.73v4h19.45a9.72,9.72,0,0,0,9.72-9.72v-83.5A9.71,9.71,0,0,0,428.76,138.11Z" transform="translate(-54.07)"/><path class="cls-6" d="M366.62,235.9a9.67,9.67,0,0,1-4.57-1.14,9.71,9.71,0,0,0,8.57,5.14h19.45v-4Z" transform="translate(-54.07)"/><rect class="cls-5" x="301.16" y="132.49" width="84.33" height="15.07" rx="5.71" ry="5.71"/><path class="cls-6" d="M360.94,143.55a5.7,5.7,0,0,1-5.7-5.53c0,.06,0,.11,0,.17v3.65a5.71,5.71,0,0,0,5.71,5.71h25.79v-4Z" transform="translate(-54.07)"/><rect class="cls-1" x="332.66" y="132.49" width="21.33" height="11.07"/><rect class="cls-2" x="332.66" y="143.55" width="21.33" height="4"/><path class="cls-6" d="M439.56,138a5.7,5.7,0,0,1-5.7,5.53H408.07v4h25.79a5.71,5.71,0,0,0,5.71-5.71v-3.65C439.57,138.14,439.56,138.08,439.56,138Z" transform="translate(-54.07)"/><path class="cls-1" d="M286.42,40.82s22.72-27.47,28.17-7.8S286.42,40.82,286.42,40.82Z" transform="translate(-54.07)"/><path class="cls-2" d="M286.23,40.66a19.8,19.8,0,0,1,1.54-3,34,34,0,0,1,5.45-6.76,25.77,25.77,0,0,1,4.65-3.64,17.44,17.44,0,0,1,6.46-2.22,13.24,13.24,0,0,1,3.72,0,8.32,8.32,0,0,1,3.52,1.45,15.08,15.08,0,0,1,4.33,6.12l.65,1.71c.17.64.35,1.32.48,2a9.1,9.1,0,0,1-.34,4.31A8.42,8.42,0,0,1,314,44.45a11.85,11.85,0,0,1-3.76,1.89,18.9,18.9,0,0,1-7,.61,34.06,34.06,0,0,1-5.86-1.05,42.19,42.19,0,0,1-4.68-1.57,37.75,37.75,0,0,1-3.44-1.58c-.93-.48-1.65-.91-2.13-1.21l-.73-.48a.31.31,0,0,1-.12-.37Zm.9,0c.55,0,1.45.08,2.62.19,1,.08,2.26.18,3.66.32s3,.27,4.65.36,3.49.21,5.34.2a29,29,0,0,0,5.47-.41,8.17,8.17,0,0,0,2.28-.8A3.86,3.86,0,0,0,312.6,39a5.68,5.68,0,0,1,.25-.52l.18-.6.11-.31,0-.34.11-.7c0-.47.07-.94.1-1.46l-.07-.88,0-.44,0-.22v-.19s0-.08,0,0L313,31.76c-.16-.51-.31-1-.49-1.54a7.34,7.34,0,0,0-.77-1.37c-.16-.2-.31-.41-.48-.61l-.57-.5a4.38,4.38,0,0,0-2.76-.91,7.16,7.16,0,0,0-2.84.8A35.26,35.26,0,0,0,300.29,31L296,34.17c-2.7,2-5,3.81-6.67,5C288.36,39.84,287.59,40.33,287.13,40.63Z" transform="translate(-54.07)"/><path class="cls-1" d="M286.69,40.82S264,13.35,258.51,33,286.69,40.82,286.69,40.82Z" transform="translate(-54.07)"/><path class="cls-2" d="M286,40.63c-.47-.3-1.23-.79-2.19-1.48-1.69-1.17-4-2.94-6.67-5L272.81,31A35.26,35.26,0,0,0,268,27.63a7.16,7.16,0,0,0-2.84-.8,4.38,4.38,0,0,0-2.76.91l-.57.5c-.17.2-.32.41-.48.61a7.34,7.34,0,0,0-.77,1.37c-.18.51-.34,1-.49,1.54l-.26,1.56-.14,1.76c0,.52.05,1,.1,1.46l.11.7,0,.34.11.31.18.6a5.68,5.68,0,0,1,.25.52A3.86,3.86,0,0,0,262,40.5a8.17,8.17,0,0,0,2.28.8,29,29,0,0,0,5.47.41c1.85,0,3.66-.1,5.34-.2s3.25-.25,4.65-.36,2.63-.23,3.66-.32C284.53,40.71,285.42,40.66,286,40.63Zm.79.43-.73.48c-.48.3-1.19.72-2.13,1.21a37.75,37.75,0,0,1-3.44,1.58,42.18,42.18,0,0,1-4.68,1.57A34.07,34.07,0,0,1,269.93,47a18.9,18.9,0,0,1-7-.61,11.85,11.85,0,0,1-3.76-1.89,8.42,8.42,0,0,1-2.73-3.76,9.1,9.1,0,0,1-.34-4.31c.13-.68.31-1.37.48-2l.63-1.65c0-.14,0-.05,0-.09v0l0-.05.05-.11.1-.21.2-.43L258,31c.31-.55.62-1.1,1-1.63l.56-.77.27-.38.33-.35c.22-.23.43-.47.65-.7l.75-.6a8.32,8.32,0,0,1,3.52-1.45,13.24,13.24,0,0,1,3.72,0,17.44,17.44,0,0,1,6.46,2.22,25.77,25.77,0,0,1,4.65,3.64,34,34,0,0,1,5.45,6.76,19.8,19.8,0,0,1,1.54,3v0A.31.31,0,0,1,286.77,41.06Z" transform="translate(-54.07)"/><rect class="cls-7" x="196.99" y="43.8" width="73" height="132.93" rx="9.72" ry="9.72"/><rect class="cls-1" x="226.15" y="54.39" width="14.67" height="118.35"/><rect class="cls-2" x="226.15" y="172.74" width="14.67" height="4"/><path class="cls-8" d="M318.91,44.94a9.67,9.67,0,0,1,1.14,4.57V163a9.72,9.72,0,0,1-9.72,9.72H294.89v4h19.45a9.72,9.72,0,0,0,9.72-9.72V53.52A9.71,9.71,0,0,0,318.91,44.94Z" transform="translate(-54.07)"/><path class="cls-8" d="M256.77,172.74a9.67,9.67,0,0,1-4.57-1.14,9.71,9.71,0,0,0,8.57,5.14h19.45v-4Z" transform="translate(-54.07)"/><rect class="cls-7" x="191.32" y="39.32" width="84.33" height="15.07" rx="5.71" ry="5.71"/><path class="cls-8" d="M251.09,50.39a5.7,5.7,0,0,1-5.7-5.53c0,.06,0,.11,0,.17v3.65a5.71,5.71,0,0,0,5.71,5.71h25.79v-4Z" transform="translate(-54.07)"/><rect class="cls-1" x="222.82" y="39.32" width="21.33" height="11.07"/><rect class="cls-2" x="222.82" y="50.39" width="21.33" height="4"/><path class="cls-8" d="M329.71,44.86a5.7,5.7,0,0,1-5.7,5.53H298.22v4H324a5.71,5.71,0,0,0,5.71-5.71V45C329.72,45,329.72,44.91,329.71,44.86Z" transform="translate(-54.07)"/><path class="cls-1" d="M563.5,139.22s22.72-27.47,28.17-7.8S563.5,139.22,563.5,139.22Z" transform="translate(-54.07)"/><path class="cls-2" d="M563.31,139.06a19.8,19.8,0,0,1,1.54-3,34,34,0,0,1,5.45-6.76,25.77,25.77,0,0,1,4.65-3.64,17.44,17.44,0,0,1,6.46-2.22,13.24,13.24,0,0,1,3.72,0,8.32,8.32,0,0,1,3.52,1.45A15.08,15.08,0,0,1,593,131l.65,1.71c.17.64.35,1.32.48,2a9.1,9.1,0,0,1-.34,4.31,8.42,8.42,0,0,1-2.73,3.76,11.85,11.85,0,0,1-3.76,1.89,18.9,18.9,0,0,1-7,.61,34.07,34.07,0,0,1-5.86-1.05,42.19,42.19,0,0,1-4.68-1.57,37.75,37.75,0,0,1-3.44-1.58c-.93-.48-1.65-.91-2.13-1.21l-.73-.48a.31.31,0,0,1-.12-.37Zm.9,0c.55,0,1.45.08,2.62.19,1,.08,2.26.18,3.66.32s3,.27,4.65.36,3.49.21,5.34.2a29,29,0,0,0,5.47-.41,8.17,8.17,0,0,0,2.28-.8,3.86,3.86,0,0,0,1.45-1.5,5.68,5.68,0,0,1,.25-.52l.18-.6.11-.31,0-.34.11-.7c0-.47.07-.94.1-1.46l-.07-.88,0-.44,0-.22v-.19s0-.08,0,0l-.28-1.62c-.16-.51-.31-1-.49-1.54a7.34,7.34,0,0,0-.77-1.37c-.16-.2-.31-.41-.48-.61l-.57-.5a4.38,4.38,0,0,0-2.76-.91,7.16,7.16,0,0,0-2.84.8,35.26,35.26,0,0,0-4.78,3.33l-4.31,3.2c-2.7,2-5,3.81-6.67,5C565.44,138.23,564.67,138.72,564.21,139Z" transform="translate(-54.07)"/><path class="cls-1" d="M563.77,139.22s-22.72-27.47-28.17-7.8S563.77,139.22,563.77,139.22Z" transform="translate(-54.07)"/><path class="cls-2" d="M563.06,139c-.47-.3-1.23-.79-2.19-1.48-1.69-1.17-4-2.94-6.67-5l-4.31-3.2a35.26,35.26,0,0,0-4.78-3.33,7.16,7.16,0,0,0-2.84-.8,4.38,4.38,0,0,0-2.76.91l-.57.5c-.17.2-.32.41-.48.61a7.34,7.34,0,0,0-.77,1.37c-.18.51-.34,1-.49,1.54l-.26,1.56-.14,1.76c0,.52.05,1,.1,1.46l.11.7,0,.34.11.31.18.6a5.68,5.68,0,0,1,.25.52,3.86,3.86,0,0,0,1.45,1.5,8.17,8.17,0,0,0,2.28.8,29,29,0,0,0,5.47.41c1.85,0,3.66-.1,5.34-.2s3.25-.25,4.65-.36,2.63-.23,3.66-.32C561.61,139.11,562.5,139.06,563.06,139Zm.79.43-.73.48c-.48.3-1.19.72-2.13,1.21a37.75,37.75,0,0,1-3.44,1.58,42.19,42.19,0,0,1-4.68,1.57,34.07,34.07,0,0,1-5.86,1.05,18.9,18.9,0,0,1-7-.61,11.85,11.85,0,0,1-3.76-1.89,8.42,8.42,0,0,1-2.73-3.76,9.1,9.1,0,0,1-.34-4.31c.13-.68.31-1.37.48-2l.63-1.65c0-.14,0-.05,0-.09v0l0-.05.05-.11.1-.21.2-.43.4-.84c.31-.55.62-1.1,1-1.63l.56-.77.27-.38.33-.35c.22-.23.43-.47.65-.7l.75-.6a8.32,8.32,0,0,1,3.52-1.45,13.24,13.24,0,0,1,3.72,0,17.44,17.44,0,0,1,6.46,2.22,25.77,25.77,0,0,1,4.65,3.64,34,34,0,0,1,5.45,6.76,19.8,19.8,0,0,1,1.54,3v0A.31.31,0,0,1,563.85,139.45Z" transform="translate(-54.07)"/><rect class="cls-9" x="474.07" y="142.2" width="73" height="122.93" rx="9.72" ry="9.72"/><rect class="cls-1" x="503.23" y="152.79" width="14.67" height="108.35"/><rect class="cls-2" x="503.23" y="261.13" width="14.67" height="4"/><path class="cls-10" d="M596,143.34a9.67,9.67,0,0,1,1.14,4.57v103.5a9.72,9.72,0,0,1-9.72,9.72H572v4h19.45a9.72,9.72,0,0,0,9.72-9.72V151.92A9.71,9.71,0,0,0,596,143.34Z" transform="translate(-54.07)"/><path class="cls-10" d="M533.85,261.13a9.67,9.67,0,0,1-4.57-1.14,9.71,9.71,0,0,0,8.57,5.14H557.3v-4Z" transform="translate(-54.07)"/><rect class="cls-9" x="468.4" y="137.72" width="84.33" height="15.07" rx="5.71" ry="5.71"/><path class="cls-10" d="M528.18,148.79a5.7,5.7,0,0,1-5.7-5.53c0,.06,0,.11,0,.17v3.65a5.71,5.71,0,0,0,5.71,5.71H554v-4Z" transform="translate(-54.07)"/><rect class="cls-1" x="499.9" y="137.72" width="21.33" height="11.07"/><rect class="cls-2" x="499.9" y="148.79" width="21.33" height="4"/><path class="cls-10" d="M606.8,143.25a5.7,5.7,0,0,1-5.7,5.53H575.3v4H601.1a5.71,5.71,0,0,0,5.71-5.71v-3.65C606.8,143.37,606.8,143.31,606.8,143.25Z" transform="translate(-54.07)"/><path class="cls-1" d="M166.08,189.63s22.72-27.47,28.17-7.8S166.08,189.63,166.08,189.63Z" transform="translate(-54.07)"/><path class="cls-2" d="M165.89,189.47a19.8,19.8,0,0,1,1.54-3,34,34,0,0,1,5.45-6.76,25.77,25.77,0,0,1,4.65-3.64,17.44,17.44,0,0,1,6.46-2.22,13.24,13.24,0,0,1,3.72,0,8.32,8.32,0,0,1,3.52,1.45,15.08,15.08,0,0,1,4.33,6.12l.65,1.71c.17.64.35,1.32.48,2a9.1,9.1,0,0,1-.34,4.31,8.42,8.42,0,0,1-2.73,3.76,11.85,11.85,0,0,1-3.76,1.89,18.9,18.9,0,0,1-7,.61,34.06,34.06,0,0,1-5.86-1.05,42.19,42.19,0,0,1-4.68-1.57,37.75,37.75,0,0,1-3.44-1.58c-.93-.48-1.65-.91-2.13-1.21l-.73-.48a.31.31,0,0,1-.12-.37Zm.9,0c.55,0,1.45.08,2.62.19,1,.08,2.26.18,3.66.32s3,.27,4.65.36,3.49.21,5.34.2a29,29,0,0,0,5.47-.41,8.17,8.17,0,0,0,2.28-.8,3.86,3.86,0,0,0,1.45-1.5,5.68,5.68,0,0,1,.25-.52l.18-.6.11-.31,0-.34.11-.7c0-.47.07-.94.1-1.46L193,183l0-.44,0-.22v-.19s0-.08,0,0l-.28-1.62c-.16-.51-.31-1-.49-1.54a7.34,7.34,0,0,0-.77-1.37c-.16-.2-.31-.41-.48-.61l-.57-.5a4.38,4.38,0,0,0-2.76-.91,7.16,7.16,0,0,0-2.84.8,35.26,35.26,0,0,0-4.78,3.33l-4.31,3.2c-2.7,2-5,3.81-6.67,5C168,188.65,167.26,189.14,166.79,189.44Z" transform="translate(-54.07)"/><path class="cls-1" d="M166.35,189.63s-22.72-27.47-28.17-7.8S166.35,189.63,166.35,189.63Z" transform="translate(-54.07)"/><path class="cls-2" d="M165.64,189.44c-.47-.3-1.23-.79-2.19-1.48-1.69-1.17-4-2.94-6.67-5l-4.31-3.2a35.26,35.26,0,0,0-4.78-3.33,7.16,7.16,0,0,0-2.84-.8,4.38,4.38,0,0,0-2.76.91l-.57.5c-.17.2-.32.41-.48.61a7.34,7.34,0,0,0-.77,1.37c-.18.51-.34,1-.49,1.54l-.26,1.56-.14,1.76c0,.52.05,1,.1,1.46l.11.7,0,.34.11.31.18.6a5.68,5.68,0,0,1,.25.52,3.86,3.86,0,0,0,1.45,1.5,8.17,8.17,0,0,0,2.28.8,29,29,0,0,0,5.47.41c1.85,0,3.66-.1,5.34-.2s3.25-.25,4.65-.36,2.63-.23,3.66-.32C164.19,189.52,165.09,189.47,165.64,189.44Zm.79.43-.73.48c-.48.3-1.19.72-2.13,1.21a37.75,37.75,0,0,1-3.44,1.58,42.19,42.19,0,0,1-4.68,1.57,34.06,34.06,0,0,1-5.86,1.05,18.9,18.9,0,0,1-7-.61,11.85,11.85,0,0,1-3.76-1.89,8.42,8.42,0,0,1-2.73-3.76,9.1,9.1,0,0,1-.34-4.31c.13-.68.31-1.37.48-2l.63-1.65c0-.14,0-.05,0-.09v0l0-.05.05-.11.1-.21.2-.43.4-.84c.31-.55.62-1.1,1-1.63l.56-.77.27-.38.33-.35c.22-.23.43-.47.65-.7l.75-.6a8.32,8.32,0,0,1,3.52-1.45,13.24,13.24,0,0,1,3.72,0,17.44,17.44,0,0,1,6.46,2.22,25.77,25.77,0,0,1,4.65,3.64,34,34,0,0,1,5.45,6.76,19.8,19.8,0,0,1,1.54,3v0A.31.31,0,0,1,166.43,189.87Z" transform="translate(-54.07)"/><rect class="cls-11" x="56.65" y="192.61" width="113" height="69.93" rx="9.72" ry="9.72"/><rect class="cls-1" x="95.82" y="203.2" width="34.67" height="55.35"/><rect class="cls-2" x="95.82" y="258.55" width="34.67" height="4"/><path class="cls-12" d="M218.58,193.75a9.67,9.67,0,0,1,1.14,4.57v50.5a9.72,9.72,0,0,1-9.72,9.72H184.56v4H214a9.72,9.72,0,0,0,9.72-9.72v-50.5A9.71,9.71,0,0,0,218.58,193.75Z" transform="translate(-54.07)"/><path class="cls-12" d="M116.44,258.55a9.67,9.67,0,0,1-4.57-1.14,9.71,9.71,0,0,0,8.57,5.14h29.45v-4Z" transform="translate(-54.07)"/><rect class="cls-11" x="50.99" y="188.13" width="124.33" height="15.07" rx="5.71" ry="5.71"/><path class="cls-12" d="M110.76,199.2a5.7,5.7,0,0,1-5.7-5.53c0,.06,0,.11,0,.17v3.65a5.71,5.71,0,0,0,5.71,5.71h35.79v-4Z" transform="translate(-54.07)"/><rect class="cls-1" x="92.49" y="188.13" width="41.33" height="11.07"/><rect class="cls-2" x="92.49" y="199.2" width="41.33" height="4"/><path class="cls-12" d="M229.38,193.67a5.7,5.7,0,0,1-5.7,5.53H187.89v4h35.79a5.71,5.71,0,0,0,5.71-5.71v-3.65C229.39,193.78,229.38,193.72,229.38,193.67Z" transform="translate(-54.07)"/><path class="cls-1" d="M479.91,15.87s22.72-27.47,28.17-7.8S479.91,15.87,479.91,15.87Z" transform="translate(-54.07)"/><path class="cls-2" d="M479.72,15.71a19.8,19.8,0,0,1,1.54-3A34,34,0,0,1,486.71,6a25.77,25.77,0,0,1,4.65-3.64A17.44,17.44,0,0,1,497.83.13a13.24,13.24,0,0,1,3.72,0,8.32,8.32,0,0,1,3.52,1.45,15.08,15.08,0,0,1,4.33,6.12l.65,1.71c.17.64.35,1.32.48,2a9.1,9.1,0,0,1-.34,4.31,8.42,8.42,0,0,1-2.73,3.76,11.85,11.85,0,0,1-3.76,1.89,18.9,18.9,0,0,1-7,.61A34.07,34.07,0,0,1,490.81,21a42.19,42.19,0,0,1-4.68-1.57,37.75,37.75,0,0,1-3.44-1.58c-.93-.48-1.65-.91-2.13-1.21l-.73-.48a.31.31,0,0,1-.12-.37Zm.9,0c.55,0,1.45.08,2.62.19,1,.08,2.26.18,3.66.32s3,.27,4.65.36,3.49.21,5.34.2a29,29,0,0,0,5.47-.41,8.17,8.17,0,0,0,2.28-.8,3.86,3.86,0,0,0,1.45-1.5,5.68,5.68,0,0,1,.25-.52l.18-.6.11-.31,0-.34.11-.7c0-.47.07-.94.1-1.46l-.07-.88,0-.44,0-.22V8.4s0-.08,0,0l-.28-1.62c-.16-.51-.31-1-.49-1.54a7.34,7.34,0,0,0-.77-1.37c-.16-.2-.31-.41-.48-.61l-.57-.5a4.38,4.38,0,0,0-2.76-.91,7.16,7.16,0,0,0-2.84.8A35.26,35.26,0,0,0,493.79,6l-4.31,3.2c-2.7,2-5,3.81-6.67,5C481.85,14.89,481.09,15.38,480.62,15.68Z" transform="translate(-54.07)"/><path class="cls-1" d="M480.18,15.87S457.46-11.59,452,8.07,480.18,15.87,480.18,15.87Z" transform="translate(-54.07)"/><path class="cls-2" d="M479.47,15.68c-.47-.3-1.23-.79-2.19-1.48-1.69-1.17-4-2.94-6.67-5L466.31,6a35.26,35.26,0,0,0-4.78-3.33,7.16,7.16,0,0,0-2.84-.8,4.38,4.38,0,0,0-2.76.91l-.57.5c-.17.2-.32.41-.48.61a7.34,7.34,0,0,0-.77,1.37c-.18.51-.34,1-.49,1.54l-.26,1.56-.14,1.76c0,.52.05,1,.1,1.46l.11.7,0,.34.11.31.18.6a5.68,5.68,0,0,1,.25.52,3.86,3.86,0,0,0,1.45,1.5,8.17,8.17,0,0,0,2.28.8,29,29,0,0,0,5.47.41c1.85,0,3.66-.1,5.34-.2s3.25-.25,4.65-.36,2.63-.23,3.66-.32C478,15.77,478.92,15.72,479.47,15.68Zm.79.43-.73.48c-.48.3-1.19.72-2.13,1.21A37.75,37.75,0,0,1,474,19.38,42.19,42.19,0,0,1,469.29,21,34.06,34.06,0,0,1,463.43,22a18.9,18.9,0,0,1-7-.61,11.85,11.85,0,0,1-3.76-1.89,8.42,8.42,0,0,1-2.73-3.76,9.1,9.1,0,0,1-.34-4.31c.13-.68.31-1.37.48-2l.63-1.65c0-.14,0-.05,0-.09v0l0-.05.05-.11.1-.21.2-.43.4-.84c.31-.55.62-1.1,1-1.63l.56-.77.27-.38.33-.35c.22-.23.43-.47.65-.7l.75-.6A8.32,8.32,0,0,1,458.55.13a13.24,13.24,0,0,1,3.72,0,17.44,17.44,0,0,1,6.46,2.22A25.77,25.77,0,0,1,473.38,6a34,34,0,0,1,5.45,6.76,19.8,19.8,0,0,1,1.54,3v0A.31.31,0,0,1,480.27,16.11Z" transform="translate(-54.07)"/><rect class="cls-13" x="370.48" y="18.85" width="113" height="69.93" rx="9.72" ry="9.72"/><rect class="cls-1" x="409.65" y="29.44" width="34.67" height="55.35"/><rect class="cls-2" x="409.65" y="84.79" width="34.67" height="4"/><path class="cls-14" d="M532.41,20a9.67,9.67,0,0,1,1.14,4.57v50.5a9.72,9.72,0,0,1-9.72,9.72H498.39v4h29.45a9.72,9.72,0,0,0,9.72-9.72V28.57A9.71,9.71,0,0,0,532.41,20Z" transform="translate(-54.07)"/><path class="cls-14" d="M430.27,84.79a9.67,9.67,0,0,1-4.57-1.14,9.71,9.71,0,0,0,8.57,5.14h29.45v-4Z" transform="translate(-54.07)"/><rect class="cls-13" x="364.82" y="14.38" width="124.33" height="15.07" rx="5.71" ry="5.71"/><path class="cls-14" d="M424.59,25.44a5.7,5.7,0,0,1-5.7-5.53c0,.06,0,.11,0,.17v3.65a5.71,5.71,0,0,0,5.71,5.71h35.79v-4Z" transform="translate(-54.07)"/><rect class="cls-1" x="406.32" y="14.38" width="41.33" height="11.07"/><rect class="cls-2" x="406.32" y="25.44" width="41.33" height="4"/><path class="cls-14" d="M543.21,19.91a5.7,5.7,0,0,1-5.7,5.53H501.72v4h35.79a5.71,5.71,0,0,0,5.71-5.71V20.08C543.22,20,543.21,20,543.21,19.91Z" transform="translate(-54.07)"/><path class="cls-15" d="M0,128.31" transform="translate(-54.07)"/></g></g></svg>