<svg xmlns="http://www.w3.org/2000/svg" viewBox="0 0 124.33 88.79"><defs><style>.cls-1{fill:#b40e3d;}.cls-2{fill:#a00d3e;}.cls-3{fill:#00eaff;}.cls-4{fill:#07c5d3;}</style></defs><title>Asset 15</title><g id="Layer_2" data-name="Layer 2"><g id="Layer_1-2" data-name="Layer 1"><path class="cls-1" d="M61,15.87S83.75-11.59,89.2,8.07,61,15.87,61,15.87Z"/><path class="cls-2" d="M60.84,15.71a19.8,19.8,0,0,1,1.54-3A34,34,0,0,1,67.83,6a25.77,25.77,0,0,1,4.65-3.64A17.44,17.44,0,0,1,78.94.13a13.24,13.24,0,0,1,3.72,0,8.32,8.32,0,0,1,3.52,1.45,15.08,15.08,0,0,1,4.33,6.12l.65,1.71c.17.64.35,1.32.48,2a9.1,9.1,0,0,1-.34,4.31,8.42,8.42,0,0,1-2.73,3.76,11.85,11.85,0,0,1-3.76,1.89,18.9,18.9,0,0,1-7,.61A34.07,34.07,0,0,1,71.92,21a42.19,42.19,0,0,1-4.68-1.57A37.75,37.75,0,0,1,63.8,17.8c-.93-.48-1.65-.91-2.13-1.21l-.73-.48a.31.31,0,0,1-.12-.37Zm.9,0c.55,0,1.45.08,2.62.19,1,.08,2.26.18,3.66.32s3,.27,4.65.36,3.49.21,5.34.2a29,29,0,0,0,5.47-.41,8.17,8.17,0,0,0,2.28-.8,3.86,3.86,0,0,0,1.45-1.5,5.68,5.68,0,0,1,.25-.52l.18-.6.11-.31,0-.34.11-.7c0-.47.07-.94.1-1.46l-.07-.88,0-.44,0-.22V8.4s0-.08,0,0L87.6,6.82c-.16-.51-.31-1-.49-1.54a7.34,7.34,0,0,0-.77-1.37c-.16-.2-.31-.41-.48-.61l-.57-.5a4.38,4.38,0,0,0-2.76-.91,7.16,7.16,0,0,0-2.84.8A35.26,35.26,0,0,0,74.9,6L70.6,9.22c-2.7,2-5,3.81-6.67,5C63,14.89,62.2,15.38,61.74,15.68Z"/><path class="cls-1" d="M61.3,15.87S38.57-11.59,33.12,8.07,61.3,15.87,61.3,15.87Z"/><path class="cls-2" d="M60.59,15.68c-.47-.3-1.23-.79-2.19-1.48-1.69-1.17-4-2.94-6.67-5L47.42,6a35.26,35.26,0,0,0-4.78-3.33,7.16,7.16,0,0,0-2.84-.8A4.38,4.38,0,0,0,37,2.8l-.57.5c-.17.2-.32.41-.48.61a7.34,7.34,0,0,0-.77,1.37c-.18.51-.34,1-.49,1.54l-.26,1.56-.14,1.76c0,.52.05,1,.1,1.46l.11.7,0,.34.11.31.18.6a5.68,5.68,0,0,1,.25.52,3.86,3.86,0,0,0,1.45,1.5,8.17,8.17,0,0,0,2.28.8,29,29,0,0,0,5.47.41c1.85,0,3.66-.1,5.34-.2s3.25-.25,4.65-.36S56.94,16,58,15.87C59.14,15.77,60,15.72,60.59,15.68Zm.79.43-.73.48c-.48.3-1.19.72-2.13,1.21a37.75,37.75,0,0,1-3.44,1.58A42.19,42.19,0,0,1,50.4,21,34.07,34.07,0,0,1,44.54,22a18.9,18.9,0,0,1-7-.61,11.85,11.85,0,0,1-3.76-1.89A8.42,8.42,0,0,1,31,15.74a9.1,9.1,0,0,1-.34-4.31c.13-.68.31-1.37.48-2l.63-1.65c0-.14,0-.05,0-.09v0l0-.05.05-.11.1-.21.2-.43.4-.84c.31-.55.62-1.1,1-1.63l.56-.77.27-.38.33-.35c.22-.23.43-.47.65-.7l.75-.6A8.32,8.32,0,0,1,39.66.13a13.24,13.24,0,0,1,3.72,0,17.44,17.44,0,0,1,6.46,2.22A25.77,25.77,0,0,1,54.5,6a34,34,0,0,1,5.45,6.76,19.8,19.8,0,0,1,1.54,3v0A.31.31,0,0,1,61.38,16.11Z"/><rect class="cls-3" x="5.67" y="18.85" width="113" height="69.93" rx="9.72" ry="9.72"/><rect class="cls-1" x="44.83" y="29.44" width="34.67" height="55.35"/><rect class="cls-2" x="44.83" y="84.79" width="34.67" height="4"/><path class="cls-4" d="M113.52,20a9.67,9.67,0,0,1,1.14,4.57v50.5A9.72,9.72,0,0,1,105,84.79H79.5v4H109a9.72,9.72,0,0,0,9.72-9.72V28.57A9.71,9.71,0,0,0,113.52,20Z"/><path class="cls-4" d="M11.38,84.79a9.67,9.67,0,0,1-4.57-1.14,9.71,9.71,0,0,0,8.57,5.14H44.83v-4Z"/><rect class="cls-3" y="14.38" width="124.33" height="15.07" rx="5.71" ry="5.71"/><path class="cls-4" d="M5.71,25.44A5.7,5.7,0,0,1,0,19.91C0,20,0,20,0,20.08v3.65a5.71,5.71,0,0,0,5.71,5.71H41.5v-4Z"/><rect class="cls-1" x="41.5" y="14.38" width="41.33" height="11.07"/><rect class="cls-2" x="41.5" y="25.44" width="41.33" height="4"/><path class="cls-4" d="M124.33,19.91a5.7,5.7,0,0,1-5.7,5.53H82.83v4h35.79a5.71,5.71,0,0,0,5.71-5.71V20.08C124.33,20,124.33,20,124.33,19.91Z"/></g></g></svg>