<svg xmlns="http://www.w3.org/2000/svg" viewBox="0 0 89.53 89.93"><defs><style>.cls-1{fill:#13e59a;}.cls-2{fill:none;stroke:#00db92;stroke-linecap:round;stroke-linejoin:round;stroke-width:4px;}.cls-3{fill:#b40e3d;}.cls-4{fill:#a00d3e;}</style></defs><title>Asset 22</title><g id="Layer_2" data-name="Layer 2"><g id="Layer_1-2" data-name="Layer 1"><path class="cls-1" d="M37.06,6.41l-.29.3a6.2,6.2,0,0,1,0,.71c0,3.17-2.41,5.9-5.9,7.21a8.19,8.19,0,0,1,.68,3.25c0,3.22-1.92,6.11-4.94,8a11.65,11.65,0,0,1,4.94,9.15,10.56,10.56,0,0,1-1.91,6c4.15,1.09,7.13,4.08,7.13,7.6a6.23,6.23,0,0,1-.22,1.63c4.56.1,8.22,2.93,8.22,6.42,0-3.2,3.08-5.85,7.1-6.34a6.23,6.23,0,0,1-.24-1.71c0-3.78,3.42-6.93,8-7.8a10.51,10.51,0,0,1-1.78-5.76,11.65,11.65,0,0,1,4.94-9.15c-3-1.92-4.94-4.8-4.94-8a8.16,8.16,0,0,1,.56-2.95c-4-1.16-6.81-4.08-6.81-7.51a6.19,6.19,0,0,1,.11-1.09c-4-.54-7-3.16-7-6.33C44.82,3.37,41.4,6.13,37.06,6.41Z"/><path class="cls-1" d="M47.2,66l-.11.4a6.2,6.2,0,0,0-.64.32c-2.72,1.61-3.85,5.08-3.2,8.76a8.19,8.19,0,0,0-3.14,1.07c-2.78,1.64-4.28,4.76-4.39,8.34a11.65,11.65,0,0,0-10.39.41,10.56,10.56,0,0,0-4.16,4.68c-3.05-3-7.14-4.06-10.17-2.26a6.23,6.23,0,0,0-1.29,1C7.31,84.81,3,83.11,0,84.89c2.76-1.63,3.47-5.63,1.84-9.35a6.23,6.23,0,0,0,1.59-.66C6.68,73,7.66,68.41,6.06,64a10.51,10.51,0,0,0,5.87-1.4,11.65,11.65,0,0,0,5.36-8.91c3.19,1.62,6.65,1.8,9.42.16a8.16,8.16,0,0,0,2.25-2c3,2.84,7,3.78,9.94,2a6.19,6.19,0,0,0,.88-.65c2.48,3.13,6.27,4.39,9,2.77C45.86,57.74,45.22,62.08,47.2,66Z"/><path class="cls-1" d="M42.33,66l.11.4a6.2,6.2,0,0,1,.64.32c2.72,1.61,3.85,5.08,3.2,8.76a8.19,8.19,0,0,1,3.14,1.07c2.78,1.64,4.28,4.76,4.39,8.34a11.65,11.65,0,0,1,10.39.41,10.56,10.56,0,0,1,4.16,4.68c3.05-3,7.14-4.06,10.17-2.26a6.23,6.23,0,0,1,1.29,1c2.41-3.87,6.71-5.58,9.71-3.8-2.76-1.63-3.47-5.63-1.84-9.35a6.23,6.23,0,0,1-1.59-.66C82.85,73,81.87,68.41,83.47,64a10.51,10.51,0,0,1-5.87-1.4,11.65,11.65,0,0,1-5.36-8.91c-3.19,1.62-6.65,1.8-9.42.16a8.16,8.16,0,0,1-2.25-2c-3,2.84-7,3.78-9.94,2a6.19,6.19,0,0,1-.88-.65c-2.48,3.13-6.27,4.39-9,2.77C43.67,57.74,44.3,62.08,42.33,66Z"/><line class="cls-2" x1="44.45" y1="47.87" x2="44.45" y2="19.17"/><line class="cls-2" x1="18.12" y1="74.1" x2="41.95" y2="58.42"/><line class="cls-2" x1="69.73" y1="73.77" x2="46.4" y2="58.42"/><circle class="cls-3" cx="44.39" cy="62.25" r="9.38"/><path class="cls-4" d="M49.94,54.7a9.37,9.37,0,0,1-13.1,13.1,9.37,9.37,0,1,0,13.1-13.1Z"/><circle class="cls-3" cx="53.77" cy="50.55" r="9.38"/><path class="cls-4" d="M59.32,43a9.37,9.37,0,0,1-13.1,13.1A9.37,9.37,0,1,0,59.32,43Z"/><circle class="cls-3" cx="35.76" cy="50.55" r="9.38"/><path class="cls-4" d="M41.31,43a9.37,9.37,0,0,1-13.1,13.1A9.37,9.37,0,1,0,41.31,43Z"/></g></g></svg>