<svg xmlns="http://www.w3.org/2000/svg" viewBox="0 0 91.71 110.88"><defs><style>.cls-1{fill:none;stroke:#07c5d3;stroke-miterlimit:10;stroke-width:5px;}.cls-2{fill:#00eaff;}.cls-3{fill:#ff003d;}.cls-4{fill:#13e59a;}</style></defs><title>Asset 27</title><g id="Layer_2" data-name="Layer 2"><g id="Layer_1-2" data-name="Layer 1"><circle class="cls-1" cx="45.85" cy="12.04" r="9.54"/><rect class="cls-2" x="26.37" y="12.04" width="38.98" height="19.5" rx="9.75" ry="9.75"/><path class="cls-3" d="M84,65.17a17.58,17.58,0,0,1-13.15,0c-.69-.29-1.34-.61-2-.92a17.49,17.49,0,0,0-14.44,0c-.84.39-1.66.81-2.56,1.13a17.44,17.44,0,0,1-11.74.07c-1.18-.4-2.21-1-3.34-1.44a17.22,17.22,0,0,0-12.59-.3c-1.18.41-2.22,1-3.34,1.44a17.65,17.65,0,0,1-13,0c-.92-.38-1.79-.82-2.7-1.21a16.47,16.47,0,0,0-5.1-1.23C0,63.53,0,64.27,0,65a46.2,46.2,0,0,0,.43,6.19A16.22,16.22,0,0,1,5,72.34c1,.42,1.93.89,2.93,1.31a17.78,17.78,0,0,0,12.69,0c1-.4,1.89-.86,2.86-1.27a17.55,17.55,0,0,1,13.38.06c.76.33,1.48.69,2.24,1a17.55,17.55,0,0,0,13.61,0c1-.44,2-.95,3-1.32a17.39,17.39,0,0,1,12.05.07c1,.38,2,.87,2.94,1.3a17.62,17.62,0,0,0,13.46,0c.78-.34,1.53-.71,2.32-1.05a16.67,16.67,0,0,1,4.77-1.23,46.21,46.21,0,0,0,.43-6.2c0-.75,0-1.49-.06-2.23A16.5,16.5,0,0,0,86.74,64C85.82,64.35,85,64.78,84,65.17Z"/><path class="cls-3" d="M83.88,90.35a17.71,17.71,0,0,1-12.77,0c-.95-.39-1.84-.84-2.78-1.24a17.51,17.51,0,0,0-13.22,0c-1,.41-1.88.87-2.86,1.27a17.69,17.69,0,0,1-12.85,0c-.94-.4-1.83-.85-2.78-1.24a17.56,17.56,0,0,0-13.15,0c-.89.38-1.73.8-2.62,1.18a17.71,17.71,0,0,1-13.08,0l-.25-.11a45.87,45.87,0,0,0,76.62,0Z"/><path class="cls-4" d="M86.51,72.45c-.78.34-1.53.71-2.32,1.05a17.62,17.62,0,0,1-13.46,0c-1-.43-1.91-.92-2.94-1.3a17.39,17.39,0,0,0-12.05-.07c-1.07.37-2,.88-3,1.32a17.55,17.55,0,0,1-13.61,0c-.76-.33-1.48-.69-2.24-1a17.55,17.55,0,0,0-13.38-.06c-1,.41-1.88.87-2.86,1.27a17.78,17.78,0,0,1-12.69,0c-1-.41-1.94-.89-2.93-1.31A16.22,16.22,0,0,0,.43,71.21a45.63,45.63,0,0,0,7.1,19l.25.11a17.71,17.71,0,0,0,13.08,0c.89-.38,1.73-.8,2.62-1.18a17.56,17.56,0,0,1,13.15,0c.94.4,1.83.84,2.78,1.24a17.69,17.69,0,0,0,12.85,0c1-.4,1.89-.86,2.86-1.27a17.51,17.51,0,0,1,13.22,0c.94.4,1.83.85,2.78,1.24a17.71,17.71,0,0,0,12.77,0l.27-.12a45.64,45.64,0,0,0,7.13-19A16.67,16.67,0,0,0,86.51,72.45Z"/><path class="cls-4" d="M90.5,54.59a45.5,45.5,0,0,0-2.57-7.79,15.64,15.64,0,0,0-1.58.6l-1.71.78a17.39,17.39,0,0,1-14.36,0l-1.71-.78a17.55,17.55,0,0,0-13.84,0l-1.86.85a17.47,17.47,0,0,1-13.91,0c-.7-.31-1.38-.65-2.09-1a17.59,17.59,0,0,0-13.62,0c-.93.41-1.81.87-2.78,1.23a17.28,17.28,0,0,1-12.37,0c-1.19-.44-2.22-1-3.41-1.48-.31-.11-.62-.2-.92-.3a46.14,46.14,0,0,0-3.71,16A16.47,16.47,0,0,1,5.16,64c.91.39,1.78.83,2.7,1.21a17.65,17.65,0,0,0,13,0c1.12-.48,2.16-1,3.34-1.44a17.22,17.22,0,0,1,12.59.3c1.13.46,2.16,1,3.34,1.44a17.44,17.44,0,0,0,11.74-.07c.91-.32,1.72-.74,2.56-1.13a17.49,17.49,0,0,1,14.44,0c.67.3,1.33.63,2,.92a17.58,17.58,0,0,0,13.15,0c.92-.39,1.78-.82,2.7-1.21a16.5,16.5,0,0,1,4.91-1.17A45.81,45.81,0,0,0,90.5,54.59Z"/><path class="cls-3" d="M84.34,40.1A45.89,45.89,0,0,0,3.77,46.8c.31.1.62.19.92.3,1.19.44,2.22,1,3.41,1.48a17.28,17.28,0,0,0,12.37,0c1-.36,1.85-.83,2.78-1.23a17.59,17.59,0,0,1,13.62,0c.71.31,1.39.64,2.09,1a17.47,17.47,0,0,0,13.91,0l1.86-.85a17.55,17.55,0,0,1,13.84,0l1.71.78a17.39,17.39,0,0,0,14.36,0l1.71-.78a15.64,15.64,0,0,1,1.58-.6A45.72,45.72,0,0,0,84.34,40.1Z"/></g></g></svg>