<svg xmlns="http://www.w3.org/2000/svg" viewBox="0 0 73.39 127.89"><defs><style>.cls-1{fill:#fff;}.cls-2{fill:#17191b;}.cls-3{fill:none;stroke:#000;stroke-linecap:round;stroke-linejoin:round;stroke-width:3px;}.cls-4{fill:#b40e3d;}.cls-5{fill:#e6e7e8;}.cls-6{fill:#a00d3e;}.cls-7{fill:#ffca22;}.cls-8{fill:#e1b41d;}.cls-9{fill:#ffd357;}</style></defs><title>Asset 31</title><g id="Layer_2" data-name="Layer 2"><g id="Layer_1-2" data-name="Layer 1"><path class="cls-1" d="M73.35,45.12c0-.84-.1-1.66-.19-2.48a21,21,0,0,0-4.56-.51H62.08A20.92,20.92,0,0,0,41.16,62.38c0,.23,0,.46,0,.69V75.13h-6V63.07c0-.23,0-.46,0-.69A20.92,20.92,0,0,0,14.2,42.13H7.67a21,21,0,0,0-4.56.51c-.09.82-.16,1.65-.19,2.48,0,.34,0,.67,0,1V77.61a30.5,30.5,0,0,0,30.5,30.5h9.5a30.5,30.5,0,0,0,30.5-30.5V46.13C73.39,45.79,73.36,45.46,73.35,45.12Z"/><path class="cls-2" d="M68.64,29.79A30.47,30.47,0,0,0,42.89,15.63h-9.5a30.43,30.43,0,0,0-30.27,27,21,21,0,0,1,4.56-.51H14.2A20.92,20.92,0,0,1,35.11,62.38c0,.23,0,.46,0,.69V75.13h6V63.07c0-.23,0-.46,0-.69A20.92,20.92,0,0,1,62.08,42.13H68.6a21,21,0,0,1,4.56.51A30.26,30.26,0,0,0,68.64,29.79Z"/><path class="cls-3" d="M27.3,61.38a7.83,7.83,0,0,0-14.36,0"/><path class="cls-3" d="M63.33,61.38a7.83,7.83,0,0,0-14.36,0"/><path class="cls-4" d="M27.8,75.37c0-5.43,4.4-2.07,9.83-2.07s9.83-3.36,9.83,2.07-7,9.83-9.83,9.83C35.31,85.2,27.8,80.8,27.8,75.37Z"/><path class="cls-5" d="M73.35,45.12c0-.84-.1-1.66-.19-2.48a21.36,21.36,0,0,0-2.8-.42c0,.31,0,.61,0,.92V74.61a30.5,30.5,0,0,1-30.5,30.5h-9.5a30.28,30.28,0,0,1-20-7.51,30.4,30.4,0,0,0,23,10.51h9.5a30.5,30.5,0,0,0,30.5-30.5V46.13C73.39,45.79,73.36,45.46,73.35,45.12Z"/><path class="cls-6" d="M45.39,72.29a6.82,6.82,0,0,1,.08,1.08c0,5.43-7,9.83-9.83,9.83-1.17,0-3.64-1.11-5.82-2.9,2.39,2.93,6.26,4.9,7.82,4.9,2.85,0,9.83-4.4,9.83-9.83C47.47,73.09,46.69,72.37,45.39,72.29Z"/><path class="cls-7" d="M49.53,4.17,45.34,8.33h-.05L41.1,4.17,36.92,0,32.73,4.17,28.55,8.33h-.05L24.31,4.17,20.12,0l3,22.14a71.27,71.27,0,0,0,13.8,1.2,71.65,71.65,0,0,0,13.8-1.16L53.71,0Z"/><path class="cls-8" d="M49.78,3.92,47.71,19.18a71.65,71.65,0,0,1-13.8,1.16,65.26,65.26,0,0,1-11.15-.79l.35,2.59a71.27,71.27,0,0,0,13.8,1.2,71.65,71.65,0,0,0,13.8-1.16L53.71,0Z"/><rect class="cls-7" x="3.12" y="90.65" width="70.27" height="18.16" rx="6.51" ry="6.51"/><path class="cls-8" d="M70.37,91.67a6.47,6.47,0,0,1,1,3.49v5.14a6.51,6.51,0,0,1-6.51,6.51H7.62a6.47,6.47,0,0,1-3.49-1,6.5,6.5,0,0,0,5.49,3H66.88a6.51,6.51,0,0,0,6.51-6.51V97.15A6.5,6.5,0,0,0,70.37,91.67Z"/><rect class="cls-7" x="14.13" y="105.83" width="38.59" height="13.02" rx="6.51" ry="6.51" transform="translate(-22.38 215.41) rotate(-135)"/><path class="cls-8" d="M47.06,116.78,29,98.7a6.49,6.49,0,0,0-5.6-1.82A6.47,6.47,0,0,1,27,98.7l18.08,18.08a6.51,6.51,0,0,1,0,9.2h0a6.47,6.47,0,0,1-3.6,1.82,6.49,6.49,0,0,0,5.6-1.82h0A6.51,6.51,0,0,0,47.06,116.78Z"/><rect class="cls-7" x="-3.74" y="105.07" width="38.59" height="13.02" rx="6.51" ry="6.51" transform="translate(105.44 179.47) rotate(135)"/><path class="cls-8" d="M29.19,105.14,11.11,123.22a6.51,6.51,0,0,1-9.2,0h0a6.47,6.47,0,0,1-1.82-3.6,6.49,6.49,0,0,0,1.82,5.6h0a6.51,6.51,0,0,0,9.2,0l18.08-18.08a6.49,6.49,0,0,0,1.82-5.6A6.47,6.47,0,0,1,29.19,105.14Z"/><path class="cls-9" d="M26.31,6.17l4.19,4.17h.05l4.19-4.17L38.92,2,43.1,6.17l4.19,4.17h.05l4.19-4.17,1.56-1.55L53.71,0,49.53,4.17,45.34,8.33h-.05L41.1,4.17,36.92,0,32.73,4.17,28.55,8.33h-.05L24.31,4.17,20.12,0l3,22.14,1.77.28L22.12,2Z"/></g></g></svg>