<svg xmlns="http://www.w3.org/2000/svg" viewBox="0 0 123.31 157.76"><defs><style>.cls-1{fill:#00db92;}.cls-2{fill:#17191b;}</style></defs><title>Asset 12</title><g id="Layer_2" data-name="Layer 2"><g id="Layer_1-2" data-name="Layer 1"><path class="cls-1" d="M122.37,134a9.84,9.84,0,0,0-1.35-2l-20.4-30.48h1c5.18,0,9.38-3.62,9.38-8.09a7.12,7.12,0,0,0-.75-3.17,7.87,7.87,0,0,0-1.08-1.62L90.46,60.67h3.15c4.14,0,7.5-2.9,7.5-6.47a5.7,5.7,0,0,0-.6-2.54,6.3,6.3,0,0,0-.87-1.29L84.09,27.13,68.53,3.89a6.35,6.35,0,0,0-.79-1.19A8.29,8.29,0,0,0,55.6,2.59a6.35,6.35,0,0,0-1,1.45L39.18,27.13,23.48,50.58l-.47.71a5.73,5.73,0,0,0-.81,2.91c0,3.57,3.36,6.47,7.5,6.47h3.1L13.93,88.86l-.59.89a7.16,7.16,0,0,0-1,3.64c0,4.47,4.2,8.09,9.38,8.09h.92L2,132.28l-.74,1.11A9,9,0,0,0,0,137.93C0,143.52,5.25,148,11.72,148h99.87c6.47,0,11.72-4.53,11.72-10.11A8.9,8.9,0,0,0,122.37,134Z"/><rect class="cls-2" x="49.99" y="148.04" width="23.33" height="9.72"/></g></g></svg>