<svg xmlns="http://www.w3.org/2000/svg" viewBox="0 0 82.35 114.23"><defs><style>.cls-1{fill:#fff;}.cls-2{fill:#fb6a4f;}.cls-3,.cls-7{fill:none;stroke-linecap:round;stroke-linejoin:round;}.cls-3{stroke:#000;stroke-width:3px;}.cls-4{fill:#b40e3d;}.cls-5{fill:#e6e7e8;}.cls-6{fill:#a00d3e;}.cls-7{stroke:#ffca22;stroke-width:5px;}.cls-8{fill:#00eaff;}</style></defs><title>Asset 35</title><g id="Layer_2" data-name="Layer 2"><g id="Layer_1-2" data-name="Layer 1"><path class="cls-1" d="M77,51.24c0-.84-.1-1.66-.19-2.48a21,21,0,0,0-4.56-.51H65.71A20.92,20.92,0,0,0,44.8,68.5c0,.23,0,.46,0,.69V81.25h-6V69.19c0-.23,0-.46,0-.69A20.92,20.92,0,0,0,17.83,48.25H11.31a21,21,0,0,0-4.56.51c-.09.82-.16,1.65-.19,2.48,0,.34,0,.67,0,1V83.73A30.5,30.5,0,0,0,37,114.23h9.5A30.5,30.5,0,0,0,77,83.73V52.25C77,51.91,77,51.58,77,51.24Z"/><path class="cls-2" d="M72.27,35.91A30.47,30.47,0,0,0,46.52,21.75H37a30.43,30.43,0,0,0-30.27,27,21,21,0,0,1,4.56-.51h6.53A20.92,20.92,0,0,1,38.75,68.5c0,.23,0,.46,0,.69V81.25h6V69.19c0-.23,0-.46,0-.69A20.92,20.92,0,0,1,65.71,48.25h6.53a21,21,0,0,1,4.56.51A30.26,30.26,0,0,0,72.27,35.91Z"/><path class="cls-3" d="M16.58,62.79a7.83,7.83,0,0,0,14.36,0"/><path class="cls-3" d="M52.6,62.79a7.83,7.83,0,0,0,14.36,0"/><path class="cls-4" d="M31.44,81.49c0-5.43,4.4-2.07,9.83-2.07s9.83-3.36,9.83,2.07-7,9.83-9.83,9.83C38.94,91.32,31.44,86.92,31.44,81.49Z"/><path class="cls-5" d="M77,51.24c0-.84-.1-1.66-.19-2.48a21.36,21.36,0,0,0-2.8-.42c0,.31,0,.61,0,.92V80.73a30.5,30.5,0,0,1-30.5,30.5H34a30.28,30.28,0,0,1-20-7.51,30.4,30.4,0,0,0,23,10.51h9.5A30.5,30.5,0,0,0,77,83.73V52.25C77,51.91,77,51.58,77,51.24Z"/><path class="cls-6" d="M49,78.4a6.82,6.82,0,0,1,.08,1.08c0,5.43-7,9.83-9.83,9.83-1.17,0-3.64-1.11-5.82-2.9,2.39,2.93,6.26,4.9,7.82,4.9,2.85,0,9.83-4.4,9.83-9.83C51.1,79.21,50.32,78.48,49,78.4Z"/><path class="cls-7" d="M68.29,2.5a27,27,0,0,1-54,0"/><path class="cls-7" d="M28.65,3.37a13.08,13.08,0,1,1-26.15,0"/><path class="cls-7" d="M79.85,3.37a13.08,13.08,0,1,1-26.15,0"/><path class="cls-8" d="M14.35,69.47S4.64,83.1,13.88,83.41,14.35,69.47,14.35,69.47Z"/><path class="cls-8" d="M10.24,86.55S.53,100.19,9.77,100.5,10.24,86.55,10.24,86.55Z"/><path class="cls-8" d="M21,80.81s-9.71,13.63-.47,13.95S21,80.81,21,80.81Z"/><path class="cls-8" d="M68.55,70.47S78.27,84.1,69,84.41,68.55,70.47,68.55,70.47Z"/><path class="cls-8" d="M72.66,87.55s9.71,13.63.47,13.95S72.66,87.55,72.66,87.55Z"/><path class="cls-8" d="M61.87,81.81s9.71,13.63.47,13.95S61.87,81.81,61.87,81.81Z"/></g></g></svg>