<svg xmlns="http://www.w3.org/2000/svg" viewBox="0 0 82.5 55.29"><defs><style>.cls-1{fill:#b40e3d;}.cls-2{fill:#fff;}.cls-3{fill:#e6e7e8;}</style></defs><title>Asset 26</title><g id="Layer_2" data-name="Layer 2"><g id="Layer_1-2" data-name="Layer 1"><path class="cls-1" d="M68,22.36v0A22.11,22.11,0,0,0,65.76,19a50.9,50.9,0,0,0-3.22-4c-.63-1.18-.66-2.38.45-4.14,2.83-4.5,10.42.68,10.42.68C71,6.75,64.69,2.37,57.7.72,46.18-2,35,3.71,30.3,6.63c-14.23,7.43-24.52,28-24.52,43.74H76.72C76.72,41.49,73.44,31.08,68,22.36Z"/><circle class="cls-2" cx="74.25" cy="15.13" r="7.83"/><path class="cls-3" d="M74.25,20a7.83,7.83,0,0,1-7.69-6.33,7.83,7.83,0,1,0,15.37,0A7.83,7.83,0,0,1,74.25,20Z"/><rect class="cls-2" y="40.79" width="82.5" height="14.5" rx="7.25" ry="7.25"/><path class="cls-3" d="M75.25,52.42h-68A7.25,7.25,0,0,1,.14,46.6a7.25,7.25,0,0,0,7.11,8.69h68a7.25,7.25,0,0,0,7.11-8.69A7.25,7.25,0,0,1,75.25,52.42Z"/></g></g></svg>