<svg xmlns="http://www.w3.org/2000/svg" viewBox="0 0 82.5 132.5"><defs><style>.cls-1{fill:#fff;}.cls-2{fill:#fff2de;}.cls-3{fill:#b40e3d;}.cls-4{fill:none;stroke:#000;stroke-linecap:round;stroke-linejoin:round;stroke-width:3px;}.cls-5{fill:#e6e7e8;}</style></defs><title>Asset 13</title><g id="Layer_2" data-name="Layer 2"><g id="Layer_1-2" data-name="Layer 1"><path class="cls-1" d="M71.75,44.83V64A25.62,25.62,0,0,1,46.13,89.65H36.37A25.62,25.62,0,0,1,10.75,64V44.83A30.34,30.34,0,0,0,6,61.17V92.65a30.5,30.5,0,0,0,30.5,30.5H46a30.5,30.5,0,0,0,30.5-30.5V61.17A30.34,30.34,0,0,0,71.75,44.83Z"/><path class="cls-2" d="M36.37,89.65h9.76A25.62,25.62,0,0,0,71.75,64V44.83A30.47,30.47,0,0,0,46,30.67H36.5A30.47,30.47,0,0,0,10.75,44.83V64A25.62,25.62,0,0,0,36.37,89.65Z"/><path class="cls-3" d="M5.78,55.75c0-19.59,15.88-46.58,35.47-46.58s35.47,27,35.47,46.58"/><circle class="cls-3" cx="41.25" cy="90.17" r="7.83"/><path class="cls-4" d="M33.42,72.13a7.83,7.83,0,0,0-14.36,0"/><path class="cls-4" d="M63.45,72.13a7.83,7.83,0,0,0-14.36,0"/><path class="cls-1" d="M51.15,122.71s-14.06,1.46-11.23,9.79c0,0-7.71-8.92-15.19-11.71s16.52-6,16.52-6Z"/><path class="cls-5" d="M10.75,64V60.16H6c0,.34,0,.67,0,1v6.25h5A25.81,25.81,0,0,1,10.75,64Z"/><path class="cls-5" d="M76.46,60.16H71.75V64a25.81,25.81,0,0,1-.23,3.38h5V61.17C76.5,60.83,76.47,60.49,76.46,60.16Z"/><rect class="cls-1" y="46.17" width="82.5" height="14.5" rx="7.25" ry="7.25"/><path class="cls-5" d="M75.25,57.79h-68A7.25,7.25,0,0,1,.14,52a7.25,7.25,0,0,0,7.11,8.69h68A7.25,7.25,0,0,0,82.36,52,7.25,7.25,0,0,1,75.25,57.79Z"/><circle class="cls-1" cx="41.25" cy="7.83" r="7.83"/><path class="cls-5" d="M41.25,12.67a7.83,7.83,0,0,1-7.69-6.33,7.83,7.83,0,1,0,15.37,0A7.83,7.83,0,0,1,41.25,12.67Z"/></g></g></svg>