<svg xmlns="http://www.w3.org/2000/svg" viewBox="0 0 91.6 56.74"><defs><style>.cls-1{fill:#17191b;}.cls-2{fill:#b40e3d;}.cls-3{fill:#13e59a;}.cls-4{fill:#a00d3e;}</style></defs><title>Asset 29</title><g id="Layer_2" data-name="Layer 2"><g id="Layer_1-2" data-name="Layer 1"><rect class="cls-1" x="11.27" width="69.07" height="43.74"/><rect class="cls-1" y="42.76" width="91.6" height="13.98"/><rect class="cls-2" x="11.27" y="29.29" width="69.07" height="13.98"/><path class="cls-3" d="M66.65,19.87l-.12.12a2.47,2.47,0,0,1,0,.29,3.26,3.26,0,0,1-2.36,2.88,3.27,3.27,0,0,1,.27,1.3,3.87,3.87,0,0,1-2,3.21,4.65,4.65,0,0,1,2,3.65,4.22,4.22,0,0,1-.76,2.38,3.42,3.42,0,0,1,2.85,3,2.49,2.49,0,0,1-.09.65c1.82,0,3.28,1.17,3.28,2.57,0-1.28,1.23-2.34,2.84-2.53a2.49,2.49,0,0,1-.1-.68c0-1.51,1.37-2.77,3.21-3.12a4.2,4.2,0,0,1-.71-2.3,4.65,4.65,0,0,1,2-3.65,3.87,3.87,0,0,1-2-3.21,3.26,3.26,0,0,1,.22-1.18,3.38,3.38,0,0,1-2.72-3,2.47,2.47,0,0,1,0-.43c-1.58-.21-2.78-1.26-2.78-2.53C69.75,18.66,68.38,19.77,66.65,19.87Z"/><path class="cls-3" d="M70.7,43.66l0,.16-.26.13a3.26,3.26,0,0,0-1.28,3.5,3.27,3.27,0,0,0-1.26.43,3.87,3.87,0,0,0-1.75,3.33,4.65,4.65,0,0,0-4.15.16,4.22,4.22,0,0,0-1.66,1.87,3.42,3.42,0,0,0-4.06-.9,2.49,2.49,0,0,0-.51.41c-1-1.55-2.68-2.23-3.88-1.52,1.1-.65,1.38-2.25.73-3.73a2.49,2.49,0,0,0,.64-.26c1.3-.77,1.69-2.59,1-4.35a4.2,4.2,0,0,0,2.34-.56,4.65,4.65,0,0,0,2.14-3.56,3.87,3.87,0,0,0,3.76.06,3.26,3.26,0,0,0,.9-.79,3.38,3.38,0,0,0,4,.81,2.47,2.47,0,0,0,.35-.26c1,1.25,2.5,1.75,3.59,1.11C70.16,40.38,69.91,42.11,70.7,43.66Z"/><path class="cls-3" d="M68.75,43.66l0,.16.26.13a3.26,3.26,0,0,1,1.28,3.5,3.27,3.27,0,0,1,1.26.43,3.87,3.87,0,0,1,1.75,3.33,4.65,4.65,0,0,1,4.15.16,4.22,4.22,0,0,1,1.66,1.87,3.42,3.42,0,0,1,4.06-.9,2.49,2.49,0,0,1,.51.41c1-1.55,2.68-2.23,3.88-1.52-1.1-.65-1.38-2.25-.73-3.73a2.49,2.49,0,0,1-.64-.26c-1.3-.77-1.69-2.59-1-4.35a4.2,4.2,0,0,1-2.34-.56,4.65,4.65,0,0,1-2.14-3.56,3.87,3.87,0,0,1-3.76.06A3.26,3.26,0,0,1,76,38a3.38,3.38,0,0,1-4,.81,2.47,2.47,0,0,1-.35-.26c-1,1.25-2.5,1.75-3.59,1.11C69.29,40.38,69.54,42.11,68.75,43.66Z"/><path class="cls-4" d="M73.3,41.75s0-.08,0-.13,0-.2-.05-.29l0-.13q0-.14-.09-.28l0-.11q-.06-.16-.14-.32l0,0a3.75,3.75,0,0,0-.77-1h0a3.75,3.75,0,0,0-.33-.27h0a3.74,3.74,0,0,0-5.23,5.23h0a3.76,3.76,0,0,0,.27.33h0a3.75,3.75,0,0,0,1,.77l0,0,.32.14.11,0,.28.09.13,0,.29.05.13,0,.43,0a3.74,3.74,0,0,0,3.73-3.36,3.65,3.65,0,0,0,0-.81Z"/><path class="cls-4" d="M77,37.08S77,37,77,37s0-.2-.05-.29l0-.13q0-.14-.09-.28l0-.11q-.06-.16-.14-.32l0,0a3.76,3.76,0,0,0-.77-1h0a3.76,3.76,0,0,0-.33-.27h0a3.74,3.74,0,0,0-5.23,5.23h0a3.76,3.76,0,0,0,.27.33h0a3.75,3.75,0,0,0,1,.77l0,0L72,41l.11,0,.28.09.13,0,.29.05.13,0,.43,0A3.73,3.73,0,0,0,77,37.08Z"/><path class="cls-4" d="M69.85,37.08s0-.08,0-.13,0-.2-.05-.29l0-.13q0-.14-.09-.28l0-.11q-.06-.16-.14-.32l0,0a3.76,3.76,0,0,0-.77-1h0a3.76,3.76,0,0,0-.33-.27h0a3.74,3.74,0,0,0-5.23,5.23h0a3.76,3.76,0,0,0,.27.33h0a3.75,3.75,0,0,0,1,.77l0,0,.32.14.11,0,.28.09.13,0,.29.05.13,0,.43,0a3.73,3.73,0,0,0,3.72-4.17Z"/></g></g></svg>