<svg xmlns="http://www.w3.org/2000/svg" viewBox="0 0 57.94 54.93"><defs><style>.cls-1{fill:#00eaff;}</style></defs><title>Asset 3</title><g id="Layer_2" data-name="Layer 2"><g id="Layer_1-2" data-name="Layer 1"><path class="cls-1" d="M10,54.62a1,1,0,0,0,1.41-.15l6.11-7.61.69,6.33a1,1,0,1,0,2-.22l-.91-8.31,2.75-3.42,5.4-.59L28,45.12l-.79,5.82a1,1,0,0,0,1.59.93,1,1,0,0,0,1,.6,1,1,0,0,0,.88-1.1L30,45.15l.64-4.7,5.29.72a1,1,0,0,0,.35.18l2.42,3.18-1.13,8.29a1,1,0,1,0,2,.27l.86-6.31,5.91,7.77a1,1,0,0,0,1.59-1.21L42,45.56l6.31.86a1,1,0,0,0,.27-2l-8.29-1.13-2.66-3.49.73-5.38.63.09,8.65,4.36a1,1,0,0,0,.9-1.79l-3.46-1.74,4.2.57a1,1,0,0,0,.27-2l-10-1.35-.75-.38,2.4-4.77a1,1,0,0,0,.28-.27l3.79-1.25,7.47,3.76a1,1,0,0,0,.9-1.79L48,25,57.25,22a1,1,0,0,0-.63-1.9l-9.27,3.06,2.86-5.68a1,1,0,0,0-1.5-1.24,1,1,0,0,0-.29.35L44.67,24,40.5,25.39l-4.85-2.44.29-.57,6.93-6.76a1,1,0,0,0-1.3-1.51l-.09.08L38.7,16.9l1.91-3.78a1,1,0,0,0-1.5-1.24,1,1,0,0,0-.29.35l-4.52,9-.6.59L30,17.95a1,1,0,0,0-.17-.35l.05-4,6-5.84a1,1,0,0,0-1.3-1.51l-.09.08-4.56,4.44L30,1a1,1,0,1,0-2,0l-.13,9.76L23.45,6.19a1,1,0,0,0-1.32-.1L22,6.17a1,1,0,0,0,0,1.41l5.84,6L27.8,18l-3.89,3.79-.44-.45-4.13-8.76A1,1,0,0,0,18,12.07l-.18.11a1,1,0,0,0-.3,1.22l1.65,3.5-3-3a1,1,0,0,0-1.32-.1l-.09.08a1,1,0,0,0,0,1.41l7,7.2.36.76L17.33,25.5a1,1,0,0,0-.39,0l-3.76-1.35L9.62,16.63a1,1,0,0,0-1.33-.48l-.18.11a1,1,0,0,0-.3,1.22l2.72,5.76-9.19-3.3a1,1,0,0,0-.68,1.88l9.19,3.3L4.09,27.83l-.18.11a1,1,0,0,0,1,1.7l7.56-3.57,4.13,1.48L19,32.46l-.57.27L8.76,33.79a1,1,0,0,0,.22,2l3.85-.42L9,37.16l-.18.11a1,1,0,0,0,1,1.7l9.08-4.29.84-.09.58,5.28a1,1,0,0,0-.09.42l-2.49,3.1-8.31.91a1,1,0,0,0,.22,2L16,45.6,9.89,53.22A1,1,0,0,0,10,54.62ZM23.85,39l3-3.78.37,3.41Zm2.24-12.16h0Zm5.06,3.72.39.2-.47-.17ZM30,28.19l-.31.39v-.09ZM28.9,35.27a1,1,0,0,0,.45-.32l-.27,2Zm.71-2.67.05.07-.06.44Zm3.6-1,.28.14-.2,0A1,1,0,0,0,33.21,31.62Zm-1.77-4.76-.12,0,.22-.21Zm-6.94,5.2h0Zm6.88,2.85,3.07,4-3.55-.48Zm4.53,2.65L33,33.7l3.4.46Zm-2.07-7.87,4.81-1.59L37,31.31Zm4-3.42-4.6,1.52,1.54-3.06Zm-8.11-.61.07-5.07,2.5,2.57Zm-1.94-4.87-.06,4.85-2.39-2.46Zm-3.22,7.47-4.77-1.71L23,25Zm-5.24.25,4.56,1.64-3.1,1.46Zm6,5.47-3.17,4-.39-3.56Z"/></g></g></svg>