<svg xmlns="http://www.w3.org/2000/svg" viewBox="0 0 68.13 65.15"><defs><style>.cls-1{fill:#00eaff;}</style></defs><title>Asset 1</title><g id="Layer_2" data-name="Layer 2"><g id="Layer_1-2" data-name="Layer 1"><path class="cls-1" d="M68.08,25.14a1,1,0,0,0-1.26-.64L59,27a4.16,4.16,0,0,1,2.86-4.26,1,1,0,0,0-.62-1.9,6.15,6.15,0,0,0-4.19,6.79l-2.55.83L45.66,24a1,1,0,1,0-.91,1.78l7.06,3.6-12.35,4a8.32,8.32,0,0,0,3.25-6.59,1,1,0,0,0-1-1,1,1,0,0,0-.52.17A1,1,0,0,0,40,25.49a8.27,8.27,0,0,0-4.64,3.78V16.78l5.6,5.6A1,1,0,0,0,42.39,21l-7-7V11.26a6.17,6.17,0,0,0,5.17-6.08,1,1,0,0,0-2,0,4.16,4.16,0,0,1-3.17,4V1a1,1,0,0,0-2,0V9.22a4.16,4.16,0,0,1-3.17-4,1,1,0,0,0-2,0,6.17,6.17,0,0,0,5.17,6.08V14l-7,7a1,1,0,1,0,1.41,1.41l5.6-5.6v13a8.32,8.32,0,0,0-5.26-5.12,1,1,0,0,0-1.26.64,1,1,0,0,0,0,.55,1,1,0,0,0-.81,1,8.29,8.29,0,0,0,2.17,5.59L16.32,28.52l7.06-3.6a1,1,0,1,0-.91-1.78l-8.84,4.5-2.56-.83A6.17,6.17,0,0,0,6.89,20a1,1,0,0,0-.62,1.9,4.16,4.16,0,0,1,2.86,4.26L1.31,23.65a1,1,0,0,0-.62,1.9l7.82,2.54A4.13,4.13,0,0,1,3.7,29.85a1,1,0,0,0-.62,1.9,6.11,6.11,0,0,0,1.9.3,6.19,6.19,0,0,0,5.48-3.34l2.55.83,4.5,8.84a1,1,0,0,0,1.78-.91l-3.6-7.06,12.34,4a8.37,8.37,0,0,0-1,.09,8.28,8.28,0,0,0-5.44,3.33,1,1,0,0,0,.22,1.4,1,1,0,0,0,.52.17A1,1,0,0,0,23,40.5a8.18,8.18,0,0,0,6-.35L21.6,50.27l-1.24-7.82a1,1,0,0,0-2,.31l1.55,9.8-1.58,2.17a6.15,6.15,0,0,0-7.75,1.88,1,1,0,0,0,1.62,1.18,4.13,4.13,0,0,1,4.93-1.4L12.32,63a1,1,0,0,0,1.62,1.18l4.83-6.65A4.13,4.13,0,0,1,19,62.69a1,1,0,0,0,1.62,1.18,6.15,6.15,0,0,0-.61-8l1.58-2.17,9.8-1.55a1,1,0,1,0-.31-2l-7.83,1.24,7.64-10.51a8.31,8.31,0,0,0,1.24,7.24,1,1,0,0,0,1.4.22,1,1,0,0,0,.32-.44A1,1,0,0,0,35,47.66a8.29,8.29,0,0,0,1.53-5.79L43.92,52l-7.83-1.24a1,1,0,1,0-.31,2l9.8,1.55,1.58,2.17a6.16,6.16,0,0,0-.61,8,1,1,0,0,0,1.62-1.18,4.13,4.13,0,0,1,.19-5.12l4.83,6.65a1,1,0,0,0,1.62-1.18L50,56.92a4.17,4.17,0,0,1,4.93,1.4,1,1,0,0,0,1.62-1.18,6.17,6.17,0,0,0-7.75-1.88L47.2,53.09l1.55-9.8a1,1,0,0,0-2-.31L45.53,50.8,37.91,40.3a8.44,8.44,0,0,0,.9.54,8.28,8.28,0,0,0,6.36.5,1,1,0,0,0,.64-1.26,1,1,0,0,0-.32-.45,1,1,0,0,0,.09-1.26,8.29,8.29,0,0,0-5-3.25l11.89-3.86-3.6,7.06a1,1,0,0,0,1.78.91l4.5-8.84,2.56-.83a6.13,6.13,0,0,0,5.46,3.34,6.18,6.18,0,0,0,1.91-.3,1,1,0,0,0-.62-1.9,4.13,4.13,0,0,1-4.81-1.76l7.82-2.54A1,1,0,0,0,68.08,25.14ZM33.19,36l-.07,0a8.25,8.25,0,0,0,.34-.82l0-.06a8.37,8.37,0,0,0,.89,0h.06a8.47,8.47,0,0,0,.23.86l0,.06a8.39,8.39,0,0,0-.75.49l-.05,0A8.37,8.37,0,0,0,33.19,36Zm3.76-5.47a6.29,6.29,0,0,1,3.69-3.15l0,0a6.35,6.35,0,0,1-4.39,5.46A6.33,6.33,0,0,1,36.95,30.54ZM28,26.75a6.35,6.35,0,0,1,3.84,5.86A6.34,6.34,0,0,1,28,26.8S28,26.77,28,26.75ZM23.58,38.59h-.05a6.33,6.33,0,0,1,6.77-1.84A6.34,6.34,0,0,1,23.58,38.59Zm9.84,7.89,0,0a6.35,6.35,0,0,1,.34-7A6.34,6.34,0,0,1,33.42,46.48ZM44,39.56l0,0a6.23,6.23,0,0,1-6.53-2.49A6.34,6.34,0,0,1,44,39.56Z"/></g></g></svg>