<svg xmlns="http://www.w3.org/2000/svg" viewBox="0 0 68.67 68.67"><defs><style>.cls-1{fill:#00eaff;}</style></defs><title>Asset 2</title><g id="Layer_2" data-name="Layer 2"><g id="Layer_1-2" data-name="Layer 1"><path class="cls-1" d="M67.67,33.33H57.91l4.5-4.5A1,1,0,0,0,61,27.42l-5.91,5.91H50.69L46.85,29.5l7.79-7.79a1,1,0,0,0-1.41-1.41l-13,13H35.33V28.48l13-13A1,1,0,0,0,47,14l-7.68,7.68-3.78-3.78a1,1,0,0,0-.17-.35v-4l5.91-5.91a1,1,0,0,0-1.41-1.41l-4.5,4.5V1a1,1,0,0,0-2,0v9.76l-4.5-4.5a1,1,0,0,0-1.41,1.41l5.91,5.91V18L29.5,21.82,21.71,14a1,1,0,0,0-1.41,1.41l13,13v4.85H28.48l-13-13A1,1,0,0,0,14,21.71l7.79,7.79L18,33.33H13.59L7.68,27.42a1,1,0,0,0-1.41,1.41l4.5,4.5H1a1,1,0,0,0,0,2h9.76l-4.5,4.5a1,1,0,1,0,1.41,1.41l5.91-5.92h4a1,1,0,0,0,.35.17l3.78,3.78L14,47a1,1,0,1,0,1.41,1.41L23.83,40h0l4.65-4.65h4.85v4.85l-13,13a1,1,0,1,0,1.41,1.41l7.79-7.79,3.84,3.84v4.39L27.42,61a1,1,0,1,0,1.41,1.41l4.5-4.5v9.76a1,1,0,0,0,2,0V57.91l4.5,4.5A1,1,0,0,0,41.25,61l-5.91-5.91v-4a1,1,0,0,0,.17-.35L39.28,47,47,54.64a1,1,0,0,0,1.41-1.41l-13-13V35.33h4.85L44.83,40h0l8.38,8.38A1,1,0,0,0,54.64,47L47,39.28l3.78-3.78a1,1,0,0,0,.35-.17h4L61,41.25a1,1,0,0,0,1.41-1.41l-4.5-4.5h9.76a1,1,0,0,0,0-2Zm-19.81,0H43l2.42-2.42ZM35.33,25.66V20.59l2.53,2.53Zm-2-4.85v4.85l-2.42-2.42ZM25.66,33.33H20.81l2.42-2.42Zm-5.07,2h5.07l-2.53,2.53ZM33.33,43v4.85l-2.42-2.42Zm2,5.07V43l2.53,2.53ZM43,35.33h5.07l-2.53,2.53Z"/></g></g></svg>