<svg xmlns="http://www.w3.org/2000/svg" viewBox="0 0 124.26 192.99"><defs><style>.cls-1{fill:#fff;}.cls-2{fill:none;stroke:#17191b;stroke-linecap:round;stroke-linejoin:round;stroke-width:4px;}.cls-3{fill:#b40e3d;}.cls-4{fill:#a00d3e;}</style></defs><title>Asset 33</title><g id="Layer_2" data-name="Layer 2"><g id="Layer_1-2" data-name="Layer 1"><path class="cls-1" d="M121,168.78h0a39.9,39.9,0,0,0-.36-32.42,31.66,31.66,0,0,0-16.13,51.1A39.81,39.81,0,0,0,121,168.78Z"/><path class="cls-1" d="M12.33,136a25.38,25.38,0,0,0-6.05.73c0,.68,0,1.37.06,2a26,26,0,0,0,1,7.15A39.94,39.94,0,0,0,30.48,173.4l3.3,1.42a25.21,25.21,0,0,0,3.89-13.48A25.33,25.33,0,0,0,12.33,136Z"/><path class="cls-2" d="M15.39,26.39S33.75,2,15.39,2,15.39,26.39,15.39,26.39Z"/><path class="cls-3" d="M94.7,174.08A11.43,11.43,0,0,1,97,167.19c0-.06,0-.13,0-.19a31.68,31.68,0,0,1,23.64-30.64,40,40,0,0,0-8.74-12.3,11.49,11.49,0,0,1-17.2-10c0-.05,0-.1,0-.15l-8.37-3.6V95.58H86.2a11.5,11.5,0,0,1,0-23h.14V37.33h-80V42.5a11.5,11.5,0,0,1,0,23v37a11.5,11.5,0,0,1,0,23v8.91c0,.78-.06,1.55-.05,2.33a25.34,25.34,0,0,1,19.28,3A11.5,11.5,0,1,1,37,155.54a25.38,25.38,0,0,1,.67,5.79,25.21,25.21,0,0,1-3.89,13.48l9,3.88,3.72,1.6a11.5,11.5,0,1,1,11.81,5.08l10.11,4.35a39.94,39.94,0,0,0,36.06-2.26c-.66-.78-1.29-1.6-1.87-2.45A11.5,11.5,0,0,1,94.7,174.08ZM36.2,95.58a11.5,11.5,0,1,1,11.5-11.5A11.5,11.5,0,0,1,36.2,95.58Zm20,30a11.5,11.5,0,1,1,11.5-11.5A11.5,11.5,0,0,1,56.2,125.58Zm0-60a11.5,11.5,0,1,1,11.5-11.5A11.5,11.5,0,0,1,56.2,65.58Zm30,90a11.5,11.5,0,1,1,11.5-11.5A11.5,11.5,0,0,1,86.2,155.58Z"/><path class="cls-4" d="M17.78,54A11.5,11.5,0,0,0,6.33,42.5v23A11.5,11.5,0,0,0,17.78,54Z"/><circle class="cls-4" cx="56.2" cy="54.08" r="11.5"/><circle class="cls-4" cx="36.2" cy="84.08" r="11.5"/><path class="cls-4" d="M74.7,84.08a11.5,11.5,0,0,0,11.5,11.5h.14v-23H86.2A11.5,11.5,0,0,0,74.7,84.08Z"/><path class="cls-4" d="M17.78,114A11.5,11.5,0,0,0,6.33,102.5v23A11.5,11.5,0,0,0,17.78,114Z"/><circle class="cls-4" cx="56.2" cy="114.08" r="11.5"/><path class="cls-4" d="M106.2,125.58a11.43,11.43,0,0,0,5.7-1.52,39.89,39.89,0,0,0-11.84-7.83l-5.35-2.3c0,.05,0,.1,0,.15A11.5,11.5,0,0,0,106.2,125.58Z"/><path class="cls-4" d="M47.7,144.08a11.5,11.5,0,0,0-22.14-4.36A25.36,25.36,0,0,1,37,155.54,11.49,11.49,0,0,0,47.7,144.08Z"/><circle class="cls-4" cx="86.2" cy="144.08" r="11.5"/><path class="cls-4" d="M67.7,174.08a11.5,11.5,0,1,0-21.17,6.22l11.81,5.08A11.5,11.5,0,0,0,67.7,174.08Z"/><path class="cls-4" d="M94.7,174.08A11.5,11.5,0,0,0,102.64,185,31.49,31.49,0,0,1,97,167.19,11.43,11.43,0,0,0,94.7,174.08Z"/><rect class="cls-1" y="20.44" width="92.67" height="17.89" rx="8.44" ry="8.44"/></g></g></svg>