<svg xmlns="http://www.w3.org/2000/svg" viewBox="0 0 108.39 122.15"><defs><style>.cls-1{fill:#13e59a;}.cls-2{fill:#00db92;}.cls-3,.cls-6{fill:#b40e3d;}.cls-4{fill:#a00d3e;}.cls-5,.cls-7{fill:none;}.cls-6,.cls-7{stroke:#a00d3e;stroke-linecap:round;stroke-linejoin:round;stroke-width:4px;}</style></defs><title>Asset 21</title><g id="Layer_2" data-name="Layer 2"><g id="Layer_1-2" data-name="Layer 1"><path class="cls-1" d="M41.56,66.83a18.16,18.16,0,1,0,0,25.69A18.17,18.17,0,0,0,41.56,66.83Z"/><path class="cls-2" d="M41.56,66.83A18.05,18.05,0,0,0,33,62,18.15,18.15,0,0,1,21.47,96.31a18.16,18.16,0,0,0,20.1-29.49Z"/><circle class="cls-1" cx="54.19" cy="90.22" r="18.17"/><circle class="cls-1" cx="79.67" cy="79.67" r="18.17" transform="translate(-33 79.67) rotate(-45)"/><path class="cls-2" d="M96.31,72.42A18.15,18.15,0,0,1,62,83.92,18.15,18.15,0,1,0,96.31,72.42Z"/><path class="cls-2" d="M72.17,87.72a18.13,18.13,0,0,1-33.38,7.07,18,18,0,0,1-1.85,1.08,18.14,18.14,0,0,0,35.23-8.14Z"/><circle class="cls-1" cx="90.22" cy="54.19" r="18.17"/><path class="cls-2" d="M94.5,36.56A18.15,18.15,0,0,1,82.94,70.83,18.16,18.16,0,1,0,94.5,36.56Z"/><circle class="cls-1" cx="79.67" cy="28.72" r="18.17" transform="translate(3.03 64.75) rotate(-45)"/><path class="cls-2" d="M92.52,15.87a18.16,18.16,0,0,0-4.33-3.2c.46.38.9.78,1.33,1.2A18.17,18.17,0,0,1,68.16,42.77,18.16,18.16,0,0,0,92.52,15.87Z"/><circle class="cls-1" cx="54.19" cy="18.17" r="18.17"/><path class="cls-2" d="M72.28,16.67a18.12,18.12,0,0,1-25.66,15A18.14,18.14,0,0,1,46,34.35,18.14,18.14,0,0,0,72.36,18.17C72.36,17.66,72.33,17.16,72.28,16.67Z"/><circle class="cls-1" cx="28.72" cy="28.72" r="18.17" transform="translate(-11.9 28.72) rotate(-45)"/><path class="cls-2" d="M44.47,19.7A18.15,18.15,0,0,1,12,35.73a18.16,18.16,0,1,0,32.51-16Z"/><circle class="cls-1" cx="18.17" cy="54.19" r="18.17"/><path class="cls-2" d="M33.93,45.19A18.16,18.16,0,0,1,1.4,61.2a18.16,18.16,0,1,0,32.52-16Z"/><path class="cls-3" d="M57.61,36l-.41.06Z"/><path class="cls-3" d="M59.19,35.62h0Z"/><path class="cls-3" d="M47.65,35.1h0Z"/><path class="cls-3" d="M52.64,36.26l-.29,0Z"/><path class="cls-3" d="M49.25,35.63l-.06,0Z"/><path class="cls-3" d="M60.74,32.11V1.23a18,18,0,0,0-13.09,0V32.09a18,18,0,0,0,13.09,0Z"/><path class="cls-3" d="M54.19,36.33h0c.59,0,1.18,0,1.76-.09-.58.06-1.16.09-1.76.09Z"/><path class="cls-2" d="M52.35,36.23a18.06,18.06,0,0,1-3.11-.6A18,18,0,0,0,52.35,36.23Z"/><path class="cls-2" d="M55.95,36.24c.42,0,.83-.11,1.24-.18C56.78,36.13,56.37,36.2,55.95,36.24Z"/><path class="cls-2" d="M54.19,36.33c-.52,0-1,0-1.55-.07C53.15,36.3,53.67,36.33,54.19,36.33Z"/><path class="cls-2" d="M59.15,35.63q-.76.22-1.55.37C58.13,35.9,58.65,35.77,59.15,35.63Z"/><path class="cls-2" d="M49.18,35.61q-.77-.22-1.51-.51Q48.41,35.39,49.18,35.61Z"/><path class="cls-4" d="M57.61,36q.79-.15,1.55-.37h0q.79-.23,1.55-.52v-3a18,18,0,0,1-13.09,0v3h0q.74.29,1.51.51l.06,0a18.06,18.06,0,0,0,3.11.6l.29,0c.51,0,1,.07,1.55.07h0c.59,0,1.18,0,1.76-.09.42,0,.83-.11,1.24-.18Z"/><path class="cls-3" d="M54.19,72.06a18.09,18.09,0,0,0-6.52,1.23v33.88a18,18,0,0,0,13.06,0V73.29A18.09,18.09,0,0,0,54.19,72.06Z"/><path class="cls-3" d="M108.09,57.43c0,.1,0,.2,0,.29C108.06,57.63,108.07,57.53,108.09,57.43Z"/><polygon class="cls-3" points="108.39 54.2 108.39 54.19 108.39 54.2 108.39 54.2"/><path class="cls-3" d="M108.39,54.2c0,.61,0,1.21-.09,1.8C108.36,55.41,108.39,54.81,108.39,54.2Z"/><path class="cls-3" d="M104.61,47.92H73.2A18,18,0,0,0,73.39,61h30.22a18.07,18.07,0,0,0,1-13.09Z"/><polygon class="cls-3" points="107.06 61 107.06 61 107.06 61 107.06 61"/><polygon class="cls-2" points="108.39 54.2 108.39 54.2 108.39 54.2 108.39 54.2"/><path class="cls-2" d="M107.06,61a18,18,0,0,0,1-3.28A18.25,18.25,0,0,1,107.06,61Z"/><path class="cls-2" d="M108.3,56c0,.48-.13,1-.21,1.43C108.17,57,108.25,56.48,108.3,56Z"/><path class="cls-4" d="M108.09,57.43c.09-.47.16-.95.21-1.43s.09-1.19.09-1.8h0a18.08,18.08,0,0,0-1.14-6.28h-2.64a18.07,18.07,0,0,1-1,13.09h3.45a18.25,18.25,0,0,0,1-3.28C108.06,57.63,108.07,57.53,108.09,57.43Z"/><path class="cls-5" d="M17.17,70.36a18.14,18.14,0,0,0,15.5-8.72h-31A18.13,18.13,0,0,0,17.17,70.36Z"/><path class="cls-3" d="M36.24,52.46c0,.12,0,.24,0,.37C36.27,52.71,36.25,52.58,36.24,52.46Z"/><path class="cls-3" d="M36.05,51.09c0,.12,0,.25.06.37C36.1,51.34,36.08,51.21,36.05,51.09Z"/><path class="cls-3" d="M35.77,49.77l.08.33Z"/><polygon class="cls-3" points="34.72 61.64 34.72 61.64 34.72 61.64 34.72 61.64"/><path class="cls-3" d="M36.23,56.13c0,.09,0,.18,0,.28C36.2,56.31,36.22,56.22,36.23,56.13Z"/><path class="cls-3" d="M35.43,48.56h0l.07.22C35.47,48.7,35.45,48.63,35.43,48.56Z"/><polygon class="cls-3" points="36.33 54.2 36.33 54.19 36.33 54.2 36.33 54.2"/><path class="cls-3" d="M32.66,61.64A18.09,18.09,0,0,0,35,48.56H.9a18,18,0,0,0,.59,12.79l.18.29Z"/><path class="cls-3" d="M35.92,58l0,.12Z"/><path class="cls-2" d="M35.49,48.78c.1.33.2.66.28,1C35.69,49.44,35.59,49.11,35.49,48.78Z"/><path class="cls-2" d="M36.18,56.41c-.07.55-.15,1.1-.27,1.63C36,57.5,36.12,57,36.18,56.41Z"/><path class="cls-2" d="M35.85,50.1q.11.49.2,1Q36,50.59,35.85,50.1Z"/><path class="cls-2" d="M34.72,61.64a18,18,0,0,0,1.16-3.48A18.28,18.28,0,0,1,34.72,61.64Z"/><path class="cls-2" d="M36.28,52.83c0,.45.06.91.06,1.37C36.33,53.73,36.31,53.28,36.28,52.83Z"/><path class="cls-2" d="M36.33,54.19h0a18,18,0,0,1-.11,1.93A18.36,18.36,0,0,0,36.33,54.19Z"/><path class="cls-2" d="M36.12,51.46c.05.33.09.66.12,1C36.21,52.13,36.17,51.79,36.12,51.46Z"/><path class="cls-2" d="M1.67,61.64l-.18-.29c0,.1.07.2.11.29Z"/><path class="cls-4" d="M35.92,58c.12-.53.2-1.08.27-1.63,0-.09,0-.18,0-.28a18,18,0,0,0,.11-1.93h0c0-.46,0-.92-.06-1.37,0-.12,0-.24,0-.37,0-.34-.07-.67-.12-1,0-.12,0-.25-.06-.37q-.09-.5-.2-1l-.08-.33c-.08-.33-.18-.66-.28-1l-.07-.22H35a18.09,18.09,0,0,1-2.3,13.09h2.06a18.28,18.28,0,0,0,1.16-3.48Z"/><path class="cls-3" d="M54,89s26.83-32.42,33.26-9.21S54,89,54,89Z"/><path class="cls-4" d="M53.84,88.82a25.6,25.6,0,0,1,1.92-3.39,44,44,0,0,1,2.62-3.59,44.81,44.81,0,0,1,3.93-4.23,32.43,32.43,0,0,1,5.46-4.26,21.11,21.11,0,0,1,7.48-2.72,14.89,14.89,0,0,1,4.31-.08,9.39,9.39,0,0,1,4.09,1.67l.87.7c.26.26.5.54.75.81l.38.41.31.45.64.9c.38.62.73,1.26,1.09,1.91l.45,1,.23.5.11.25.06.13,0,.06v0s0,0,0,.1l.7,2c.18.74.38,1.53.52,2.32a10.58,10.58,0,0,1-.44,4.92,9.45,9.45,0,0,1-3.1,4.24A13.56,13.56,0,0,1,82,95a22.3,22.3,0,0,1-8.16.72A43.35,43.35,0,0,1,67,94.58a52.13,52.13,0,0,1-5.52-1.75c-1.61-.6-3-1.21-4.09-1.75s-2-1-2.54-1.33L54,89.22a.3.3,0,0,1-.12-.37Zm.84,0c.62.06,1.73.17,3.24.35l4.3.49c1.65.17,3.5.39,5.5.54s4.14.3,6.35.32a32.94,32.94,0,0,0,6.6-.49,9.78,9.78,0,0,0,2.82-1,5,5,0,0,0,1.83-2c.1-.22.2-.44.31-.66l.2-.76.12-.39.05-.42.11-.86c0-.58,0-1.15.06-1.77L86,80.07l-.36-1.86c-.2-.61-.39-1.23-.62-1.83A9.05,9.05,0,0,0,84,74.76c-.19-.24-.38-.49-.58-.73l-.69-.6a5.45,5.45,0,0,0-3.33-1.12,8.83,8.83,0,0,0-3.43.87A36.85,36.85,0,0,0,70.2,77c-1.79,1.33-3.54,2.59-5.11,3.82l-4.34,3.39c-1.3,1-2.46,1.91-3.42,2.64C56.12,87.8,55.2,88.44,54.69,88.81Z"/><path class="cls-3" d="M54.35,89S27.53,56.56,21.1,79.77,54.35,89,54.35,89Z"/><path class="cls-4" d="M53.7,88.81c-.51-.36-1.43-1-2.64-1.93-1-.73-2.11-1.62-3.42-2.64l-4.34-3.39C41.73,79.6,40,78.35,38.19,77a36.85,36.85,0,0,0-5.79-3.83A8.83,8.83,0,0,0,29,72.31a5.45,5.45,0,0,0-3.33,1.12l-.69.6c-.2.24-.39.49-.58.73a9.06,9.06,0,0,0-.95,1.63c-.23.6-.42,1.22-.62,1.83l-.36,1.86-.21,2.07c0,.62,0,1.19.06,1.77l.11.86.05.42.12.39.2.76c.11.22.21.44.31.66a5,5,0,0,0,1.83,2,9.78,9.78,0,0,0,2.82,1,32.94,32.94,0,0,0,6.6.49c2.21,0,4.36-.13,6.35-.32s3.85-.37,5.5-.54l4.3-.49C52,89,53.08,88.87,53.7,88.81Zm.73.41-.87.53c-.57.33-1.43.8-2.54,1.33s-2.48,1.15-4.09,1.75a52.13,52.13,0,0,1-5.52,1.75,43.35,43.35,0,0,1-6.87,1.17A22.3,22.3,0,0,1,26.4,95a13.56,13.56,0,0,1-4.31-2.12A9.45,9.45,0,0,1,19,88.67a10.58,10.58,0,0,1-.44-4.92c.14-.79.33-1.58.52-2.32l.7-2c0-.14,0-.06,0-.1v0l0-.06.06-.13L20,78.9l.23-.5.45-1c.35-.65.7-1.29,1.09-1.91l.64-.9.31-.45.38-.41c.25-.27.49-.55.75-.81l.87-.7a9.39,9.39,0,0,1,4.09-1.67,14.89,14.89,0,0,1,4.31.08,21.1,21.1,0,0,1,7.48,2.72,32.42,32.42,0,0,1,5.46,4.26A44.81,44.81,0,0,1,50,81.85a44,44,0,0,1,2.62,3.59,25.6,25.6,0,0,1,1.92,3.39v0A.3.3,0,0,1,54.44,89.22Z"/><polygon class="cls-6" points="63.89 120.15 54.05 114.52 44.22 120.15 44.22 92.07 63.89 92.07 63.89 120.15"/><rect class="cls-6" x="45.68" y="78.79" width="17.02" height="17.02" rx="5.76" ry="5.76"/><line class="cls-7" x1="54.04" y1="95.81" x2="54.04" y2="106.11"/></g></g></svg>